<svg width="260" height="256" viewBox="0 0 260 256" fill="none" xmlns="http://www.w3.org/2000/svg">
<g clip-path="url(#clip0_2176_4565)">
<path d="M131.076 256C94.5043 256 59.8326 240.333 35.5775 212.934H9.68694C8.34083 212.934 7.05763 212.391 6.12667 211.433L1.42159 206.627C0.301928 205.479 -0.20129 203.877 0.0628995 202.287C0.327089 200.71 1.33352 199.348 2.76769 198.642L19.5374 190.303C8.96985 171.318 3.4093 149.899 3.4093 128C3.4093 93.8145 16.6817 61.66 40.7984 37.4905C64.9151 13.321 96.9701 0 131.076 0C155.029 0 178.378 6.68572 198.595 19.3507C217.39 31.1201 232.814 47.5569 243.343 67.0338H255.006C256.566 67.0338 258.037 67.7654 258.981 69.0143C259.925 70.2631 260.226 71.8778 259.811 73.3915L254.1 93.7388C257.169 104.865 258.729 116.382 258.729 128C258.729 162.185 245.457 194.34 221.34 218.51C197.224 242.692 165.169 256 131.076 256Z" fill="white"/>
<path d="M217.31 215.531C265.216 167.495 265.216 89.6135 217.31 41.5776C169.404 -6.45819 91.7331 -6.45819 43.8272 41.5776C-4.07867 89.6135 -4.07867 167.495 43.8272 215.531C91.7331 263.567 169.404 263.567 217.31 215.531Z" fill="#FFC063"/>
<path d="M108.429 221.519C135.461 208.388 146.759 175.77 133.663 148.664C120.568 121.558 88.0371 110.229 61.0046 123.36C33.9721 136.492 22.6741 169.11 35.7698 196.216C48.8656 223.322 81.396 234.651 108.429 221.519Z" fill="#E36352"/>
<path d="M173.148 133.425C203.16 132.223 226.518 106.853 225.32 76.7596C224.121 46.6661 198.82 23.2446 168.808 24.4463C138.796 25.648 115.438 51.0178 116.636 81.1113C117.835 111.205 143.136 134.626 173.148 133.425Z" fill="#E36352"/>
<path d="M4.47864 203.687L9.18372 208.494H175.673L221.504 182.571L225.693 175.254L163.722 162.93L4.47864 203.687Z" fill="#6E72FF"/>
<path d="M94.0891 72.5842L61.6442 175.254L4.47864 203.687H176.063L225.693 175.254L254.502 72.5842H94.0891Z" fill="#412945"/>
<path d="M66.9657 172.164L97.5236 77.895H246.577L219.353 171.962L66.9657 172.164Z" fill="white"/>
<path d="M209.137 177.727C209.074 177.462 208.848 177.285 208.571 177.285H185.587H183.209H155.029H152.651H116.457H114.079H84.3267H81.949H63.6319C63.5438 177.285 63.4558 177.31 63.3677 177.348L53.794 182.192L51.5044 183.34L38.6472 189.849L36.3575 190.997L22.6071 197.96C22.3681 198.087 22.2423 198.351 22.3052 198.616C22.3681 198.881 22.5945 199.058 22.8587 199.058L42.9119 198.843L45.3399 198.818L75.6588 198.49L78.0868 198.465L114.998 198.074L117.426 198.049L146.147 197.746L148.575 197.721L171.522 197.481C171.61 197.481 171.698 197.456 171.786 197.418L184.253 190.997L186.493 189.849L199.136 183.34L201.375 182.192L208.798 178.37C209.074 178.244 209.188 177.979 209.137 177.727ZM181.133 178.433L174.34 182.192H146.172L152.966 178.433H181.133ZM91.334 189.849H61.5939L73.3692 183.34H103.109L91.334 189.849ZM105.487 183.34H141.694L129.918 189.849H93.7117L105.487 183.34ZM144.071 183.34H172.239L160.464 189.849H132.296L144.071 183.34ZM150.575 178.433L143.782 182.192H107.575L114.369 178.433H150.575ZM111.991 178.433L105.198 182.192H75.4575L82.251 178.433H111.991ZM63.7703 178.433H79.8607L73.0672 182.192H56.3478L63.7703 178.433ZM54.0708 183.34H70.9789L59.2036 189.849H41.2136L54.0708 183.34ZM25.3622 197.872L38.9365 190.997H57.1152L45.0632 197.658L25.3622 197.872ZM47.5038 197.645L59.5055 191.01H89.2457L77.8227 197.33L47.5038 197.645ZM80.2507 197.292L91.6234 190.997H127.83L117.162 196.901L80.2507 197.292ZM119.59 196.876L130.22 190.997H158.388L148.311 196.56L119.59 196.876ZM171.421 196.333L150.751 196.548L160.778 190.997H181.775L171.421 196.333ZM184.002 189.849H162.854L174.629 183.34H196.658L184.002 189.849ZM198.897 182.192H176.717L183.511 178.433H206.193L198.897 182.192Z" fill="#F7EDE5"/>
<path d="M127.075 103.25C127.075 122.059 115.778 138.218 99.612 145.257C94.0263 147.704 85.8238 134.888 79.3449 134.888C66.777 134.888 57.4298 143.957 49.177 135.72C46.1451 132.693 43.5284 129.249 41.44 125.464C37.7791 118.88 49.5796 107.451 49.5796 99.3775C49.5796 85.779 41.6161 77.4156 51.0137 69.0269C59.0778 61.8114 69.7334 57.4215 81.3955 57.4215C85.8615 57.4215 90.1766 58.0649 94.2527 59.2632C103.361 61.9375 98.7188 75.6117 104.506 82.8525C110.393 90.2068 126.61 91.1781 127.037 101.232C127.062 101.913 127.075 102.582 127.075 103.25Z" fill="#6E72FF"/>
<path d="M127.025 101.257C123.829 100.185 121.653 96.5141 118.256 96.1987C115.69 95.9464 113.3 97.826 112.142 100.122C110.985 102.43 110.809 105.079 110.708 107.665C110.607 110.239 110.544 112.888 109.563 115.272C109.198 116.18 108.582 117.126 107.626 117.328C106.808 117.492 105.978 117.051 105.311 116.533C103.197 114.868 101.902 112.181 101.902 109.482C101.914 107.817 102.38 106.177 102.506 104.524C102.631 102.859 102.367 101.03 101.159 99.8821C98.8824 97.7124 94.995 99.1883 92.1392 97.9017C90.0635 96.9682 88.8683 94.6849 88.4657 92.4396C87.8116 88.7561 88.9312 84.7951 91.4096 81.9947C92.655 80.5945 94.3408 79.1438 94.0892 77.2895C93.9257 76.1542 93.045 75.2711 92.3657 74.3629C88.7551 69.5693 90.5289 63.5144 94.2276 59.3011C112.608 64.6749 126.182 81.3135 127.025 101.257Z" fill="#B5E1E8"/>
<path d="M48.8499 116.924C49.2022 118.93 47.7806 120.835 46.1577 122.071C44.6103 123.244 42.7987 124.09 41.4401 125.477C37.7791 118.892 35.7034 111.311 35.7034 103.25C35.7034 89.6518 41.6162 77.4282 51.0012 69.0396C51.8818 69.2666 52.6996 69.7207 53.3412 70.3641C54.8382 71.8778 55.3414 74.2115 54.964 76.3055C54.725 77.6301 54.2344 79.2195 55.2031 80.153C55.6434 80.5819 56.285 80.7206 56.9014 80.7963C58.6375 80.9982 60.4239 80.7459 62.1349 81.1243C63.8458 81.5027 65.5693 82.8147 65.5819 84.5681C65.5945 86.1071 64.3616 87.3181 63.4181 88.5291C62.4746 89.7401 61.7826 91.5818 62.8142 92.7171C64.1226 94.1678 66.4626 92.9315 68.4125 92.8937C70.7147 92.8432 72.7276 94.7607 73.3189 96.9934C73.9102 99.2136 73.3063 101.61 72.237 103.641C71.2683 105.483 69.8341 107.173 67.9093 107.943C65.5693 108.889 62.9526 108.359 60.4743 107.867C57.7066 107.312 54.7753 106.82 52.0957 107.741C49.4161 108.662 47.1767 111.462 47.8687 114.212C48.1328 115.146 48.6738 115.978 48.8499 116.924Z" fill="#B5E1E8"/>
<path d="M100.354 143.617C100.14 144.185 99.9013 144.727 99.612 145.269C94.0263 147.717 87.8619 149.066 81.3829 149.066C68.8151 149.066 57.4298 143.97 49.177 135.733C50.3596 134.824 51.4541 133.677 52.4605 132.63C55.0521 129.943 58.0588 127.546 61.5813 126.31C62.8519 125.868 64.3239 125.603 65.4561 126.31C66.7896 127.142 67.2174 129.072 68.6515 129.728C69.8592 130.271 71.3186 129.64 72.1992 128.643C73.0798 127.647 73.5202 126.36 74.0611 125.149C75.3821 122.197 77.4075 119.485 80.1752 117.833C82.9429 116.18 86.4906 115.688 89.447 117C94.6679 119.321 96.2027 126.739 93.435 131.747C93.1834 132.188 92.9192 132.642 92.894 133.134C92.8563 134.143 93.8879 134.875 94.8692 135.089C95.8504 135.304 96.882 135.178 97.8507 135.468C100.908 136.363 101.474 140.615 100.354 143.617Z" fill="#B5E1E8"/>
<path d="M196.557 92.818C176.428 92.818 160.111 107.59 160.111 125.805C160.111 140.564 170.817 153.053 185.587 157.266L178.026 164.406L192.305 158.552C193.701 158.704 195.11 158.78 196.557 158.78C216.686 158.78 233.002 144.008 233.002 125.792C233.002 107.577 216.686 92.818 196.557 92.818Z" fill="#F7EDE5"/>
<path d="M187.26 122.134V111.879H191.323V112.913H188.405V116.395H190.757V117.429H188.405V122.122H187.26V122.134Z" fill="#412945"/>
<path d="M193.236 119.737V114.238C193.236 112.61 194.066 111.715 195.576 111.715C197.098 111.715 197.928 112.61 197.928 114.238V119.737C197.928 121.365 197.098 122.273 195.576 122.273C194.066 122.273 193.236 121.365 193.236 119.737ZM196.783 119.813V114.174C196.783 113.241 196.368 112.774 195.576 112.774C194.77 112.774 194.38 113.241 194.38 114.174V119.813C194.38 120.759 194.77 121.239 195.576 121.239C196.381 121.239 196.783 120.772 196.783 119.813Z" fill="#412945"/>
<path d="M200.293 122.134V111.879H202.533C204.155 111.879 204.847 112.61 204.847 114.212V114.843C204.847 115.966 204.457 116.66 203.665 116.912V116.924C204.47 117.126 204.86 117.845 204.86 119.069V120.898C204.86 121.453 204.898 121.869 205.011 122.147H203.853C203.765 121.857 203.728 121.44 203.728 120.898V119.006C203.728 117.908 203.35 117.517 202.369 117.517H201.451V122.147H200.293V122.134ZM201.425 116.458H202.344C203.262 116.458 203.69 116.041 203.69 115.057V114.326C203.69 113.329 203.35 112.913 202.495 112.913H201.425V116.458Z" fill="#412945"/>
<path d="M170.666 136.477V126.221H174.856V127.256H171.799V130.599H174.277V131.633H171.799V135.43H174.856V136.464H170.666V136.477Z" fill="#412945"/>
<path d="M178.403 136.477L176.579 126.221H177.737L179.209 134.925L180.68 126.221H181.737L179.926 136.477H178.403Z" fill="#412945"/>
<path d="M183.788 136.477V126.221H187.977V127.256H184.92V130.599H187.398V131.633H184.92V135.43H187.977V136.464H183.788V136.477Z" fill="#412945"/>
<path d="M190.091 136.477V126.221H192.33C193.953 126.221 194.645 126.953 194.645 128.555V129.186C194.645 130.309 194.255 131.002 193.462 131.255V131.267C194.267 131.469 194.657 132.188 194.657 133.412V135.241C194.657 135.796 194.695 136.212 194.808 136.49H193.651C193.563 136.199 193.525 135.783 193.525 135.241V133.349C193.525 132.251 193.148 131.86 192.166 131.86H191.223V136.49H190.091V136.477ZM191.223 130.8H192.141C193.06 130.8 193.487 130.384 193.487 129.4V128.669C193.487 127.672 193.148 127.256 192.292 127.256H191.223V130.8Z" fill="#412945"/>
<path d="M198.381 136.477V131.974L196.318 126.221H197.526L198.985 130.498L200.444 126.221H201.564L199.501 131.974V136.477H198.381Z" fill="#412945"/>
<path d="M203.174 134.08V128.58C203.174 126.953 204.005 126.057 205.514 126.057C207.037 126.057 207.867 126.953 207.867 128.58V134.08C207.867 135.708 207.037 136.616 205.514 136.616C204.005 136.616 203.174 135.708 203.174 134.08ZM206.722 134.156V128.517C206.722 127.584 206.307 127.117 205.514 127.117C204.709 127.117 204.319 127.584 204.319 128.517V134.156C204.319 135.102 204.709 135.581 205.514 135.581C206.319 135.581 206.722 135.102 206.722 134.156Z" fill="#412945"/>
<path d="M210.232 136.477V126.221H211.691L214.006 133.55V126.221H215.038V136.477H213.855L211.264 128.139V136.477H210.232Z" fill="#412945"/>
<path d="M217.541 136.477V126.221H221.73V127.256H218.673V130.599H221.152V131.633H218.673V135.43H221.73V136.464H217.541V136.477Z" fill="#412945"/>
<path d="M150.903 164.68V136.297H122.597V164.68H150.903Z" fill="#E36352"/>
<path d="M122.66 192.993V164.61H94.3544V192.993H122.66Z" fill="#B5E1E8"/>
<path d="M202.397 226.705V198.322H174.091V226.705H202.397Z" fill="#B5E1E8"/>
<path d="M108.463 53.198V28.6753L84.0068 28.6753V53.198H108.463Z" fill="#E36352"/>
</g>
<defs>
<clipPath id="clip0_2176_4565">
<rect width="260" height="256" fill="white"/>
</clipPath>
</defs>
</svg>
