<svg width="257" height="257" viewBox="0 0 257 257" fill="none" xmlns="http://www.w3.org/2000/svg">
<g clip-path="url(#clip0_2176_4442)">
<path d="M128.494 257C90.3796 257 54.6779 240.337 30.168 211.213C27.8426 210.778 26.0768 208.739 26.0768 206.276V206.102C9.01558 183.632 0 156.834 0 128.494C0 94.1724 13.3679 61.9028 37.6416 37.6292C61.9028 13.3679 94.1724 0 128.494 0C162.815 0 195.085 13.3679 219.358 37.6416C243.632 61.9153 257 94.1848 257 128.506C257 156.013 248.457 182.177 232.291 204.287V213.8C232.291 217.928 228.934 221.286 224.805 221.286H217.406C193.356 244.328 161.87 257 128.494 257Z" fill="white"/>
<path d="M128.394 252.088C196.592 252.088 251.877 196.803 251.877 128.606C251.877 60.4083 196.592 5.12335 128.394 5.12335C60.1968 5.12335 4.91187 60.4083 4.91187 128.606C4.91187 196.803 60.1968 252.088 128.394 252.088Z" fill="#E36352"/>
<path d="M90.8025 227.068C122.662 227.068 148.49 201.241 148.49 169.381C148.49 137.521 122.662 111.694 90.8025 111.694C58.9427 111.694 33.1152 137.521 33.1152 169.381C33.1152 201.241 58.9427 227.068 90.8025 227.068Z" fill="#FFC063"/>
<path d="M235.487 179.031L132.274 226.534L19.4736 79.0138L115.375 58.9184L235.487 179.031Z" fill="#412945"/>
<path d="M235.487 179.031V185.062C235.487 187.773 233.858 190.223 231.346 191.255L135.582 230.985C132.809 232.129 129.625 231.309 127.76 228.958L20.9286 94.3216C19.9835 93.1403 19.4736 91.6605 19.4736 90.1558V79.0262L132.734 220.95L235.487 179.031Z" fill="#6E72FF"/>
<path d="M36.137 84.9579L132.958 201.638L217.22 171.271L115.611 68.9661L36.137 84.9579Z" fill="white"/>
<path d="M39.0965 112.664C38.4498 112.664 37.8281 112.378 37.3928 111.843L27.1462 99.159C26.798 98.7362 26.6363 98.2015 26.6612 97.6543L26.686 97.2439C26.7358 96.3113 27.3451 95.5279 28.228 95.2543C29.1234 94.9807 30.056 95.2667 30.628 96.0004L40.8498 109.095C41.198 109.542 41.3597 110.09 41.3099 110.649C41.2229 111.557 40.626 112.291 39.7555 112.564C39.5441 112.639 39.3203 112.664 39.0965 112.664ZM28.912 96.0501C28.7627 96.0501 28.626 96.075 28.5016 96.1123C28.0788 96.2491 27.6187 96.6222 27.5814 97.2937L27.5565 97.704C27.5441 98.0274 27.6436 98.3507 27.8425 98.5994L38.0892 111.283C38.4996 111.793 39.084 111.843 39.4944 111.719C39.9048 111.594 40.3649 111.234 40.427 110.575C40.4519 110.239 40.3649 109.915 40.1535 109.642L29.9317 96.5476C29.6456 96.1869 29.2602 96.0501 28.912 96.0501Z" fill="#412945"/>
<path d="M54.2054 131.118C53.5587 131.118 52.937 130.832 52.5018 130.297L42.2551 117.613C41.9069 117.19 41.7328 116.655 41.7701 116.108L41.795 115.698C41.8447 114.765 42.454 113.982 43.3369 113.708C44.2198 113.435 45.1649 113.721 45.737 114.454L55.9588 127.549C56.3069 127.996 56.4686 128.544 56.4189 129.103C56.3318 130.011 55.7349 130.745 54.8645 131.018C54.6406 131.093 54.4168 131.118 54.2054 131.118ZM44.0209 114.504C43.8717 114.504 43.7349 114.529 43.6105 114.566C43.1877 114.703 42.7276 115.076 42.6903 115.748L42.6654 116.158C42.653 116.481 42.7525 116.805 42.9515 117.053L53.1981 129.737C53.6085 130.247 54.1929 130.297 54.6033 130.173C55.0137 130.048 55.4738 129.688 55.536 129.029C55.5608 128.693 55.4738 128.369 55.2624 128.096L45.0406 115.002C44.7546 114.628 44.3691 114.504 44.0209 114.504Z" fill="#412945"/>
<path d="M178.347 198.268C177.302 198.268 176.27 197.858 175.499 197.087L175.138 196.726C174.168 195.756 173.758 194.376 174.044 193.033C174.33 191.69 175.263 190.608 176.544 190.111L191.267 184.49C192.821 183.893 194.538 184.303 195.669 185.522L195.781 185.646C196.676 186.616 197.037 187.972 196.751 189.253C196.465 190.546 195.557 191.603 194.339 192.1L179.864 197.957C179.366 198.169 178.857 198.268 178.347 198.268ZM176.867 190.956C175.872 191.342 175.138 192.187 174.927 193.232C174.703 194.276 175.027 195.346 175.773 196.104L176.133 196.465C177.029 197.36 178.359 197.622 179.516 197.149L193.99 191.292C194.96 190.906 195.644 190.098 195.868 189.079C196.092 188.059 195.818 187.039 195.122 186.268L195.01 186.144C194.14 185.199 192.797 184.875 191.59 185.335L176.867 190.956Z" fill="#F7EDE5"/>
<path d="M220.08 65.2852V167.839H210.753L152.146 154.372L89.1983 167.839H76.0667V65.2852L81.5879 51.6189L208.813 57.4386L211.064 57.5381L214.807 57.6997L220.08 65.2852Z" fill="#F7EDE5"/>
<path d="M220.08 47.5774H76.0667V65.2852H220.08V47.5774Z" fill="#F8BDFF"/>
<path d="M214.148 61.1194C214.036 61.1194 213.911 61.0697 213.824 60.9826L205.331 52.3525C205.157 52.1785 205.157 51.8924 205.331 51.7059C205.505 51.5318 205.804 51.5318 205.978 51.7059L214.471 60.336C214.645 60.5101 214.645 60.7961 214.471 60.9826C214.384 61.0821 214.26 61.1194 214.148 61.1194Z" fill="#412945"/>
<path d="M205.593 61.0445C205.481 61.0445 205.356 60.9948 205.269 60.9077C205.095 60.7336 205.095 60.4476 205.269 60.2611L213.899 51.7678C214.073 51.5937 214.372 51.5937 214.546 51.7678C214.72 51.9419 214.72 52.2279 214.546 52.4144L205.916 60.9077C205.816 61.0072 205.704 61.0445 205.593 61.0445Z" fill="#412945"/>
<path d="M210.753 167.839H89.1982C90.7029 164.183 93.8863 159.731 100.651 157.12C113.596 152.096 138.255 149.509 138.255 149.509C138.255 149.509 160.639 146.774 176.32 149.808C192.001 152.855 207.371 158.028 210.417 166.857C210.529 167.192 210.641 167.516 210.753 167.839Z" fill="#E36352"/>
<path d="M198.194 101.111C197.932 104.133 196.104 106.894 193.63 108.697C191.143 110.5 188.046 111.383 184.962 111.557C183.831 111.619 182.848 111.47 181.99 111.171C177.215 119.839 169.083 126.467 159.296 129.339C159.445 130.546 154.62 131.69 154.832 132.896C155.08 134.314 160.39 135.781 160.689 137.111C161.994 142.819 164.295 148.577 164.295 148.577C164.295 148.577 159.893 155.217 151.449 155.429C143.006 155.64 138.231 149.286 138.231 149.286C139.524 143.416 140.22 134.338 140.481 130.123C129.24 127.822 119.814 120.697 114.566 111.035C113.609 111.433 112.49 111.619 111.196 111.545C108.112 111.37 105.016 110.5 102.529 108.684C100.054 106.894 98.2263 104.121 97.9652 101.099C97.7787 98.8978 98.4502 96.6097 100.005 95.0304C103.026 91.9589 106.782 92.531 110.114 94.4211C110.114 94.0978 110.102 93.7745 110.102 93.4387C110.102 72.7464 127.213 55.9712 148.303 55.9712C169.406 55.9712 186.504 72.7464 186.504 93.4387C186.504 93.6874 186.48 93.9361 186.48 94.1724C189.688 92.5061 193.232 92.1082 196.117 95.0304C197.709 96.6097 198.393 98.9103 198.194 101.111Z" fill="#FF9582"/>
<path d="M138.467 113.733C138.467 117.24 134.525 120.088 129.65 120.088C124.788 120.088 120.834 117.24 120.834 113.733C120.834 110.226 124.776 107.379 129.65 107.379C134.513 107.379 138.467 110.226 138.467 113.733Z" fill="#E36352"/>
<path d="M175.922 113.037C175.922 116.543 171.98 119.391 167.105 119.391C162.243 119.391 158.289 116.543 158.289 113.037C158.289 109.53 162.231 106.682 167.105 106.682C171.968 106.682 175.922 109.53 175.922 113.037Z" fill="#E36352"/>
<path d="M140.37 99.8678C140.37 104.73 136.428 108.684 131.553 108.684C126.691 108.684 122.736 104.742 122.736 99.8678C122.736 94.9931 126.678 91.0511 131.553 91.0511C136.415 91.0511 140.37 94.9931 140.37 99.8678Z" fill="white"/>
<path d="M138.765 99.6439C138.765 103.549 135.607 106.707 131.702 106.707C127.797 106.707 124.639 103.549 124.639 99.6439C124.639 95.7393 127.797 92.5807 131.702 92.5807C135.607 92.5807 138.765 95.7393 138.765 99.6439Z" fill="#412945"/>
<path d="M140.32 96.9455C139.972 95.6895 139.387 94.4833 138.529 93.4512C136.801 91.3869 134.127 90.3175 131.516 90.2802C130.197 90.2553 128.867 90.4916 127.648 91.0138C126.417 91.5361 125.323 92.3444 124.452 93.3268C124.054 93.762 123.719 94.2346 123.42 94.732L121.368 98.276L121.779 100.726C121.853 100.975 122.065 101.149 122.326 101.161C122.649 101.161 122.923 100.9 122.923 100.577C122.948 98.2139 123.731 95.8387 125.286 94.0729C126.057 93.2025 127.014 92.4812 128.083 92.0335C129.153 91.5734 130.322 91.362 131.491 91.3745C132.672 91.3993 133.853 91.6232 134.923 92.0833C136.005 92.5434 136.962 93.2522 137.721 94.1227C138.467 95.0056 139.002 96.075 139.325 97.219C139.661 98.3631 139.822 99.5693 139.909 100.788C139.934 101.062 140.171 101.273 140.444 101.248C140.718 101.223 140.929 100.987 140.917 100.713C140.83 99.4698 140.68 98.189 140.32 96.9455Z" fill="#412945"/>
<path d="M156.859 99.2709C156.859 104.133 160.801 108.087 165.675 108.087C170.537 108.087 174.492 104.146 174.492 99.2709C174.492 94.4087 170.55 90.4543 165.675 90.4543C160.801 90.4543 156.859 94.3962 156.859 99.2709Z" fill="white"/>
<path d="M165.526 106.098C169.427 106.098 172.589 102.936 172.589 99.0346C172.589 95.1337 169.427 91.9714 165.526 91.9714C161.625 91.9714 158.463 95.1337 158.463 99.0346C158.463 102.936 161.625 106.098 165.526 106.098Z" fill="#412945"/>
<path d="M175.934 97.2812L173.796 94.0978C173.497 93.6128 173.161 93.1527 172.776 92.7175C171.893 91.7351 170.799 90.9268 169.58 90.4045C168.361 89.8822 167.018 89.646 165.713 89.6708C163.101 89.7081 160.428 90.7776 158.699 92.8418C157.841 93.8615 157.257 95.0802 156.908 96.3362C156.548 97.5921 156.399 98.8605 156.312 100.129C156.299 100.402 156.498 100.639 156.772 100.664C157.045 100.688 157.294 100.477 157.306 100.204C157.393 98.9849 157.555 97.7786 157.891 96.6346C158.214 95.4906 158.749 94.4211 159.495 93.5382C160.254 92.6677 161.211 91.9589 162.293 91.4988C163.362 91.0263 164.544 90.8149 165.725 90.79C166.894 90.7776 168.075 90.989 169.132 91.4491C170.202 91.9092 171.159 92.618 171.93 93.4885C173.485 95.2418 174.268 97.617 174.293 99.9921C174.305 100.315 174.567 100.577 174.89 100.564C175.139 100.564 175.338 100.402 175.425 100.191L175.934 97.2812Z" fill="#412945"/>
<path d="M144.486 110.674C144.486 110.674 146.239 114.765 149.646 114.765C153.053 114.765 154.322 110.09 154.322 110.09L144.486 110.674Z" fill="#F7EDE5"/>
<path d="M127.25 86.2636C126.877 86.7734 126.703 87.3952 126.852 88.104C126.964 88.6636 127.387 89.1361 127.884 89.4097C129.538 90.305 132.075 89.6211 133.53 88.6263C135.134 87.532 135.98 84.9081 133.567 84.3237C131.976 83.9133 128.494 84.5475 127.25 86.2636Z" fill="#412945"/>
<path d="M169.02 85.0574C169.431 85.5423 169.642 86.1392 169.543 86.8605C169.468 87.4325 169.083 87.9299 168.598 88.2283C167.006 89.2356 164.432 88.7258 162.915 87.8304C161.236 86.8605 160.216 84.2988 162.579 83.5402C164.146 83.0428 167.665 83.4408 169.02 85.0574Z" fill="#412945"/>
<path d="M184.826 107.279C184.739 107.279 184.652 107.267 184.577 107.229C184.254 107.093 184.117 106.72 184.254 106.396C186.069 102.23 189.539 98.8978 193.779 97.2439C194.102 97.1196 194.475 97.2812 194.6 97.6045C194.724 97.9279 194.563 98.3009 194.239 98.4253C190.322 99.9548 187.101 103.051 185.423 106.906C185.298 107.142 185.062 107.279 184.826 107.279Z" fill="#412945"/>
<path d="M111.321 109.518C111.035 109.518 110.773 109.319 110.711 109.033C109.617 104.469 106.048 100.514 101.634 98.9476C101.31 98.8356 101.136 98.475 101.248 98.1393C101.36 97.8159 101.721 97.6419 102.056 97.7538C106.869 99.4574 110.749 103.772 111.942 108.734C112.029 109.07 111.818 109.418 111.47 109.493C111.42 109.505 111.37 109.518 111.321 109.518Z" fill="#412945"/>
<path d="M160.714 137.161C156.051 136.564 146.575 134.91 140.556 130.16C140.556 130.16 144.237 131.627 149.808 131.627C155.379 131.627 159.309 129.327 159.309 129.327C159.619 132.001 160.154 134.674 160.714 137.161Z" fill="#412945"/>
<path d="M104.158 93.476C104.158 93.476 110.699 94.5455 112.378 98.189C114.057 101.845 114.504 103.822 114.504 103.822C114.504 103.822 118.309 98.9475 118.011 90.5786C118.011 90.5786 126.989 85.5547 126.989 74.7485C126.989 74.7485 135.358 74.5993 137.497 62.7236C137.497 62.7236 142.981 68.0459 144.647 72.7713C146.326 77.4842 146.625 84.1869 146.625 84.1869H182.252C182.252 84.1869 180.884 95.6025 183.321 100.166C183.321 100.166 185.758 92.5558 191.242 93.3144C191.242 93.3144 193.68 66.2179 176.022 55.5608C160.602 46.2593 138.728 49.1691 131.267 57.8489C131.267 57.8489 112.85 57.0904 107.366 70.1847C107.354 70.1847 102.939 78.7153 104.158 93.476Z" fill="#412945"/>
<path d="M106.508 44.195H52.626C45.7991 44.195 40.2529 49.7287 40.2529 56.5681V80.4687C40.2529 87.2957 45.7866 92.8418 52.626 92.8418H89.1485L100.228 104.506L97.2065 92.8418H106.508C113.348 92.8418 118.881 87.3081 118.881 80.4687V56.5681C118.881 49.7287 113.335 44.195 106.508 44.195Z" fill="#B5E1E8"/>
<path d="M67.0137 63.7184V58.2469C67.0137 56.7546 67.8095 55.8842 69.2272 55.8842C70.6448 55.8842 71.4406 56.7671 71.4406 58.2469V59.2666H70.3836V58.1722C70.3836 57.3391 69.9484 56.879 69.252 56.879C68.5556 56.879 68.1204 57.3266 68.1204 58.1722V63.7806C68.1204 64.6137 68.5556 65.0738 69.252 65.0738C69.9484 65.0738 70.3836 64.6262 70.3836 63.7806V62.3878H71.4282V63.7059C71.4282 65.1982 70.6323 66.0687 69.2147 66.0687C67.822 66.0811 67.0137 65.1982 67.0137 63.7184Z" fill="#412945"/>
<path d="M73.6042 65.9443V56.0334H74.711V64.937H77.5462V65.9443H73.6042Z" fill="#412945"/>
<path d="M83.1794 65.9443L82.8063 63.8303H80.5182L80.1452 65.9443H79.113L80.9535 56.0334H82.4457L84.2986 65.9443H83.1794ZM80.6799 62.8604H82.6322L81.6374 57.2769L80.6799 62.8604Z" fill="#412945"/>
<path d="M85.9402 63.1215H86.9847V63.7557C86.9847 64.6386 87.3702 65.0738 88.1288 65.0738C88.9122 65.0738 89.2853 64.6386 89.2853 63.7433C89.2853 63.2956 89.1733 62.8977 88.9495 62.537C88.7381 62.1888 88.3402 61.7785 87.7557 61.2935C87.0718 60.7464 86.5992 60.2365 86.3257 59.7764C86.0521 59.3287 85.9277 58.8189 85.9277 58.2469C85.9277 56.7546 86.736 55.8842 88.1537 55.8842C89.5713 55.8842 90.3298 56.7422 90.3298 58.2717V58.6697H89.2853V58.1971C89.2853 57.3142 88.8998 56.879 88.1537 56.879C87.4075 56.879 87.022 57.3018 87.022 58.1722C87.022 58.5826 87.134 58.9557 87.3578 59.2914C87.5816 59.6272 87.992 60.0375 88.5889 60.5225C89.2728 61.0945 89.7329 61.6044 89.9941 62.0645C90.2677 62.5122 90.392 63.0469 90.392 63.6562C90.392 65.1982 89.5713 66.0811 88.1412 66.0811C86.7112 66.0811 85.9277 65.2231 85.9277 63.6686V63.1215H85.9402Z" fill="#412945"/>
<path d="M92.2075 63.1215H93.2645V63.7557C93.2645 64.6386 93.65 65.0738 94.4086 65.0738C95.192 65.0738 95.565 64.6386 95.565 63.7433C95.565 63.2956 95.4531 62.8977 95.2293 62.537C95.0179 62.1888 94.62 61.7785 94.0355 61.2935C93.3516 60.7464 92.879 60.2365 92.6054 59.7764C92.3319 59.3287 92.2075 58.8189 92.2075 58.2469C92.2075 56.7546 93.0158 55.8842 94.4334 55.8842C95.8511 55.8842 96.6096 56.7422 96.6096 58.2717V58.6697H95.565V58.1971C95.565 57.3142 95.1796 56.879 94.4334 56.879C93.6873 56.879 93.3018 57.3018 93.3018 58.1722C93.3018 58.5826 93.4137 58.9557 93.6376 59.2914C93.8614 59.6272 94.2718 60.0375 94.8687 60.5225C95.5526 61.0945 96.0127 61.6044 96.2739 62.0645C96.5474 62.5122 96.6718 63.0469 96.6718 63.6562C96.6718 65.1982 95.8511 66.0811 94.421 66.0811C92.9909 66.0811 92.2075 65.2231 92.2075 63.6686V63.1215Z" fill="#412945"/>
<path d="M64.6384 77.4967V72.1868C64.6384 70.62 65.4467 69.7495 66.9016 69.7495C68.369 69.7495 69.1773 70.6075 69.1773 72.1868V77.4967C69.1773 79.0635 68.369 79.9464 66.9016 79.9464C65.4467 79.9464 64.6384 79.0635 64.6384 77.4967ZM68.083 77.5589V72.0998C68.083 71.192 67.6851 70.7443 66.9016 70.7443C66.1182 70.7443 65.7452 71.192 65.7452 72.0998V77.5589C65.7452 78.4791 66.1307 78.9268 66.9016 78.9268C67.6851 78.9392 68.083 78.4791 68.083 77.5589Z" fill="#412945"/>
<path d="M71.4778 79.7972V69.8863H72.8954L75.1338 76.962V69.8863H76.141V79.7972H74.9845L72.4726 71.7391V79.7972H71.4778Z" fill="#412945"/>
<path d="M78.5659 79.7972V69.8863H79.6727V78.79H82.5079V79.7972H78.5659Z" fill="#412945"/>
<path d="M84.4602 79.7972V69.8863H85.5669V79.7972H84.4602Z" fill="#412945"/>
<path d="M87.9795 79.7972V69.8863H89.3971L91.6355 76.962V69.8863H92.6427V79.7972H91.4987L88.9867 71.7391V79.7972H87.9795Z" fill="#412945"/>
<path d="M95.0552 79.7972V69.8863H99.1215V70.8935H96.1619V74.1267H98.5744V75.134H96.1619V78.8024H99.1215V79.8096H95.0552V79.7972Z" fill="#412945"/>
<path d="M163.226 216.362H224.693C226.049 216.362 227.155 215.255 227.155 213.899V180.1C227.155 178.745 226.049 177.638 224.693 177.638H206.165L196.963 169.083L197.957 177.638H163.213C161.858 177.638 160.751 178.745 160.751 180.1V213.899C160.763 215.255 161.87 216.362 163.226 216.362Z" fill="#F7EDE5"/>
<path d="M212.842 189.228L207.172 193.903C206.886 194.14 206.438 193.941 206.438 193.555V185.037C206.438 184.788 206.239 184.589 205.99 184.589H182.575C182.326 184.589 182.127 184.788 182.127 185.037V208.453C182.127 208.701 182.326 208.9 182.575 208.9H205.99C206.239 208.9 206.438 208.701 206.438 208.453V197.435C206.438 197.062 206.861 196.851 207.159 197.074L212.855 201.402C213.153 201.626 213.576 201.414 213.576 201.041V189.551C213.564 189.19 213.128 188.991 212.842 189.228Z" fill="#6E72FF"/>
<path d="M188.295 189.961C188.295 190.981 187.474 191.802 186.455 191.802C185.435 191.802 184.614 190.981 184.614 189.961C184.614 188.942 185.435 188.121 186.455 188.121C187.462 188.121 188.295 188.954 188.295 189.961Z" fill="#F7EDE5"/>
<path d="M204.523 131.802C205.966 131.802 205.966 129.563 204.523 129.563C203.081 129.563 203.081 131.802 204.523 131.802Z" fill="#F7EDE5"/>
<path d="M59.4656 177.924H31.0012V206.388H59.4656V177.924Z" fill="#6E72FF"/>
<path d="M241.332 107.889H212.867V136.353H241.332V107.889Z" fill="#6E72FF"/>
<path d="M143.217 20.6053H122.475V41.3473H143.217V20.6053Z" fill="#6E72FF"/>
<path d="M87.7932 149.584H59.3289V178.048H87.7932V149.584Z" fill="#F8BDFF"/>
</g>
<defs>
<clipPath id="clip0_2176_4442">
<rect width="257" height="257" fill="white"/>
</clipPath>
</defs>
</svg>
