<svg width="250" height="250" viewBox="0 0 250 250" fill="none" xmlns="http://www.w3.org/2000/svg">
<g clip-path="url(#clip0_2176_4372)">
<path d="M124.994 250C91.6074 250 60.2168 236.996 36.6042 213.384C13.0038 189.771 0 158.381 0 124.994C0 91.6074 13.0038 60.2168 36.6163 36.6042C60.2168 13.0038 91.6074 0 124.994 0C158.381 0 189.771 13.0038 213.384 36.6163C236.996 60.2289 250 91.6195 250 125.006C250 149.235 243.057 172.739 229.908 192.977C228.577 196.4 226.448 199.4 223.69 201.71C212.307 216.335 197.586 228.444 181.074 236.742C163.582 245.536 144.711 250 124.994 250Z" fill="white"/>
<path d="M124.994 244.907C191.307 244.907 245.065 191.15 245.065 124.837C245.065 58.5235 191.307 4.76605 124.994 4.76605C58.6808 4.76605 4.92334 58.5235 4.92334 124.837C4.92334 191.15 58.6808 244.907 124.994 244.907Z" fill="#B5E1E8"/>
<path d="M87.9663 195.493L69.7368 162.336L100.039 180.989L117.663 150.844L119.067 177.578L150.385 168.082L134.115 193.255L159.59 201.021L128.72 209.924L134.212 239.21L116.466 219.71L92.4662 239.186L93.6517 212.065L64.0756 208.618L87.9663 195.493Z" fill="#FFC063"/>
<path d="M131.841 51.858L117.095 17.0078L145.328 38.6607L161.61 12.7619L164.598 37.2091L196.727 30.9551L177.977 54.3499L202.521 64.6683L170.9 70.3779L173.38 100.063L157.715 78.8455L131.853 95.7807L135.796 68.9263L106.728 62.4788L131.841 51.858Z" fill="#FFC063"/>
<path d="M229.121 102.434V110.26C229.121 110.926 228.831 111.555 228.323 111.966C218.065 120.482 115.45 207.928 112.837 208.835C111.942 209.15 40.9469 174.941 30.5317 169.884C29.7696 169.509 29.2858 168.735 29.2858 167.888V160.413L112.038 191.791L229.121 102.434Z" fill="#412945"/>
<path d="M229.121 102.434L112.026 199.291L29.2737 160.413L138.07 81.6398L229.121 102.434Z" fill="#6E72FF"/>
<path d="M40.8743 156.324L117.264 188.15L217.521 105.168L138.409 86.9744L40.8743 156.324Z" fill="#F7EDE5"/>
<path d="M79.5833 180.989C79.2083 180.989 78.8333 180.904 78.4704 180.747L61.015 172.751C60.2046 172.376 59.6239 171.626 59.4909 170.743C59.3457 169.86 59.6602 168.965 60.3255 168.36L60.4223 168.276C61.1965 167.562 62.3215 167.38 63.2892 167.792L81.047 175.509C81.8816 175.872 82.4744 176.634 82.6195 177.541C82.7647 178.449 82.4381 179.344 81.7607 179.961L81.3615 180.324C80.8534 180.759 80.2244 180.989 79.5833 180.989ZM62.2247 168.445C61.7892 168.445 61.3537 168.602 61.015 168.917L60.9183 169.001C60.4707 169.413 60.2651 169.993 60.3618 170.586C60.4586 171.191 60.8215 171.675 61.3779 171.929L78.8333 179.925C79.4744 180.215 80.2365 180.106 80.7567 179.634L81.1558 179.271C81.6155 178.86 81.8333 178.267 81.7365 177.662C81.6397 177.058 81.2526 176.55 80.6841 176.308L62.9263 168.578C62.7086 168.493 62.4666 168.445 62.2247 168.445Z" fill="#412945"/>
<path d="M208.569 126.131C208.315 126.131 208.049 126.071 207.807 125.95C207.19 125.647 206.815 125.03 206.839 124.341L206.852 124.123C206.864 123.627 207.106 123.155 207.493 122.841L217.533 114.724C218.065 114.288 218.779 114.216 219.396 114.518C220.013 114.821 220.376 115.438 220.351 116.127C220.339 116.623 220.109 117.083 219.722 117.397L209.682 125.732C209.343 125.998 208.956 126.131 208.569 126.131ZM207.94 123.397C207.71 123.579 207.577 123.857 207.565 124.147L207.553 124.365C207.541 124.776 207.747 125.127 208.11 125.296C208.473 125.478 208.884 125.429 209.198 125.163L219.238 116.829C219.456 116.647 219.589 116.381 219.601 116.091C219.613 115.692 219.408 115.341 219.045 115.159C218.682 114.978 218.283 115.026 217.968 115.28L207.94 123.397Z" fill="#6E72FF"/>
<path d="M193.908 137.695C193.654 137.695 193.388 137.635 193.146 137.514C192.529 137.211 192.154 136.595 192.178 135.905L192.19 135.687C192.203 135.191 192.444 134.72 192.832 134.405L202.872 126.288C203.404 125.853 204.118 125.78 204.735 126.083C205.352 126.385 205.714 127.002 205.69 127.691C205.678 128.187 205.448 128.647 205.061 128.962L195.021 137.296C194.682 137.562 194.295 137.695 193.908 137.695ZM193.279 134.962C193.049 135.143 192.916 135.421 192.904 135.712L192.892 135.929C192.88 136.341 193.086 136.691 193.448 136.861C193.811 137.042 194.223 136.994 194.537 136.728L204.577 128.393C204.795 128.212 204.928 127.946 204.94 127.655C204.952 127.256 204.747 126.905 204.384 126.724C204.021 126.542 203.622 126.591 203.307 126.845L193.279 134.962Z" fill="#6E72FF"/>
<path d="M107.031 68.9021H35.3946C27.3625 68.9021 20.8545 75.4101 20.8545 83.4422V110.526C20.8545 118.559 27.3625 125.067 35.3946 125.067H88.8131L103.498 137.006L98.7565 125.067H107.031C115.063 125.067 121.571 118.559 121.571 110.526V83.4301C121.559 75.4101 115.051 68.9021 107.031 68.9021Z" fill="#F8BDFF"/>
<path d="M134.187 136.655H210.928C219.529 136.655 226.508 144.155 226.508 153.397V184.582C226.508 193.823 219.541 201.323 210.928 201.323H153.699L137.974 215.077L143.054 201.323H134.187C125.587 201.323 118.607 193.823 118.607 184.582V153.385C118.619 144.143 125.587 136.655 134.187 136.655Z" fill="#E36352"/>
<path d="M40.7775 93.8332L39.58 84.0954H40.6324L41.6122 92.3332L42.6162 84.0954H43.838L44.8541 92.3332L45.8339 84.0954H46.7895L45.592 93.8332H44.2008L43.221 86.2365L42.2291 93.8332H40.7775Z" fill="#412945"/>
<path d="M48.7854 93.8332V84.0954H52.7773V85.0873H49.8741V88.2566H52.245V89.2486H49.8741V92.8533H52.7773V93.8453H48.7854V93.8332Z" fill="#412945"/>
<path d="M54.7733 93.8332V84.0954H55.862V92.8412H58.6442V93.8332H54.7733Z" fill="#412945"/>
<path d="M60.3861 91.6558V86.2849C60.3861 84.8212 61.1603 83.9624 62.5514 83.9624C63.9425 83.9624 64.7167 84.8212 64.7167 86.2849V87.2889H63.6885V86.2123C63.6885 85.3897 63.253 84.9422 62.5756 84.9422C61.8982 84.9422 61.4627 85.3897 61.4627 86.2123V91.7163C61.4627 92.5388 61.8982 92.9864 62.5756 92.9864C63.253 92.9864 63.6885 92.5388 63.6885 91.7163V90.3614H64.7167V91.6558C64.7167 93.1195 63.9425 93.9783 62.5514 93.9783C61.1724 93.9783 60.3861 93.1195 60.3861 91.6558Z" fill="#412945"/>
<path d="M66.7731 91.5711V86.3575C66.7731 84.8091 67.5714 83.9624 68.9988 83.9624C70.4504 83.9624 71.2367 84.8091 71.2367 86.3575V91.5711C71.2367 93.1195 70.4383 93.9783 68.9988 93.9783C67.5593 93.9783 66.7731 93.1195 66.7731 91.5711ZM70.148 91.6437V86.2849C70.148 85.3898 69.7609 84.9543 68.9988 84.9543C68.2368 84.9543 67.8618 85.4018 67.8618 86.2849V91.6437C67.8618 92.5509 68.2368 92.9985 68.9988 92.9985C69.7609 92.9864 70.148 92.5388 70.148 91.6437Z" fill="#412945"/>
<path d="M73.4867 93.8332V84.0954H75.0592L76.4866 91.8735L77.9019 84.0954H79.4866V93.8332H78.4463V85.7043L76.8979 93.8332H75.9786L74.4302 85.7043V93.8332H73.4867Z" fill="#412945"/>
<path d="M81.8696 93.8332V84.0954H85.8615V85.0873H82.9583V88.2566H85.3293V89.2486H82.9583V92.8533H85.8615V93.8453H81.8696V93.8332Z" fill="#412945"/>
<path d="M92.4663 93.8332V85.0873H90.7365V84.0954H95.2727V85.0873H93.5429V93.8332H92.4663Z" fill="#412945"/>
<path d="M97.0145 91.5711V86.3575C97.0145 84.8091 97.8129 83.9624 99.2403 83.9624C100.692 83.9624 101.478 84.8091 101.478 86.3575V91.5711C101.478 93.1195 100.68 93.9783 99.2403 93.9783C97.8129 93.9783 97.0145 93.1195 97.0145 91.5711ZM100.402 91.6437V86.2849C100.402 85.3898 100.014 84.9543 99.2524 84.9543C98.4903 84.9543 98.1153 85.4018 98.1153 86.2849V91.6437C98.1153 92.5509 98.4903 92.9985 99.2524 92.9985C100.002 92.9864 100.402 92.5388 100.402 91.6437Z" fill="#412945"/>
<path d="M44.7815 110.539V106.268L42.8219 100.801H43.9711L45.3622 104.865L46.7533 100.801H47.8299L45.8702 106.268V110.539H44.7815Z" fill="#412945"/>
<path d="M49.3419 108.264V103.051C49.3419 101.502 50.1403 100.656 51.5677 100.656C53.0193 100.656 53.8056 101.502 53.8056 103.051V108.264C53.8056 109.813 53.0072 110.672 51.5677 110.672C50.1403 110.672 49.3419 109.813 49.3419 108.264ZM52.729 108.337V102.978C52.729 102.083 52.3419 101.648 51.5798 101.648C50.8177 101.648 50.4427 102.095 50.4427 102.978V108.337C50.4427 109.244 50.8177 109.692 51.5798 109.692C52.3419 109.692 52.729 109.244 52.729 108.337Z" fill="#412945"/>
<path d="M56.0071 108.264V100.789H57.0958V108.337C57.0958 109.232 57.4708 109.668 58.2208 109.668C58.9707 109.668 59.3457 109.22 59.3457 108.337V100.789H60.3981V108.264C60.3981 109.825 59.6361 110.672 58.1966 110.672C56.7571 110.672 56.0071 109.825 56.0071 108.264Z" fill="#412945"/>
<path d="M62.7086 110.539V100.801H64.8376C66.386 100.801 67.0392 101.49 67.0392 103.014V103.607C67.0392 104.684 66.6642 105.337 65.9142 105.567V105.579C66.6763 105.772 67.0513 106.45 67.0513 107.611V109.353C67.0513 109.885 67.0876 110.272 67.1964 110.539H66.0957C66.011 110.26 65.9747 109.873 65.9747 109.353V107.563C65.9747 106.522 65.6118 106.147 64.6804 106.147H63.8094V110.539H62.7086ZM63.7973 105.156H64.6683C65.5392 105.156 65.9505 104.768 65.9505 103.825V103.135C65.9505 102.192 65.636 101.805 64.8134 101.805H63.7973V105.156Z" fill="#412945"/>
<path d="M72.531 108.349V102.978C72.531 101.514 73.3052 100.656 74.6963 100.656C76.0874 100.656 76.8616 101.514 76.8616 102.978V103.982H75.8455V102.906C75.8455 102.083 75.41 101.635 74.7326 101.635C74.0552 101.635 73.6197 102.083 73.6197 102.906V108.41C73.6197 109.232 74.0552 109.68 74.7326 109.68C75.41 109.68 75.8455 109.232 75.8455 108.41V107.055H76.8737V108.349C76.8737 109.813 76.0995 110.672 74.7084 110.672C73.3294 110.672 72.531 109.813 72.531 108.349Z" fill="#412945"/>
<path d="M79.0027 110.539V100.801H80.0914V109.547H82.8736V110.539H79.0027Z" fill="#412945"/>
<path d="M88.4139 110.539L88.051 108.47H85.801L85.4381 110.539H84.422L86.2365 100.801H87.7002L89.5147 110.539H88.4139ZM85.9583 107.514H87.8816L86.9018 102.035L85.9583 107.514Z" fill="#412945"/>
<path d="M91.1234 107.768H92.1516V108.397C92.1516 109.256 92.5266 109.692 93.2766 109.692C94.0387 109.692 94.4137 109.256 94.4137 108.385C94.4137 107.938 94.3048 107.551 94.075 107.2C93.8693 106.849 93.4823 106.45 92.9016 105.978C92.2363 105.434 91.7645 104.938 91.4984 104.49C91.2323 104.043 91.1113 103.547 91.1113 102.99C91.1113 101.527 91.9097 100.668 93.3008 100.668C94.6919 100.668 95.4419 101.514 95.4419 103.014V103.402H94.4137V102.942C94.4137 102.083 94.0387 101.648 93.3008 101.648C92.5629 101.648 92.1879 102.059 92.1879 102.918C92.1879 103.317 92.2968 103.68 92.5266 104.018C92.7444 104.357 93.1556 104.756 93.7363 105.228C94.4016 105.785 94.8613 106.281 95.1153 106.74C95.3814 107.188 95.5024 107.696 95.5024 108.301C95.5024 109.813 94.6919 110.684 93.2887 110.684C91.8855 110.684 91.1234 109.837 91.1234 108.313V107.768Z" fill="#412945"/>
<path d="M97.2927 107.768H98.3209V108.397C98.3209 109.256 98.6959 109.692 99.4459 109.692C100.208 109.692 100.583 109.256 100.583 108.385C100.583 107.938 100.474 107.551 100.244 107.2C100.039 106.849 99.6516 106.45 99.0709 105.978C98.4056 105.434 97.9339 104.938 97.6677 104.49C97.4016 104.043 97.2806 103.547 97.2806 102.99C97.2806 101.527 98.079 100.668 99.4701 100.668C100.861 100.668 101.611 101.514 101.611 103.014V103.402H100.583V102.942C100.583 102.083 100.208 101.648 99.4701 101.648C98.7322 101.648 98.3572 102.059 98.3572 102.918C98.3572 103.317 98.4661 103.68 98.6959 104.018C98.9137 104.357 99.325 104.756 99.9056 105.228C100.571 105.785 101.031 106.281 101.285 106.74C101.551 107.188 101.672 107.696 101.672 108.301C101.672 109.813 100.861 110.684 99.458 110.684C98.0548 110.684 97.2927 109.837 97.2927 108.313V107.768Z" fill="#412945"/>
<path d="M197.743 164.973C197.743 151.038 186.178 139.8 172.122 140.345C159.542 140.828 149.211 150.941 148.486 163.509C147.772 175.775 156.046 186.239 167.32 188.949V192.227C167.32 194.779 169.388 196.848 171.941 196.848H174.239C176.792 196.848 178.86 194.779 178.86 192.227V188.949C189.686 186.348 197.743 176.598 197.743 164.973Z" fill="#F7EDE5"/>
<path d="M175.546 195.577C173.247 190.932 173.683 185.598 174.094 180.445L174.167 179.489C174.215 178.945 174.251 178.388 174.288 177.844C174.384 176.55 174.481 175.243 174.614 173.925C174.554 173.937 174.493 173.961 174.421 173.973C174.009 174.07 173.598 174.142 173.187 174.191C173.296 174.735 173.38 175.292 173.453 175.86C173.792 178.679 173.683 181.727 173.102 185.731C172.691 188.586 172.086 191.574 170.453 194.078L169.594 193.521C171.118 191.186 171.687 188.332 172.086 185.598C172.655 181.691 172.751 178.727 172.425 175.993C172.352 175.4 172.255 174.82 172.146 174.251C171.3 174.239 170.501 174.094 169.788 173.804C167.925 173.066 166.63 171.421 165.832 170.247C165.312 169.497 164.816 168.663 164.695 167.695C164.562 166.534 165.106 165.421 166.014 164.997C167.429 164.32 168.953 165.384 169.896 166.606C171.312 168.433 172.352 170.671 172.969 173.199C173.417 173.15 173.828 173.078 174.179 172.993C174.36 172.945 174.554 172.896 174.735 172.848C174.88 171.663 175.062 170.477 175.316 169.304C175.993 166.159 177.021 163.921 178.57 162.264C179.005 161.792 179.743 161.284 180.493 161.272C180.904 161.272 181.267 161.417 181.546 161.695C181.824 161.985 181.945 162.336 182.029 162.687C182.61 165.094 182.066 167.804 180.578 169.921C179.417 171.578 177.675 172.872 175.691 173.61C175.534 175.062 175.425 176.513 175.316 177.941C175.279 178.497 175.231 179.041 175.195 179.598L175.122 180.554C174.711 185.574 174.3 190.751 176.465 195.154L175.546 195.577ZM166.957 165.796C166.788 165.796 166.63 165.832 166.473 165.905C165.893 166.183 165.663 166.945 165.735 167.562C165.82 168.3 166.243 169.001 166.691 169.655C167.429 170.719 168.578 172.195 170.187 172.836C170.767 173.066 171.36 173.175 171.929 173.199C171.336 170.9 170.38 168.868 169.098 167.211C168.554 166.497 167.719 165.796 166.957 165.796ZM180.529 162.264C180.179 162.264 179.695 162.542 179.332 162.929C177.917 164.453 176.961 166.534 176.332 169.485C176.126 170.453 175.969 171.433 175.836 172.413C177.421 171.723 178.787 170.634 179.743 169.292C181.062 167.405 181.558 165.022 181.037 162.893C180.989 162.687 180.929 162.493 180.82 162.372C180.747 162.3 180.662 162.264 180.529 162.264Z" fill="#412945"/>
<path d="M165.796 191.634H180.396C180.396 191.634 180.13 199.243 172.872 199.243C165.626 199.243 165.796 191.634 165.796 191.634Z" fill="#6E72FF"/>
<path d="M183.445 150.651C183.481 151.703 183.892 152.707 184.388 153.627C185.114 154.957 186.058 156.179 187.158 157.231C187.775 157.824 188.537 158.393 189.396 158.344C190.098 158.308 190.727 157.848 191.102 157.256C191.477 156.663 191.634 155.961 191.682 155.26C191.912 152.489 190.606 149.526 188.392 147.808C186.275 146.163 183.372 148.098 183.445 150.651Z" fill="white"/>
<path d="M191.852 166.63C193.442 166.63 194.731 165.341 194.731 163.751C194.731 162.161 193.442 160.872 191.852 160.872C190.262 160.872 188.973 162.161 188.973 163.751C188.973 165.341 190.262 166.63 191.852 166.63Z" fill="white"/>
<path d="M226.98 67.5715H199.11V95.4783H226.98V67.5715Z" fill="#E36352"/>
<path d="M69.1924 169.485H41.3219V197.392H69.1924V169.485Z" fill="#E36352"/>
<path d="M106.196 26.0439H78.3253V53.9507H106.196V26.0439Z" fill="#6E72FF"/>
</g>
<defs>
<clipPath id="clip0_2176_4372">
<rect width="250" height="250" fill="white"/>
</clipPath>
</defs>
</svg>
