<svg width="169" height="48" viewBox="0 0 169 48" fill="none" xmlns="http://www.w3.org/2000/svg">
<path d="M42.818 18.706C43.7786 19.2168 44.5821 19.9794 45.1424 20.912C45.7027 21.8446 45.9988 22.912 45.9988 24C45.9988 25.088 45.7027 26.1554 45.1424 27.088C44.5821 28.0206 43.7786 28.7832 42.818 29.294L17.194 43.228C13.068 45.474 8 42.554 8 37.936V10.066C8 5.446 13.068 2.528 17.194 4.77L42.818 18.706Z" fill="white"/>
<path d="M71.008 35.5V13.1H75.168V35.5H71.008ZM73.088 10.892C72.4267 10.892 71.8827 10.6787 71.456 10.252C71.0293 9.82533 70.816 9.28133 70.816 8.62C70.816 7.95867 71.0293 7.41467 71.456 6.988C71.8827 6.56133 72.4267 6.348 73.088 6.348C73.728 6.348 74.2613 6.56133 74.688 6.988C75.136 7.41467 75.36 7.95867 75.36 8.62C75.36 9.28133 75.136 9.82533 74.688 10.252C74.2613 10.6787 73.728 10.892 73.088 10.892ZM88.3628 35.724C86.5708 35.724 84.9708 35.3507 83.5628 34.604C82.1761 33.836 81.0881 32.7907 80.2988 31.468C79.5094 30.1453 79.1148 28.6413 79.1148 26.956C79.1148 25.2493 79.5094 23.7453 80.2988 22.444C81.0881 21.1213 82.1761 20.0867 83.5628 19.34C84.9708 18.5933 86.5708 18.22 88.3628 18.22C90.0268 18.22 91.4881 18.5613 92.7468 19.244C94.0268 19.9053 94.9974 20.8867 95.6588 22.188L92.5868 23.98C92.0748 23.1693 91.4454 22.572 90.6988 22.188C89.9734 21.804 89.1841 21.612 88.3308 21.612C87.3494 21.612 86.4641 21.8253 85.6748 22.252C84.8854 22.6787 84.2668 23.2973 83.8188 24.108C83.3708 24.8973 83.1468 25.8467 83.1468 26.956C83.1468 28.0653 83.3708 29.0253 83.8188 29.836C84.2668 30.6253 84.8854 31.2333 85.6748 31.66C86.4641 32.0867 87.3494 32.3 88.3308 32.3C89.1841 32.3 89.9734 32.108 90.6988 31.724C91.4454 31.34 92.0748 30.7427 92.5868 29.932L95.6588 31.724C94.9974 33.004 94.0268 33.996 92.7468 34.7C91.4881 35.3827 90.0268 35.724 88.3628 35.724ZM98.7965 35.5V18.412H102.605V23.116L102.157 21.74C102.669 20.588 103.469 19.7133 104.557 19.116C105.666 18.5187 107.042 18.22 108.685 18.22V22.028C108.514 21.9853 108.354 21.964 108.205 21.964C108.055 21.9427 107.906 21.932 107.757 21.932C106.242 21.932 105.037 22.38 104.141 23.276C103.245 24.1507 102.797 25.4627 102.797 27.212V35.5H98.7965ZM121.067 35.5V32.044L120.843 31.308V25.26C120.843 24.0867 120.491 23.18 119.787 22.54C119.083 21.8787 118.016 21.548 116.587 21.548C115.627 21.548 114.678 21.6973 113.739 21.996C112.822 22.2947 112.043 22.7107 111.403 23.244L109.835 20.332C110.752 19.628 111.84 19.1053 113.099 18.764C114.379 18.4013 115.702 18.22 117.067 18.22C119.542 18.22 121.451 18.8173 122.795 20.012C124.16 21.1853 124.843 23.0093 124.843 25.484V35.5H121.067ZM115.691 35.724C114.411 35.724 113.291 35.5107 112.331 35.084C111.371 34.636 110.624 34.028 110.091 33.26C109.579 32.4707 109.323 31.5853 109.323 30.604C109.323 29.644 109.547 28.78 109.995 28.012C110.464 27.244 111.222 26.636 112.267 26.188C113.312 25.74 114.699 25.516 116.427 25.516H121.387V28.172H116.715C115.35 28.172 114.432 28.396 113.963 28.844C113.494 29.2707 113.259 29.804 113.259 30.444C113.259 31.1693 113.547 31.7453 114.123 32.172C114.699 32.5987 115.499 32.812 116.523 32.812C117.504 32.812 118.379 32.588 119.147 32.14C119.936 31.692 120.502 31.0307 120.843 30.156L121.515 32.556C121.131 33.5587 120.438 34.3373 119.435 34.892C118.454 35.4467 117.206 35.724 115.691 35.724ZM146.212 35.724C144.314 35.724 142.65 35.3507 141.22 34.604C139.812 33.836 138.714 32.7907 137.924 31.468C137.156 30.1453 136.772 28.6413 136.772 26.956C136.772 25.2493 137.146 23.7453 137.892 22.444C138.66 21.1213 139.706 20.0867 141.028 19.34C142.372 18.5933 143.898 18.22 145.604 18.22C147.268 18.22 148.751 18.5827 150.052 19.308C151.354 20.0333 152.378 21.0573 153.124 22.38C153.871 23.7027 154.244 25.26 154.244 27.052C154.244 27.2227 154.234 27.4147 154.212 27.628C154.212 27.8413 154.202 28.044 154.18 28.236H139.94V25.58H152.068L150.5 26.412C150.522 25.4307 150.319 24.5667 149.892 23.82C149.466 23.0733 148.879 22.4867 148.132 22.06C147.407 21.6333 146.564 21.42 145.604 21.42C144.623 21.42 143.759 21.6333 143.012 22.06C142.287 22.4867 141.711 23.084 141.284 23.852C140.879 24.5987 140.676 25.484 140.676 26.508V27.148C140.676 28.172 140.911 29.0787 141.38 29.868C141.85 30.6573 142.511 31.2653 143.364 31.692C144.218 32.1187 145.199 32.332 146.308 32.332C147.268 32.332 148.132 32.1827 148.9 31.884C149.668 31.5853 150.351 31.116 150.948 30.476L153.092 32.94C152.324 33.836 151.354 34.5293 150.18 35.02C149.028 35.4893 147.706 35.724 146.212 35.724ZM164.199 35.724C162.321 35.724 160.871 35.244 159.847 34.284C158.823 33.3027 158.311 31.8627 158.311 29.964V14.636H162.311V29.868C162.311 30.6787 162.513 31.308 162.919 31.756C163.345 32.204 163.932 32.428 164.679 32.428C165.575 32.428 166.321 32.1933 166.919 31.724L168.039 34.572C167.569 34.956 166.993 35.244 166.311 35.436C165.628 35.628 164.924 35.724 164.199 35.724ZM155.495 21.74V18.54H166.887V21.74H155.495Z" fill="white"/>
</svg>
