<svg width="261" height="254" viewBox="0 0 261 254" fill="none" xmlns="http://www.w3.org/2000/svg">
<g clip-path="url(#clip0_2677_937)">
<path d="M189.08 18.8823C198.316 25.5038 201.016 27.0428 210.111 34.1866C190.054 53.4061 171.012 67.1454 148.094 78.9531C145.604 75.5757 142.827 72.4803 139.817 69.6771L140.035 69.4903C143.478 66.5453 147.325 63.2562 150.269 58.9848C155.531 56.8681 159.691 54.1272 162.942 50.6409C173.509 39.3105 171.154 23.1242 159.808 17.1599C151.588 12.8383 138.888 14.9222 130.491 19.28C114.434 27.6101 112.231 43.3675 120.642 53.1882C123.398 56.4081 127.211 58.677 131.347 59.661C131.251 60.593 131.047 61.5822 130.748 62.599C120.087 55.6801 107.491 51.8635 94.2204 51.8635C90.6986 51.8635 87.2395 52.1385 83.8639 52.6625C91.2067 37.5414 83.3958 25.0524 82.8947 22.8182C82.8947 22.8182 77.8139 23.9975 77.7617 24.0096C76.0304 19.6362 73.3439 15.7159 69.9074 12.5253L71.5412 9.61147C69.3854 8.34908 61.839 0 48.1922 0C37.559 0 31.3594 5.06167 28.5058 6.32233L29.8613 9.94176C18.2589 18.1836 13.5 33.4447 18.7966 46.9523C24.1506 60.6069 37.8583 68.4735 52.0845 66.7667C37.0196 78.9565 27.38 97.5258 27.38 118.295C27.38 137.286 35.3301 154.959 49.3667 167.554L47.9016 169.926C47.8546 169.926 47.8094 169.925 47.7624 169.925C44.3972 169.925 41.2565 171.575 39.3634 174.34L1.13385 230.137C-2.08167 234.829 -0.780147 241.217 4.01529 244.299L16.599 252.383C21.21 255.345 27.3417 254.126 30.4598 249.659L69.8291 193.26C72.0476 190.082 72.2494 185.905 70.3163 182.523L71.5151 180.8C90.1105 187.494 111.613 185.777 129.464 174.727C129.022 179.374 128.279 184.589 127.249 190.263L126.184 196.122L132.093 197.101C140.738 198.534 148.665 198.469 157.671 198.557L157.631 199.323C161.438 199.254 174.333 200.608 188.553 197.467L192.132 196.677L191.817 199.062C235.233 195.837 220.089 196.62 231.131 195.639C231.282 192.067 230.226 171.223 235.809 142.78L237.081 136.302L238.922 124.999C255.746 107.889 245.089 75.2731 217.252 76.2415C224.172 69.7393 230.746 62.5212 236.998 54.5543C240.158 56.9702 242.026 58.8101 250.843 67.0364C253.596 49.9388 256.251 70.4501 260.37 5.11009C251.05 6.73563 253.634 3.91341 189.08 18.8823Z" fill="white"/>
<path d="M149.218 108.562C185.532 97.9286 213.212 76.7775 235.714 46.5199C241.095 49.8852 244.516 53.0774 247.937 56.2697C252.513 41.1971 254.243 26.4773 254.391 11.7437C236.834 13.843 220.014 17.7426 203.195 21.6422C208.944 25.7009 213.977 29.718 219.01 33.7369C194.745 57.8227 171.819 74.5588 140.379 89.2942C142.801 94.9594 145.101 101.522 149.218 108.562Z" fill="#5ED4BE"/>
<path d="M225.228 190.377C216.375 191.349 207.501 192.131 198.613 192.722C200.844 175.815 203.588 159.267 205.297 143.064C213.144 141.782 221.07 140.976 230.006 141.656C226.963 157.159 225.261 172.922 225.228 190.377Z" fill="#FF3D81"/>
<path d="M187.268 191.733C188.692 181.786 190.117 171.837 191.54 161.89C183.997 162.055 176.038 162.89 167.093 165.197C165.578 174.492 164.34 183.832 163.841 193.623C171.669 193.848 179.518 193.445 187.268 191.733Z" fill="#FCC836"/>
<path d="M156.606 174.118C155.644 180.245 154.683 186.372 153.887 192.645C147.111 192.577 140.335 192.511 133.062 191.306C134.118 185.499 134.975 179.657 135.451 174.15C142.31 174.208 149.171 174.074 156.606 174.118Z" fill="#5ED4BE"/>
<path d="M136.761 54.3121C132.405 54.5663 127.971 52.6865 125.142 49.3818C119.208 42.4543 120.573 31.0512 133.224 24.4868C139.857 21.0455 150.673 19.0015 157.043 22.3511C164.774 26.4167 166.686 37.9823 158.605 46.6461C155.399 50.0857 151.172 52.4652 146.331 54.1893C143.821 58.4797 139.963 61.8 136.179 65.0372C137.355 61.4731 137.752 57.6566 136.761 54.3121Z" fill="#FF3D81"/>
<path d="M141.769 48.1766C138.301 46.0496 134.769 43.8689 132.168 40.7527C131.373 39.8016 130.644 38.681 130.658 37.4446C130.67 36.2513 131.385 35.1584 132.286 34.3681C133.61 33.206 135.408 32.5645 137.167 32.7132C138.928 32.8619 140.619 33.8286 141.741 36.1078C143.057 34.2886 144.813 32.6233 147.015 32.1512C149.218 31.6791 151.867 32.8048 152.441 34.9717C152.743 36.1165 152.446 37.3339 152.013 38.4354C150.342 42.667 146.761 45.8611 141.769 48.1766Z" fill="white"/>
<path d="M59.7194 162.02L43.6035 188.105L55.6896 193.201L71.4383 170.589L59.7194 162.02Z" fill="#5ED4BE"/>
<path d="M94.2201 57.738C60.5702 57.738 33.2905 84.85 33.2905 118.293C33.2905 151.736 60.5702 178.858 94.2201 178.858C127.87 178.858 155.16 151.736 155.16 118.293C155.16 84.85 127.87 57.738 94.2201 57.738ZM94.2201 170.589C65.1621 170.589 41.6129 147.174 41.6129 118.295C41.6129 89.4154 65.1638 66.011 94.2201 66.011C123.278 66.011 146.838 89.4171 146.838 118.295C146.838 147.172 123.278 170.589 94.2201 170.589Z" fill="#776CFF"/>
<path d="M97.5489 82.3582L75.5745 124.19H92.4211L82.8999 158.406L112.875 114.345L92.4211 113.065L97.5489 82.3582Z" fill="#FCC836"/>
<path d="M7.22368 239.365L19.8074 247.45C21.7318 248.686 24.2966 248.183 25.6033 246.31L64.9725 189.91C66.4098 187.853 65.7364 185.01 63.5266 183.804L49.8015 176.318C47.8823 175.272 45.4793 175.844 44.2474 177.643L6.01786 233.444C4.67632 235.403 5.2192 238.078 7.22368 239.365Z" fill="#4C3CE3"/>
<path d="M72.291 26.2336C77.4535 39.4005 70.8972 54.2414 57.6471 59.3722C44.3988 64.5031 29.4661 57.9871 24.3035 44.8184C19.5446 32.6822 24.735 19.1487 35.9284 13.0805C49.5509 5.65664 66.6481 11.8475 72.291 26.2336Z" fill="#FF3D81"/>
<path d="M63.8936 11.1834C59.2008 19.548 54.0522 27.6429 48.4946 35.4507C43.4991 27.0411 39.2552 18.1905 35.8257 9.03039C44.9085 4.0794 55.8844 5.07375 63.8936 11.1834Z" fill="#FCC836"/>
<path d="M73.5593 57.0912C65.8041 51.407 58.3778 45.306 51.2891 38.8367C60.3144 34.9769 69.6878 31.9126 79.263 29.6921C83.0545 39.2725 80.6724 49.9682 73.5593 57.0912Z" fill="#4C3CE3"/>
<path d="M193.243 127.043L197.124 126.796C197.745 124.295 197.802 121.506 197.205 118.836L193.301 118.409C193.143 117.907 192.852 117.164 192.554 116.546L195.14 113.619C193.765 111.315 191.869 109.337 189.617 107.858L186.565 110.288C186.021 109.994 185.184 109.617 184.483 109.373L184.227 105.486C181.617 104.823 178.868 104.758 176.223 105.294L175.793 109.157C175.181 109.337 174.318 109.662 173.668 109.973L170.723 107.403C168.351 108.801 166.381 110.713 164.949 112.852L167.394 115.886C167.077 116.458 166.695 117.299 166.451 117.995L162.539 118.25C161.857 120.902 161.824 123.638 162.334 126.161L166.221 126.588C166.465 127.418 166.782 128.216 167.166 128.973L164.601 131.88C165.983 134.151 167.954 136.136 170.168 137.543L173.233 135.102C173.799 135.396 174.638 135.757 175.37 135.997L175.626 139.861C178.224 140.497 181.029 140.513 183.592 139.954L184.021 136.074C184.686 135.868 185.565 135.513 186.177 135.205L189.097 137.758C190.277 137.049 191.387 136.182 192.405 135.171C193.334 134.247 194.14 133.244 194.818 132.186L192.361 129.139C192.614 128.644 192.995 127.792 193.243 127.043ZM177.396 132.556C170.707 130.955 167.324 123.192 171.125 117.2C176.67 108.457 190.44 112.603 190.063 123.012C189.824 129.487 183.651 134.064 177.396 132.556Z" fill="#FCC836"/>
<path d="M235.599 110.608L240.603 110.288C241.403 107.063 241.478 103.466 240.707 100.021L235.67 99.4694C235.465 98.8244 235.09 97.8629 234.706 97.0657L238.04 93.2889C236.267 90.3179 233.822 87.7672 230.916 85.8598L226.98 88.9933C226.279 88.6146 225.199 88.1269 224.294 87.8122L223.965 82.7989C220.598 81.9446 217.054 81.8582 213.643 82.5516L213.088 87.5338C212.3 87.7655 211.169 88.1926 210.349 88.5869L206.549 85.2736C204.931 86.2281 203.403 87.3954 202.011 88.7789C200.91 89.8735 199.937 91.0546 199.104 92.3014L202.257 96.2131C201.85 96.9481 201.355 98.0341 201.04 98.9333L195.996 99.2602C195.117 102.681 195.072 106.212 195.732 109.463L200.745 110.015C201.058 111.085 201.468 112.114 201.964 113.091L198.657 116.84C200.438 119.77 202.981 122.329 205.836 124.145L209.789 120.994C210.518 121.374 211.599 121.84 212.545 122.147L212.874 127.13C216.225 127.951 219.843 127.97 223.149 127.249L223.704 122.243C224.562 121.976 225.694 121.52 226.484 121.122L230.25 124.413C233.117 122.69 235.726 120.197 237.629 117.226L234.459 113.297C234.894 112.472 235.35 111.362 235.599 110.608ZM208.832 114.156C196.871 102.072 215.03 83.022 227.664 95.658C229.745 97.7418 231.043 100.45 231.4 103.241C233.018 115.671 217.711 123.116 208.832 114.156Z" fill="#776CFF"/>
</g>
<defs>
<clipPath id="clip0_2677_937">
<rect width="261" height="254" fill="white"/>
</clipPath>
</defs>
</svg>
