<svg width="286" height="289" viewBox="0 0 286 289" fill="none" xmlns="http://www.w3.org/2000/svg">
<g clip-path="url(#clip0_2677_868)">
<path d="M122.123 200.88L106.179 200.028C106.087 200.023 106 199.98 105.939 199.911L98.3006 190.958C96.1877 188.482 93.3924 186.756 90.3125 185.952C92.1562 185.523 93.8326 184.557 95.1534 183.137C96.9029 181.255 97.818 178.802 97.7257 176.228C97.3874 166.655 97.3009 156.956 97.4681 147.255L101.948 150.222C103.526 151.268 105.358 151.821 107.248 151.821C110.485 151.821 113.483 150.207 115.269 147.498C118.191 143.067 116.97 137.078 112.55 134.152L95.7148 122.998C106.014 123.553 117.057 123.823 129.195 123.823C129.197 123.823 129.199 123.823 129.201 123.823C144.374 123.823 159.621 123.416 174.367 123.022C190.868 122.58 207.932 122.126 224.627 117.698C239.852 113.662 249.73 105.992 253.192 95.5164C255.897 87.3377 254.288 77.5021 248.886 69.2097C241.646 58.0967 228.486 51.1935 214.542 51.1935C212.535 51.1935 210.564 51.336 208.638 51.6193C207.123 32.8882 200.113 18.1935 188.428 9.63333C181.965 4.89566 173.875 1.85731 164.385 0.603047C161.361 0.2023 158.272 0 155.201 0C140.696 0 126.5 4.49299 115.228 12.6524C103.451 21.176 94.9131 33.7398 91.3045 47.4307C87.4922 46.4885 83.7471 46.0127 80.1077 46.0127C71.7275 46.0127 64.2931 48.604 58.6101 53.5055C54.2191 57.2933 51.2488 61.9866 48.9937 66.7648C46.6386 66.0076 44.1951 65.6146 41.7458 65.6146C38.4352 65.6146 35.3072 66.3236 32.4485 67.7204C24.8718 71.4215 19.7367 79.7833 19.6714 88.5303C19.6118 96.5221 23.5183 104.354 30.1222 109.479C37.0433 114.851 45.3005 116.261 52.5849 117.504C56.3646 118.149 59.9347 118.76 63.1011 119.837L63.8182 120.081L64.5699 120.18C70.2048 120.923 75.9936 121.546 82.011 122.054C81.988 122.072 81.9649 122.087 81.9438 122.106L64.0182 137.104C62.0476 138.753 60.8345 141.072 60.6038 143.635C60.3731 146.197 61.1536 148.696 62.7993 150.673C64.6315 152.871 67.3211 154.131 70.1798 154.131C72.4292 154.131 74.617 153.336 76.3396 151.893L78.2006 150.336C78.1006 159.235 78.2045 168.123 78.5159 176.91C78.6543 180.812 81.0536 184.078 84.4334 185.474L16.1878 186.896C7.65562 187.075 0.896037 193.913 0.797988 202.466L0.00398711 271.903C-0.0440759 276.113 1.54777 280.087 4.48346 283.097C7.42107 286.106 11.3507 287.788 15.5514 287.834L123.709 289C127.971 289 132.106 287.231 135.055 284.145C138.004 281.06 139.592 276.843 139.41 272.573L136.991 215.935C136.641 207.785 130.251 201.314 122.123 200.88Z" fill="white"/>
<path d="M283.568 215.937C283.22 207.787 276.83 201.314 268.701 200.88L252.758 200.028C252.665 200.023 252.579 199.98 252.517 199.911L244.879 190.958C241.89 187.451 237.535 185.442 232.931 185.442L232.604 185.446L203.395 186.054L220.984 174.402C225.4 171.473 226.621 165.487 223.699 161.052C221.913 158.347 218.916 156.732 215.678 156.732C213.786 156.732 211.952 157.285 210.378 158.33L205.896 161.299C205.729 151.596 205.815 141.897 206.154 132.324C206.34 127.016 202.184 122.544 196.864 122.355L196.555 122.351C191.349 122.351 187.127 126.432 186.942 131.641C186.633 140.425 186.527 149.315 186.627 158.214L184.77 156.659C183.043 155.214 180.855 154.419 178.606 154.419C175.749 154.419 173.061 155.679 171.224 157.881C167.828 161.958 168.376 168.044 172.442 171.448L190.226 186.328L162.761 186.9C154.228 187.079 147.469 193.917 147.371 202.468L146.575 271.905C146.527 276.113 148.119 280.089 151.054 283.097C153.99 286.106 157.922 287.788 162.122 287.834L270.281 289C274.542 289 278.679 287.231 281.628 284.145C284.577 281.06 286.163 276.843 285.983 272.573L283.568 215.937Z" fill="white"/>
<path d="M8.4859 202.554L7.68997 271.991C7.63999 276.436 11.1947 280.079 15.63 280.128L123.616 281.293C128.219 281.343 131.919 277.513 131.723 272.905L129.305 216.266C129.128 212.126 125.84 208.797 121.711 208.577L105.767 207.725C103.572 207.608 101.521 206.594 100.094 204.92L92.4539 195.965C90.8909 194.133 88.5897 193.1 86.1846 193.15L16.3432 194.605C12.0137 194.693 8.53588 198.213 8.4859 202.554Z" fill="#776CFF"/>
<path d="M20.5439 237.718C20.1805 244.735 19.8172 251.75 19.4538 258.767C19.3807 260.183 19.3404 261.722 20.1594 262.878C21.261 264.431 23.4276 264.674 25.3271 264.762C36.5585 265.279 47.8148 265.265 59.0462 264.72C60.4592 264.651 62.0299 264.502 62.9739 263.448C63.8486 262.472 63.9006 261.032 63.9063 259.72C63.9371 252.711 63.9698 245.7 64.0005 238.691C64.0044 237.756 64.0025 236.791 63.6353 235.93C62.6548 233.635 59.696 233.125 57.214 232.938C47.3669 232.192 37.5178 231.446 27.6706 230.701C26.0134 230.576 24.2582 230.47 22.7817 231.235C21.3052 231.999 20.738 233.976 20.5439 237.718Z" fill="#FF3D81"/>
<path d="M155.063 202.554L154.269 271.989C154.219 276.434 157.773 280.077 162.209 280.126L270.195 281.291C274.797 281.341 278.498 277.511 278.302 272.903L275.884 216.264C275.707 212.124 272.419 208.795 268.29 208.575L252.346 207.723C250.151 207.606 248.099 206.592 246.671 204.918L239.031 195.963C237.468 194.131 235.166 193.098 232.761 193.148L162.92 194.603C158.592 194.693 155.113 198.213 155.063 202.554Z" fill="#FF3D81"/>
<path d="M37.493 242.508C37.1642 246.985 37.0546 251.48 37.1623 255.969C37.17 256.256 37.1911 256.576 37.4007 256.771C37.6698 257.019 38.0966 256.934 38.4427 256.819C42.4281 255.493 45.433 252.249 48.1937 249.077C48.6109 248.6 49.0416 248.087 49.1627 247.465C49.3895 246.303 48.4859 245.249 47.6093 244.453C45.8079 242.818 43.8315 241.39 41.859 239.966C40.9631 239.321 39.9211 238.639 38.8426 238.872C37.764 239.105 37.616 240.824 37.493 242.508Z" fill="white"/>
<path d="M74.3573 239.772C73.994 246.789 73.6306 253.804 73.2673 260.821C73.1942 262.237 73.1538 263.776 73.9728 264.932C75.0744 266.485 77.2411 266.728 79.1406 266.816C90.3719 267.333 101.628 267.319 112.86 266.774C114.273 266.705 115.843 266.556 116.787 265.502C117.662 264.526 117.714 263.086 117.72 261.774C117.751 254.765 117.783 247.754 117.814 240.745C117.818 239.81 117.816 238.843 117.449 237.984C116.468 235.689 113.509 235.179 111.028 234.992C101.18 234.246 91.3313 233.5 81.4841 232.755C79.8269 232.63 78.0717 232.524 76.5952 233.288C75.1187 234.053 74.5515 236.03 74.3573 239.772Z" fill="#5ED4BE"/>
<path d="M77.8563 259.815C77.4295 259.815 77.0085 259.626 76.724 259.266C76.2299 258.64 76.3375 257.73 76.9624 257.235L91.5639 245.679C91.9042 245.411 92.3464 245.311 92.7674 245.401C93.1904 245.494 93.5479 245.773 93.744 246.16C94.4727 247.604 95.3955 248.921 96.4952 250.093C100.498 247.735 104.397 245.128 108.098 242.334C108.734 241.854 109.638 241.982 110.116 242.619C110.595 243.257 110.468 244.163 109.832 244.642C105.742 247.727 101.421 250.59 96.9816 253.15C96.4317 253.468 95.7396 253.387 95.2763 252.954C94.019 251.775 92.9308 250.447 92.0272 248.993L78.7484 259.501C78.485 259.713 78.1697 259.815 77.8563 259.815Z" fill="white"/>
<path d="M168.032 237.718C167.669 244.735 167.305 251.75 166.942 258.767C166.869 260.183 166.829 261.722 167.648 262.878C168.749 264.431 170.916 264.674 172.815 264.762C184.047 265.279 195.303 265.265 206.534 264.72C207.947 264.651 209.518 264.502 210.462 263.448C211.337 262.472 211.389 261.032 211.394 259.72C211.425 252.711 211.458 245.7 211.489 238.691C211.493 237.756 211.491 236.791 211.123 235.93C210.143 233.635 207.184 233.125 204.702 232.938C194.855 232.192 185.006 231.446 175.159 230.701C173.502 230.576 171.746 230.47 170.27 231.235C168.793 231.999 168.226 233.976 168.032 237.718Z" fill="#FCC836"/>
<path d="M221.845 239.772C221.482 246.789 221.119 253.804 220.755 260.821C220.682 262.237 220.642 263.776 221.461 264.932C222.562 266.485 224.729 266.728 226.629 266.816C237.86 267.333 249.116 267.319 260.348 266.774C261.761 266.705 263.331 266.556 264.275 265.502C265.15 264.526 265.202 263.086 265.208 261.774C265.239 254.765 265.271 247.754 265.302 240.745C265.306 239.81 265.304 238.843 264.937 237.984C263.956 235.689 260.998 235.179 258.516 234.992C248.668 234.246 238.819 233.5 228.972 232.755C227.315 232.63 225.56 232.524 224.083 233.288C222.607 234.051 222.04 236.03 221.845 239.772Z" fill="#776CFF"/>
<path d="M97.2891 57.563C98.6983 42.2575 107.294 27.9 119.729 18.9006C132.164 9.9011 148.171 6.2308 163.376 8.24417C170.681 9.21136 177.943 11.4983 183.891 15.8564C197.47 25.8038 201.644 44.3114 201.232 61.8344C215.29 55.1103 233.932 60.3528 242.447 73.4252C246.204 79.1917 248.055 86.5574 245.894 93.0946C242.735 102.645 232.367 107.677 222.661 110.252C206.909 114.429 190.451 114.887 174.163 115.321C137.822 116.29 101.284 117.251 65.5714 112.54C55.3589 109.067 43.3547 110.005 34.8283 103.387C30.3104 99.8803 27.317 94.3161 27.3593 88.5881C27.4016 82.8601 30.6776 77.1572 35.8146 74.6467C40.9516 72.1382 47.7323 73.2249 52.8827 77.6099C55.3205 70.8917 58.2196 64.0096 63.6238 59.3451C71.7676 52.3244 84.3582 52.0431 97.2891 57.563Z" fill="#776CFF"/>
<path d="M172.642 260.179C172.408 260.179 172.169 260.121 171.95 260.002C171.252 259.618 170.997 258.74 171.379 258.04C172.792 255.46 174.392 252.536 177.039 250.544C179.617 248.602 183.829 247.567 186.982 249.877C187.996 250.619 188.751 251.594 189.482 252.538C190.595 253.975 191.345 254.854 192.352 254.944C193.252 255.023 194.234 254.397 195.276 253.734C195.461 253.617 195.643 253.501 195.826 253.387C197.977 252.06 200.032 251.455 201.932 251.594C204.327 251.765 206.467 253.253 207.307 255.272C207.623 255.659 207.728 256.198 207.54 256.699C207.257 257.445 206.423 257.819 205.681 257.537C205.679 257.537 205.59 257.505 205.59 257.503C205.169 257.347 204.848 257.002 204.716 256.572C204.374 255.457 203.116 254.572 201.728 254.472C200.438 254.385 198.965 254.842 197.339 255.844C197.168 255.95 196.997 256.06 196.824 256.169C195.486 257.021 193.965 257.984 192.098 257.817C189.766 257.609 188.405 255.854 187.205 254.304C186.569 253.484 185.969 252.707 185.283 252.204C183.401 250.827 180.584 251.484 178.773 252.848C176.624 254.466 175.182 257.098 173.911 259.422C173.646 259.907 173.152 260.179 172.642 260.179Z" fill="white"/>
<path d="M198.152 241.862C196.897 240.627 195.491 239.546 193.976 238.649C193.486 238.358 192.867 238.385 192.402 238.718L188.876 241.25C188.228 241.714 188.08 242.617 188.543 243.265C189.007 243.914 189.908 244.061 190.554 243.598L192.006 242.556L191.508 247.315C191.425 248.108 191.998 248.819 192.792 248.902C192.842 248.908 192.894 248.91 192.944 248.91C193.673 248.91 194.299 248.359 194.376 247.615L194.88 242.804C195.313 243.161 195.732 243.533 196.13 243.926C196.41 244.201 196.776 244.338 197.139 244.338C197.512 244.338 197.885 244.193 198.17 243.904C198.731 243.336 198.721 242.421 198.152 241.862Z" fill="white"/>
<path d="M245.294 239.04C244.566 243.209 243.835 247.38 243.107 251.549C246.888 249.906 250.67 248.263 254.451 246.621C254.244 244.664 253.015 242.929 251.483 241.696C249.951 240.463 248.124 239.666 245.294 239.04Z" fill="#FCC836"/>
<path d="M240.782 238.982C240.194 244.043 239.604 249.104 239.015 254.168C243.01 254.499 247.036 254.468 251.027 254.079C251.095 256.025 250.156 257.929 248.747 259.268C247.338 260.607 245.492 261.423 243.595 261.849C240.542 262.535 237.231 262.231 234.469 260.763C231.704 259.293 229.549 256.615 228.949 253.538C228.293 250.181 229.524 246.619 231.76 244.035C233.996 241.452 237.139 239.777 240.782 238.982Z" fill="#5ED4BE"/>
<path d="M108.046 140.982L88.8974 128.297C88.3668 127.944 87.667 127.983 87.1786 128.393L69.2511 143.392C68.6398 143.903 68.5571 144.814 69.0685 145.427C69.353 145.77 69.7625 145.945 70.1759 145.945C70.5008 145.945 70.8295 145.835 71.0987 145.61L86.8537 132.427C86.2231 147.101 86.1578 161.957 86.6769 176.621C86.7038 177.402 87.344 178.014 88.1168 178.014C88.1341 178.014 88.1514 178.014 88.1687 178.012C88.9647 177.983 89.5876 177.315 89.5587 176.517C89.0396 161.851 89.1069 146.995 89.7433 132.319L106.454 143.39C107.119 143.829 108.013 143.646 108.451 142.982C108.894 142.319 108.711 141.421 108.046 140.982Z" fill="#5ED4BE"/>
<path d="M216.883 165.566C216.443 164.9 215.549 164.717 214.886 165.158L198.175 176.228C197.539 161.555 197.472 146.697 197.989 132.031C198.018 131.233 197.395 130.565 196.599 130.536C196.582 130.536 196.564 130.534 196.547 130.534C195.774 130.534 195.134 131.146 195.107 131.929C194.59 146.592 194.653 161.447 195.284 176.122L179.529 162.94C178.917 162.43 178.008 162.511 177.499 163.123C176.989 163.736 177.07 164.647 177.681 165.158L195.609 180.157C195.876 180.38 196.203 180.492 196.533 180.492C196.81 180.492 197.087 180.413 197.329 180.253L216.478 167.566C217.139 167.129 217.322 166.233 216.883 165.566Z" fill="#5ED4BE"/>
<path d="M168.138 47.0645C168.47 46.3632 168.403 45.6503 168.363 45.2284L167.44 35.281C167.367 34.4872 166.669 33.9034 165.871 33.9767C165.079 34.0499 164.495 34.755 164.57 35.5488L165.269 43.0821C159.827 39.1921 150.856 37.3888 145.175 38.4735C134.797 40.4541 125.75 48.1588 122.124 58.1024C118.829 67.1384 120.425 79.841 129.87 85.5901C130.105 85.7327 130.362 85.8001 130.618 85.8001C131.104 85.8001 131.581 85.5535 131.852 85.1046C132.265 84.4226 132.048 83.5344 131.368 83.1201C123.533 78.3516 121.893 67.1596 124.835 59.0946C128.12 50.0874 136.316 43.1071 145.717 41.3134C151.052 40.2923 160.202 42.3673 164.629 46.2495L158.935 49.0143C158.218 49.363 157.92 50.2262 158.268 50.9448C158.516 51.4592 159.031 51.7598 159.565 51.7598C159.777 51.7598 159.99 51.7136 160.194 51.6134L166.406 48.5924C166.846 48.3785 167.649 47.9816 168.088 47.1512C168.099 47.13 168.113 47.1088 168.124 47.0857C168.128 47.078 168.134 47.0722 168.138 47.0645Z" fill="white"/>
<path d="M174.176 51.1029C173.498 50.6906 172.61 50.9064 172.196 51.5884C171.783 52.2705 172 53.1587 172.681 53.5729C180.515 58.3414 182.155 69.5334 179.213 77.6004C175.93 86.6075 167.732 93.5878 158.331 95.3816C152.994 96.4008 143.845 94.3277 139.419 90.4454L145.108 87.6787C145.825 87.33 146.123 86.465 145.775 85.7482C145.429 85.0296 144.564 84.731 143.849 85.0797L137.637 88.1007C137.197 88.3146 136.393 88.7114 135.955 89.5418C135.943 89.563 135.93 89.5842 135.918 89.6073C135.914 89.6151 135.909 89.6228 135.905 89.6305C135.572 90.3318 135.64 91.0427 135.678 91.4666L136.601 101.414C136.67 102.163 137.299 102.726 138.035 102.726C138.079 102.726 138.125 102.724 138.17 102.72C138.962 102.647 139.546 101.942 139.471 101.148L138.771 93.6129C143.164 96.7514 149.853 98.5336 155.257 98.5336C156.549 98.5336 157.77 98.4315 158.865 98.2234C169.243 96.2428 178.291 88.538 181.917 78.5945C185.216 69.5565 183.622 56.8521 174.176 51.1029Z" fill="white"/>
</g>
<defs>
<clipPath id="clip0_2677_868">
<rect width="286" height="289" fill="white"/>
</clipPath>
</defs>
</svg>
