<svg width="1920" height="955" viewBox="0 0 1920 955" fill="none" xmlns="http://www.w3.org/2000/svg">
<g clip-path="url(#clip0_2693_8)">
<path d="M2114 780.33C2114 876.805 2034.16 897.594 1939.25 897.594C1783.25 897.594 1630.21 955 1474.21 955C1153.33 955 1022.82 822.743 701.996 822.743C551.369 822.743 297.438 727.439 146.812 727.439C52.3345 727.439 -16.2616 722.311 -16.8648 627.062C-16.8648 626.226 -16.9744 625.39 -17.1389 624.554L-112 174.67C-112 78.1946 -35.0693 0 59.8466 0C219.356 0 219.959 45.646 379.468 45.646C721.571 45.646 1116.04 178.348 1458.14 178.348C1583.98 178.348 1760.82 171.047 1886.66 171.047C1981.58 171.047 2045.29 356.084 2045.29 452.503L2114 780.33Z" fill="url(#paint0_linear_2693_8)" fill-opacity="0.75"/>
</g>
<defs>
<linearGradient id="paint0_linear_2693_8" x1="1606.28" y1="-149.465" x2="370.12" y2="1066.71" gradientUnits="userSpaceOnUse">
<stop offset="0.14" stop-color="#3EFA34"/>
<stop offset="0.65" stop-color="#DD432F"/>
</linearGradient>
<clipPath id="clip0_2693_8">
<rect width="2226" height="955" fill="white" transform="translate(-112)"/>
</clipPath>
</defs>
</svg>
