<svg width="282" height="250" viewBox="0 0 282 250" fill="none" xmlns="http://www.w3.org/2000/svg">
<g clip-path="url(#clip0_2677_910)">
<path d="M257.032 116.844L273.303 149.735L238.476 139.898C210.427 168.646 213.495 165.236 212.916 166.719C212.854 172.952 212.499 179.236 211.861 185.418C211.222 191.57 209.573 194.883 204.016 198.707C187.243 210.276 172.911 212.143 169.759 213.181L169.64 212.95C168.104 214.168 163.587 216.599 158.529 217.998C152.124 219.801 147.624 216.804 144.988 210.682C141.953 203.598 139.043 196.344 136.347 189.124C134.095 183.049 135.887 178.2 142.1 175.163L148.479 172.038C151.092 170.754 153.743 170.122 156.561 170.718C164.049 155.787 165.318 152.478 168.123 148.274L141.891 158.365C133.554 161.582 124.18 157.237 121.238 148.793L113.438 126.439L108.762 123.805L131.17 209.994C133.499 218.946 128.147 228.27 119.241 230.769L53.1009 249.355C43.7554 251.97 34.0885 246.388 31.8268 236.821L0.459045 104.108C-1.69543 94.9866 3.96148 85.7642 13.0701 83.553L76.8754 68.0468C80.8873 67.056 85.2564 67.558 89.0352 69.6093L93.7559 66.0613L87.2079 47.2158C84.3108 38.8752 88.7664 29.7956 97.1343 26.9828L157.826 6.61997C166.42 3.71502 175.72 8.68821 178.142 17.3993L182.129 31.7435C182.561 -9.23971 232.475 -5.75002 243.853 15.284C253.043 32.2587 242.062 60.5598 217.165 63.743L242.787 91.1115L282 86.4128L257.032 116.844Z" fill="white"/>
<path d="M14.6772 90.1829L78.4825 74.6767C83.9364 73.3512 89.4467 76.6472 90.8604 82.081L124.565 211.715C125.975 217.136 122.787 222.686 117.397 224.201L51.2545 242.787C45.6258 244.369 39.8147 240.945 38.4686 235.253L7.1008 102.54C5.79984 97.0382 9.18572 91.5179 14.6772 90.1829Z" fill="#FF3D81"/>
<path d="M99.3054 33.4566L159.997 13.0882C164.899 11.443 170.178 14.2445 171.563 19.2271L199.618 120.105C200.865 124.585 198.504 129.278 194.163 130.948L139.442 151.997C134.685 153.827 129.359 151.358 127.68 146.544L119.034 121.754L110.736 117.085C108.484 115.818 107.807 112.889 109.275 110.762L114.088 103.79L93.6522 44.9749C92.0035 40.233 94.5452 35.0548 99.3054 33.4566Z" fill="#776CFF"/>
<path d="M220.65 77.4482L218.138 103.177L192.533 114.951L217.772 125.016L219.24 150.561L236.32 132.197L260.376 138.992L248.963 115.925L265.958 95.2088L240.166 98.298L220.65 77.4482Z" fill="#FCC836"/>
<path d="M173.306 205.247C182.879 202.833 192.014 198.694 200.143 193.091C203.92 190.487 204.625 189.034 205.072 184.719C205.738 178.275 206.084 171.798 206.104 165.318C208.926 159.178 207.796 154.263 201.294 156.666C194.146 159.307 187.269 162.618 180.422 165.961C180.668 161.144 181.236 156.316 179.954 151.777C179.602 150.536 178.895 149.148 177.617 148.981C174.368 148.554 171.262 156.624 162.626 173.855C164.573 184.301 167.683 194.53 173.306 205.247Z" fill="#776CFF"/>
<path d="M156.311 177.909C163.135 204.908 168.115 206.031 164.934 207.917C162.362 209.442 159.588 210.624 156.706 211.425C154.485 212.042 152.934 211.895 151.261 207.994C148.253 200.977 145.412 193.889 142.743 186.736C141.735 184.034 142.019 182.801 145.1 181.291C152.004 177.91 154.151 176.367 156.311 177.909Z" fill="#4C3CE3"/>
<path d="M131.271 125.394C130.705 125.394 130.173 125.052 129.955 124.493C129.673 123.767 130.034 122.95 130.76 122.669L182.025 102.809C182.753 102.525 183.569 102.888 183.849 103.613C184.131 104.339 183.77 105.157 183.044 105.437C128.109 126.719 131.679 125.394 131.271 125.394Z" fill="#5ED4BE"/>
<path d="M135.24 139.246C134.678 139.246 134.147 138.907 133.927 138.354C133.64 137.63 133.995 136.811 134.719 136.523L185.116 116.557C185.842 116.267 186.66 116.625 186.947 117.348C187.235 118.072 186.88 118.892 186.156 119.18C132.273 140.526 135.655 139.246 135.24 139.246Z" fill="#5ED4BE"/>
<path d="M191.369 43.6625C194.809 50.9502 202.273 56.0926 210.276 57.0271C232.304 59.5992 246.284 34.141 237.846 18.5277C224.814 -5.5843 175.06 9.10963 191.369 43.6625Z" fill="#FF3D81"/>
<path d="M216.294 44.187C224.07 39.6801 235.008 28.9685 229.291 22.0323C227.467 19.8193 224.158 19.1781 221.438 20.0825C218.717 20.9869 216.58 23.2131 214.675 25.5446C213.203 22.555 210.192 20.3796 206.892 19.9208C204.036 19.5241 202.19 20.4605 200.532 22.8371C194.353 31.6891 200.658 42.9291 216.294 44.187Z" fill="white"/>
<path d="M170.202 65.2042C157.719 69.587 132.258 78.5293 124.315 81.3233C121.696 73.2647 119.066 65.2136 116.447 57.1625C132.147 52.9997 147.037 47.4474 161.943 41.3799C164.78 49.2937 167.527 57.2358 170.202 65.2042Z" fill="#D18E23"/>
<path d="M144.57 74.2105C137.821 76.5758 131.064 78.9505 124.315 81.3233C121.696 73.2647 119.066 65.2136 116.447 57.1625C123.146 55.3857 130.453 53.1144 136.593 50.9954C139.25 58.7362 141.914 66.4696 144.57 74.2105Z" fill="#F49F5F"/>
<path d="M131.074 61.594C129.199 62.7579 127.235 63.7676 125.206 64.6137C123.96 61.658 122.677 58.7192 121.35 55.8086C124.125 55.017 126.872 54.1803 129.573 53.3154C130.346 55.5435 131.047 57.7904 131.692 60.0654C131.888 60.7987 131.859 61.1108 131.074 61.594Z" fill="#FF3D81"/>
<path d="M43.8134 192.433C40.6813 195.771 39.448 204.66 51.1134 203.043C67.742 200.738 84.1112 196.573 99.8186 190.649C109.164 187.125 108.335 180.749 102.924 178.285C94.156 174.295 47.2952 188.724 43.8134 192.433Z" fill="#FCC836"/>
<path d="M63.45 209.895C50.775 213.415 53.2999 222.267 61.8351 221.084C74.0513 219.39 86.0795 216.329 97.6209 211.978C104.488 209.389 103.878 204.705 99.9032 202.895C94.6505 200.503 83.6619 204.282 63.45 209.895Z" fill="#9B377F"/>
<path d="M147.424 87.0261L151.59 92.0877L157.386 89.7111L154.166 95.2164L158.332 100.278L152.177 98.6177L148.956 104.121L148.372 97.593L142.215 95.9327L148.009 93.5561L147.424 87.0261Z" fill="#FCC836"/>
<path d="M166.525 78.4805L170.691 83.5401L176.485 81.1654L173.266 86.6688L177.433 91.7304L171.276 90.0702L168.057 95.5736L167.472 89.0454L161.315 87.3852L167.109 85.0086L166.525 78.4805Z" fill="#FCC836"/>
<path d="M127.413 93.9434L131.581 99.0049L137.375 96.6283L134.155 102.134L138.323 107.193L132.166 105.535L128.946 111.038L128.361 104.508L122.204 102.85L128 100.473L127.413 93.9434Z" fill="#FCC836"/>
<path d="M92.7799 138.194C93.139 152.911 81.1089 167.342 66.2381 168.68C54.0576 169.782 40.6532 162.466 34.3646 152.307C21.6294 131.595 39.2826 103.751 65.7136 107.12C80.4772 109.015 92.4265 123.365 92.7799 138.194Z" fill="#5ED4BE"/>
<path d="M90.5841 149.716C86.4726 159.749 77.0726 167.706 66.2381 168.68C55.3661 169.664 43.9695 164.017 37.1696 156.13C42.2869 148.56 50.809 143.301 59.8894 141.834C70.596 140.112 81.7951 143.346 90.5841 149.716Z" fill="#4C3CE3"/>
<path d="M62.1622 115.521C58.6034 113.586 52.0497 116.468 52.9728 125.478C54.176 137.226 65.9918 138.616 68.4414 129.01C69.8439 123.499 66.5351 117.899 62.1622 115.521Z" fill="#4C3CE3"/>
</g>
<defs>
<clipPath id="clip0_2677_910">
<rect width="282" height="250" fill="white"/>
</clipPath>
</defs>
</svg>
