<svg width="337" height="201" viewBox="0 0 337 201" fill="none" xmlns="http://www.w3.org/2000/svg">
<g clip-path="url(#clip0_2683_1565)">
<path d="M134.443 160.966C134.443 160.966 129.408 66.883 116.413 59.3218C103.419 51.7606 48.9054 50.5049 47.645 58.0661C46.3846 65.6273 67.7707 175.67 67.7707 175.67L129.415 174.833L134.443 160.966Z" fill="#30006B"/>
<path d="M116.063 144.352C116.063 144.352 103.708 150.016 94.8048 169.945C131.45 169.945 156.314 169.945 156.314 169.945L146.366 151.596C146.366 151.596 118.732 144.453 116.063 144.352Z" fill="#1B0037"/>
<path d="M158.559 31.8044C158.559 31.8044 151.589 15.379 175.213 19.6389C198.837 23.8988 206.102 37.9748 206.979 44.4424C207.855 50.9099 207.713 89.4181 206.83 92.9422C199.787 91.6189 196.707 88.0949 196.707 88.0949L196.559 70.8999L194.948 86.1843C194.948 86.1843 190.108 82.0662 187.615 80.6012L187.177 72.2231L186.294 79.8653L186.442 75.4568L185.559 79.7168C185.559 79.7168 182.769 77.6577 179.985 76.9218C177.195 76.186 179.25 68.3952 179.25 68.3952L158.559 31.8044Z" fill="#D43D14"/>
<path d="M177.518 35.6255C177.518 35.6255 188.632 49.9445 190.23 58.5184C187.5 70.7176 180.47 84.2333 180.47 84.2333C180.47 84.2333 178.212 88.3514 177.498 88.1151C171.257 86.0561 163.175 82.424 158.363 77.9413C155.68 59.9496 160.742 39.9732 160.742 39.9732C160.742 39.9732 173.319 33.7419 177.518 35.6255Z" fill="#F2A790"/>
<path d="M178.765 32.0744C178.765 32.0744 178.233 45.4618 172.861 51.423L175.112 41.2153C175.112 41.2153 169.396 58.4374 157.918 50.7479C157.271 39.1158 160.756 36.0238 160.756 36.0238C160.756 36.0238 175.22 27.936 178.765 32.0744Z" fill="#D43D14"/>
<path d="M159.361 62.6163L152.762 88.5202L145.416 81.7894L139.936 103.636L156.692 116.794L162.272 111.096L164.341 91.3152L158.033 92.1456L163.762 72.6687L159.361 62.6163Z" fill="#F2A790"/>
<path d="M184.824 33.715C184.824 33.715 175.874 26.5116 158.997 31.6559C153.712 34.5926 152.391 44.7395 151.07 57.229C149.749 69.7185 149.749 76.9219 149.749 76.9219L152.391 81.0401L152.978 63.8451L153.712 83.3894L159.253 88.6823C159.253 88.6823 157.231 64.7294 159.435 56.3513C161.639 47.9733 162.225 48.9994 162.225 48.9994L184.824 33.715Z" fill="#D43D14"/>
<path d="M160.237 53.5968C160.035 53.2728 158.922 49.6002 155.323 49.4719C151.731 49.3436 152.695 58.5926 154.784 60.6787C156.88 62.7648 158.464 63.7437 159.644 61.9817" fill="#F2A790"/>
<path d="M173.764 106.303C173.764 106.303 167.812 130.958 166.876 134.05C166.876 134.05 190.877 128.946 202.409 128.676C207.774 132.571 217.291 139.423 217.291 139.423C217.291 139.423 231.236 145.331 234.855 146.276C234.451 148.558 230.299 148.159 228.958 147.754C227.616 147.349 222.521 145.202 222.521 145.202L228.419 156.888C228.419 156.888 226.673 157.429 223.99 155.815C221.308 154.202 217.149 145.742 217.149 145.742C217.149 145.742 215.538 156.618 215.538 158.367C215.538 158.367 212.721 156.753 212.054 152.723C211.387 148.693 211.649 144.264 211.649 144.264L202.261 139.7C202.261 139.7 199.848 146.553 197.03 147.221C194.213 147.889 193.141 146.951 193.141 146.951C193.141 146.951 197.435 138.087 197.3 133.118C197.3 133.118 171.021 149.233 153.591 147.086C158.687 125.327 163.917 107.065 163.917 107.065L173.764 106.303Z" fill="#E59A89"/>
<path d="M162.05 91.0923C162.05 91.0923 161.477 109.665 157.453 108.8C153.429 107.936 143.656 102.178 144.088 96.4189C144.519 90.6603 146.103 82.0256 146.103 82.0256C146.103 82.0256 140.064 76.2669 135.899 73.6745C131.733 71.0821 126.988 80.8712 126.988 80.8712L134.894 100.301L116.07 144.352C116.07 144.352 139.208 154.282 146.534 152.412C146.534 152.412 147.303 138.519 150.794 128.946C155.02 133.179 162.744 131.707 164.025 121.027C165.312 110.346 165.312 107.957 165.312 107.957L173.764 106.303C173.764 106.303 179.648 88.6282 174.135 88.8105C168.615 88.9927 162.05 91.0923 162.05 91.0923Z" fill="#ACF1AA"/>
<path d="M179.473 68.6383C179.156 70.0695 178.758 71.4805 178.32 72.8712L178.051 72.4729C179.041 72.4864 180.039 72.5202 181.03 72.5809L182.176 72.6485L181.185 73.202C180.295 73.6949 179.378 74.0729 178.421 74.3767C177.471 74.6805 176.494 74.8831 175.503 74.9708C175.968 74.802 176.44 74.6603 176.891 74.4712C177.35 74.2957 177.801 74.1134 178.246 73.9177C179.136 73.5328 180.019 73.1075 180.841 72.6349L180.996 73.2493C180.005 73.2155 179.014 73.1615 178.024 73.0873L177.613 73.0535L177.754 72.6822C178.266 71.3117 178.832 69.9615 179.473 68.6383Z" fill="#D67963"/>
<path d="M171.459 77.867C170.846 78.0628 170.151 78.0088 169.524 77.7927C168.891 77.5835 168.325 77.1851 167.86 76.7058C167.395 76.2197 167.071 75.6391 166.822 75.0383C166.707 74.7345 166.62 74.4239 166.539 74.1134C166.485 73.7961 166.438 73.4788 166.417 73.1615C166.579 73.4383 166.714 73.7218 166.849 74.0054L167.294 74.8088C167.624 75.3151 167.934 75.8282 168.352 76.24C169.147 77.0974 170.192 77.6982 171.459 77.867Z" fill="#D67963"/>
<path d="M177.471 66.1944C177.471 66.1944 176.143 56.8239 169.996 62.0425C170.522 66.0796 174.687 67.8012 177.471 66.1944Z" fill="white"/>
<path d="M177.471 66.1944C177.208 65.2762 176.891 64.3783 176.487 63.5412C176.089 62.7041 175.59 61.9074 174.91 61.3674C174.242 60.8138 173.366 60.672 172.524 60.9218C171.681 61.1581 170.879 61.6509 170.138 62.218L170.212 62.0222C170.239 62.4408 170.313 62.8526 170.414 63.2644C170.522 63.6762 170.684 64.0678 170.879 64.4594C170.32 63.7977 169.942 62.9539 169.781 62.0762L169.76 61.9682L169.855 61.8804C170.556 61.2121 171.365 60.618 172.349 60.3007C172.841 60.1589 173.373 60.0914 173.905 60.1792C174.438 60.2737 174.923 60.5302 175.328 60.861C176.13 61.5429 176.595 62.4543 176.925 63.3657C177.235 64.2838 177.424 65.2357 177.471 66.1944Z" fill="#0A1D58"/>
<path d="M176.534 64.0881C176.548 65.4113 175.84 66.4914 174.95 66.5049C174.06 66.5184 173.319 65.4518 173.306 64.1286C173.292 62.8053 174 61.7252 174.89 61.7117C175.779 61.6982 176.521 62.7648 176.534 64.0881Z" fill="#0A1D58"/>
<path d="M154.784 60.6855C155.674 61.1851 156.429 61.8265 157.237 62.2586C157.635 62.4746 158.046 62.6434 158.444 62.6096C158.848 62.5826 159.259 62.3261 159.644 61.9885C159.495 62.4678 159.131 62.9472 158.545 63.1227C157.959 63.305 157.379 63.0889 156.914 62.8526C156.449 62.5894 156.051 62.2585 155.701 61.894C155.35 61.5294 155.04 61.1311 154.784 60.6855Z" fill="#D67963"/>
<path d="M160.237 53.5969C159.873 53.1311 159.59 52.6517 159.253 52.2129C158.916 51.7741 158.572 51.3623 158.181 50.9977C157.79 50.6332 157.352 50.3361 156.887 50.0728C156.415 49.8095 155.889 49.661 155.33 49.472C155.903 49.3775 156.516 49.3842 157.089 49.5868C157.662 49.769 158.194 50.0998 158.639 50.5049C159.077 50.9235 159.435 51.4095 159.697 51.9361C159.967 52.4627 160.129 53.0298 160.237 53.5969Z" fill="#D67963"/>
<path d="M155.256 53.1446C155.33 52.8476 155.539 52.5303 155.903 52.429C156.267 52.3277 156.638 52.483 156.907 52.6653C157.467 53.0501 157.864 53.5699 158.228 54.0965C158.579 54.6299 158.895 55.1834 159.158 55.7505C159.448 56.3109 159.657 56.905 159.9 57.4856L160.035 57.8164L159.698 57.8704C159.482 57.9041 159.259 57.9446 159.098 58.0324C158.929 58.1202 158.882 58.1742 158.936 58.3632C158.997 58.5387 159.145 58.7345 159.307 58.9033C159.468 59.0721 159.65 59.2341 159.832 59.3894C159.603 59.3016 159.387 59.1936 159.185 59.0518C158.983 58.91 158.774 58.7683 158.619 58.5185C158.545 58.397 158.491 58.2147 158.545 58.0324C158.599 57.8501 158.727 57.7218 158.848 57.6408C159.098 57.4721 159.347 57.4045 159.596 57.3303L159.394 57.7151C159.111 57.1683 158.862 56.5944 158.579 56.0543C158.302 55.5075 158.019 54.9607 157.716 54.4408C157.406 53.9277 157.076 53.4079 156.665 53.0163C156.456 52.8206 156.22 52.6788 155.964 52.6788C155.687 52.672 155.431 52.8813 155.256 53.1446Z" fill="#D67963"/>
<path d="M181.023 67.4095C181.023 67.4095 186.064 60.8272 187.972 65.985C186.368 68.8272 182.715 70.704 181.023 67.4095Z" fill="white"/>
<path d="M181.023 67.4095C181.414 66.7411 181.886 66.12 182.418 65.5597C182.957 64.9994 183.557 64.4795 184.278 64.1015C184.636 63.9192 185.027 63.7572 185.458 63.7099C185.883 63.6559 186.354 63.7099 186.752 63.9259C187.554 64.3715 187.911 65.1816 188.127 65.9243L188.154 66.012L188.113 66.066C187.824 66.4643 187.514 66.8424 187.143 67.153C187.392 66.7411 187.635 66.3293 187.817 65.8973L187.803 66.039C187.48 65.3774 187.062 64.7361 186.476 64.466C185.896 64.196 185.195 64.358 184.555 64.6686C183.914 64.9859 183.308 65.4247 182.721 65.8973C182.149 66.3766 181.582 66.8829 181.023 67.4095Z" fill="#0A1D58"/>
<path d="M185.202 66.6264C185.188 65.6677 184.791 64.8441 184.224 64.493C183.422 64.9386 182.661 65.6205 182.081 66.2078C182.061 66.3563 182.054 66.5049 182.054 66.6601C182.068 67.9496 182.789 68.9893 183.658 68.9758C184.528 68.969 185.215 67.9158 185.202 66.6264Z" fill="#0A1D58"/>
<path d="M180.935 59.4906C180.935 59.4906 177.801 50.4171 171.702 56.7024L180.935 59.4906Z" fill="#0A1D58"/>
<path d="M184.083 60.1521C184.083 60.1521 189.32 54.7107 189.138 61.7589L184.083 60.1521Z" fill="#0A1D58"/>
<path d="M127.346 81.5868C127.346 81.5868 114.162 112.284 109.33 140.747C111.19 144.655 141.088 142.792 153.901 139.815C166.714 136.838 170.246 136.655 170.246 136.655C170.246 136.655 168.203 141.118 168.203 142.792C168.203 144.466 181.946 150.792 181.946 150.792C181.946 150.792 184.73 157.3 186.59 158.232C188.45 159.163 191.234 158.974 191.234 158.974L186.59 151.535C186.59 151.535 192.535 158.603 194.577 159.163C196.619 159.724 198.291 158.974 198.291 158.974L190.675 150.603L186.772 147.626L194.759 150.414C194.759 150.414 196.99 155.808 201.816 155.626C199.774 152.088 197.543 147.444 197.543 147.444L179.897 132.936C179.897 132.936 130.493 131.45 122.695 131.261C126.038 120.473 134.874 100.314 134.874 100.314C134.874 100.314 128.464 82.5117 127.346 81.5868Z" fill="#F2A790"/>
<path d="M153.908 139.808C156.577 139.018 159.273 138.35 161.982 137.736C163.337 137.439 164.705 137.155 166.074 136.912C167.449 136.662 168.803 136.446 170.232 136.318L170.778 136.271L170.542 136.777C170.172 137.574 169.814 138.39 169.484 139.214C169.154 140.031 168.83 140.861 168.594 141.698C168.54 141.908 168.487 142.117 168.446 142.333C168.419 142.441 168.412 142.542 168.406 142.644C168.406 142.691 168.392 142.758 168.392 142.792C168.392 142.819 168.399 142.853 168.419 142.887C168.574 143.211 168.931 143.528 169.255 143.812C169.929 144.379 170.67 144.878 171.405 145.385C170.61 144.98 169.835 144.534 169.093 144.021C168.729 143.744 168.345 143.508 168.089 143.035C168.055 142.974 168.035 142.9 168.028 142.812C168.022 142.738 168.028 142.691 168.028 142.623C168.035 142.502 168.035 142.387 168.055 142.272C168.082 142.043 168.129 141.82 168.17 141.59C168.581 139.815 169.241 138.154 169.956 136.5L170.266 136.959C168.925 137.081 167.543 137.337 166.188 137.56L162.097 138.303L158.006 139.066C156.644 139.329 155.276 139.579 153.908 139.808Z" fill="#D67963"/>
<path d="M197.549 147.437C194.523 145.121 191.537 142.758 188.565 140.375C185.586 138.006 182.654 135.575 179.695 133.185L179.897 133.26L173.926 133.057C171.937 132.983 169.942 132.929 167.954 132.834L161.983 132.558C159.994 132.443 158.006 132.348 156.011 132.213C158.006 132.193 159.994 132.22 161.989 132.22L167.968 132.301C169.963 132.321 171.951 132.389 173.939 132.436L179.911 132.591H180.025L180.113 132.666C183.038 135.109 185.984 137.52 188.882 139.984C191.8 142.448 194.698 144.912 197.549 147.437Z" fill="#D67963"/>
<path d="M337 167.542H0V201.007H337V167.542Z" fill="#27004F"/>
<path d="M11.2693 80.824L168.972 0L201.499 157.888L123.436 149.368L33.8618 144.858L11.2693 80.824Z" fill="url(#paint0_linear_2683_1565)"/>
<path d="M11.2693 80.824H114.931L136.377 148.213L134.483 150.738L32.716 148.213L9.37537 83.3489L11.2693 80.824Z" fill="#150035"/>
<path d="M9.37537 83.3489H113.037L134.483 150.738H30.822L9.37537 83.3489Z" fill="#230054"/>
<path d="M59.676 120.797H78.858L92.6144 164.018L91.4011 165.638L73.4256 164.018L58.4628 122.417L59.676 120.797Z" fill="#150035"/>
<path d="M58.4628 122.417H77.6448L91.4011 165.638H72.2124L58.4628 122.417Z" fill="#30006B"/>
<path d="M58.1522 167.285H104.22V163.632H58.1522V167.285Z" fill="#150035"/>
<path d="M324.619 111.258L190.553 17.1815L118.921 163.45L227.947 163.228L324.619 111.258Z" fill="url(#paint1_linear_2683_1565)"/>
<path d="M171.391 162.154H167.112V164.173H171.391V162.154Z" fill="#1B0037"/>
<path d="M176.628 162.154H172.349V164.173H176.628V162.154Z" fill="#1B0037"/>
<path d="M181.872 162.154H177.586V164.173H181.872V162.154Z" fill="#1B0037"/>
<path d="M187.102 162.154H182.823V164.173H187.102V162.154Z" fill="#1B0037"/>
<path d="M192.339 162.154H188.059V164.173H192.339V162.154Z" fill="#1B0037"/>
<path d="M197.576 162.154H193.297V164.173H197.576V162.154Z" fill="#1B0037"/>
<path d="M202.813 162.154H198.533V164.173H202.813V162.154Z" fill="#1B0037"/>
<path d="M208.057 162.154H203.77V164.173H208.057V162.154Z" fill="#1B0037"/>
<path d="M213.287 162.154H209.007V164.173H213.287V162.154Z" fill="#1B0037"/>
<path d="M218.524 162.154H214.244V164.173H218.524V162.154Z" fill="#1B0037"/>
<path d="M223.761 162.154H219.481V164.173H223.761V162.154Z" fill="#1B0037"/>
<path d="M228.998 162.154H224.718V164.173H228.998V162.154Z" fill="#1B0037"/>
<path d="M227.947 163.228L227.037 162.681L248.881 110.529H323.796L324.619 111.258L227.947 163.228Z" fill="#150035"/>
<path d="M249.798 111.258H324.619L302.768 163.228H227.947L249.798 111.258Z" fill="#30006B"/>
<path d="M163.232 167.693H227.949V163.224H163.232V167.693Z" fill="#30006B"/>
<path d="M227.948 167.693H302.864V163.224H227.948V167.693Z" fill="#230054"/>
<path d="M231.04 164.227V166.873" stroke="#150035" stroke-width="1.6206" stroke-miterlimit="10"/>
<path d="M233.682 164.227V166.873" stroke="#150035" stroke-width="1.6206" stroke-miterlimit="10"/>
<path d="M236.325 164.227V166.873" stroke="#150035" stroke-width="1.6206" stroke-miterlimit="10"/>
<path d="M238.96 164.227V166.873" stroke="#150035" stroke-width="1.6206" stroke-miterlimit="10"/>
<path d="M241.602 164.227V166.873" stroke="#150035" stroke-width="1.6206" stroke-miterlimit="10"/>
<path d="M289.571 164.227V166.873" stroke="#150035" stroke-width="1.6206" stroke-miterlimit="10"/>
<path d="M292.213 164.227V166.873" stroke="#150035" stroke-width="1.6206" stroke-miterlimit="10"/>
<path d="M294.855 164.227V166.873" stroke="#150035" stroke-width="1.6206" stroke-miterlimit="10"/>
<path d="M297.49 164.227V166.873" stroke="#150035" stroke-width="1.6206" stroke-miterlimit="10"/>
<path d="M300.132 164.227V166.873" stroke="#150035" stroke-width="1.6206" stroke-miterlimit="10"/>
<path d="M302.862 165.55H163.229" stroke="#150035" stroke-width="0.3241" stroke-miterlimit="10"/>
<path d="M148.199 89.4923C149.257 90.3835 150.275 91.3218 151.279 92.2738C152.297 93.2122 153.268 94.1911 154.245 95.17L154.359 95.2847L154.339 95.4535C154.292 95.8248 154.252 96.2096 154.238 96.5742C154.238 96.7565 154.245 96.9388 154.272 97.094C154.285 97.1683 154.306 97.2426 154.319 97.2561C154.346 97.2763 154.252 97.2156 154.238 97.2291C154.245 97.2426 154.427 97.121 154.528 96.9995C154.649 96.878 154.764 96.7295 154.878 96.5809C155.108 96.2771 155.31 95.9531 155.525 95.629L155.606 95.5008L155.728 95.494L157.992 95.4063C158.747 95.3995 159.509 95.3725 160.264 95.3928C159.516 95.5345 158.767 95.6291 158.019 95.7438L155.768 96.0274L155.977 95.8991C155.788 96.2501 155.586 96.5945 155.357 96.932C155.242 97.1008 155.121 97.2696 154.973 97.4316C154.811 97.5869 154.71 97.7759 154.326 97.8772C154.238 97.8974 154.083 97.8839 153.982 97.8231C153.867 97.7624 153.8 97.6746 153.753 97.6071C153.658 97.4586 153.638 97.3371 153.611 97.2223C153.571 96.9928 153.564 96.7767 153.557 96.5674C153.557 96.1489 153.598 95.7506 153.658 95.3455L153.753 95.629C152.789 94.6366 151.832 93.6442 150.909 92.6113C149.999 91.5986 149.075 90.5657 148.199 89.4923Z" fill="#D67963"/>
<path d="M165.305 107.957C165.143 106.161 165.17 104.378 165.238 102.596C165.285 101.705 165.332 100.814 165.413 99.9295C165.48 99.0384 165.602 98.154 165.696 97.2628C165.858 98.154 165.918 99.0519 165.939 99.9497C165.966 100.848 165.945 101.739 165.912 102.63C165.824 104.412 165.669 106.188 165.305 107.957Z" fill="#77C673"/>
<path d="M134.888 100.308C134.941 99.5177 135.225 98.7885 135.467 98.0594C135.723 97.3303 136.02 96.6214 136.323 95.9193C136.957 94.5219 137.644 93.1446 138.52 91.8619C138.123 93.3674 137.55 94.7851 136.937 96.1894C136.62 96.8847 136.296 97.5801 135.946 98.262C135.615 98.9573 135.204 99.6122 134.888 100.308Z" fill="#77C673"/>
<path d="M197.549 147.437C195.784 147.018 194.099 146.404 192.427 145.749C190.762 145.074 189.124 144.352 187.554 143.433C189.32 143.852 191.005 144.46 192.676 145.121C194.341 145.803 195.986 146.525 197.549 147.437Z" fill="#D67963"/>
<path d="M217.149 145.729C217.095 144.804 217.068 143.879 217.062 142.954L217.163 143.157C215.505 142.198 213.88 141.172 212.29 140.105C210.699 139.039 209.142 137.918 207.653 136.696C209.371 137.56 211.023 138.539 212.647 139.558C214.271 140.578 215.855 141.651 217.405 142.779L217.52 142.86L217.506 142.974C217.419 143.899 217.304 144.817 217.149 145.729Z" fill="#D67963"/>
<path d="M222.514 145.196C221.759 144.514 221.106 143.758 220.492 142.974L220.526 143.015C219.94 142.468 219.353 141.914 218.814 141.314C218.275 140.72 217.742 140.105 217.284 139.423C217.985 139.862 218.605 140.368 219.218 140.895C219.832 141.422 220.405 141.982 220.971 142.556L220.998 142.583L221.011 142.596C221.571 143.42 222.096 144.271 222.514 145.196Z" fill="#D67963"/>
</g>
<defs>
<linearGradient id="paint0_linear_2683_1565" x1="68.6772" y1="118.499" x2="160.284" y2="87.5141" gradientUnits="userSpaceOnUse">
<stop stop-color="#ACF1AA" stop-opacity="0.3"/>
<stop offset="1" stop-color="#ACF1AA" stop-opacity="0"/>
</linearGradient>
<linearGradient id="paint1_linear_2683_1565" x1="256.333" y1="136.253" x2="168.048" y2="96.4643" gradientUnits="userSpaceOnUse">
<stop stop-color="#ACF1AA" stop-opacity="0.3"/>
<stop offset="1" stop-color="#ACF1AA" stop-opacity="0"/>
</linearGradient>
<clipPath id="clip0_2683_1565">
<rect width="337" height="201" fill="white"/>
</clipPath>
</defs>
</svg>
