<svg width="244" height="281" viewBox="0 0 244 281" fill="none" xmlns="http://www.w3.org/2000/svg">
<g clip-path="url(#clip0_2682_1212)">
<path d="M244 121.886C244 122.163 244 122.441 243.995 122.719C243.969 126.784 243.745 130.799 243.327 134.761C236.89 196.022 185.026 243.768 122 243.768C54.6226 243.767 0 189.2 0 121.886C0 54.5714 54.6226 0 122 0C171.953 0 214.896 29.996 233.764 72.9393C235.484 76.8501 237 80.8665 238.306 84.9814C242.006 96.6241 244 109.021 244 121.886Z" fill="#485068"/>
<path d="M221.06 65.0482H56.9713C56.2969 65.0482 55.7495 64.5013 55.7495 63.8276C55.7495 63.1538 56.2969 62.6069 56.9713 62.6069H221.06C221.734 62.6069 222.282 63.1538 222.282 63.8276C222.282 64.5013 221.734 65.0482 221.06 65.0482Z" fill="#47EF92"/>
<path d="M43.5583 65.0482H22.587C21.9126 65.0482 21.3652 64.5013 21.3652 63.8276C21.3652 63.1538 21.9126 62.6069 22.587 62.6069H43.5583C44.2327 62.6069 44.7801 63.1538 44.7801 63.8276C44.7801 64.5013 44.2327 65.0482 43.5583 65.0482Z" fill="#47EF92"/>
<path d="M221.06 79.3089H210.609C209.934 79.3089 209.387 78.7621 209.387 78.0883C209.387 77.4145 209.934 76.8677 210.609 76.8677H221.06C221.735 76.8677 222.282 77.4145 222.282 78.0883C222.282 78.7621 221.735 79.3089 221.06 79.3089Z" fill="#47EF92"/>
<path d="M198.763 79.3089H44.3128C43.6384 79.3089 43.0911 78.7621 43.0911 78.0883C43.0911 77.4145 43.6384 76.8677 44.3128 76.8677H198.763C199.438 76.8677 199.985 77.4145 199.985 78.0883C199.985 78.7621 199.438 79.3089 198.763 79.3089Z" fill="#47EF92"/>
<path d="M30.4933 79.3089H22.587C21.9126 79.3089 21.3652 78.7621 21.3652 78.0883C21.3652 77.4145 21.9126 76.8677 22.587 76.8677H30.4933C31.1677 76.8677 31.715 77.4145 31.715 78.0883C31.715 78.7621 31.1687 79.3089 30.4933 79.3089Z" fill="#47EF92"/>
<path d="M221.06 93.5697H206.253C205.579 93.5697 205.031 93.0228 205.031 92.349C205.031 91.6753 205.579 91.1284 206.253 91.1284H221.059C221.733 91.1284 222.281 91.6753 222.281 92.349C222.282 93.0228 221.734 93.5697 221.06 93.5697Z" fill="#47EF92"/>
<path d="M195.686 93.5697H22.587C21.9126 93.5697 21.3652 93.0228 21.3652 92.349C21.3652 91.6753 21.9126 91.1284 22.587 91.1284H195.686C196.36 91.1284 196.907 91.6753 196.907 92.349C196.907 93.0228 196.361 93.5697 195.686 93.5697Z" fill="#47EF92"/>
<path d="M221.06 107.83H43.4996C42.8252 107.83 42.2778 107.284 42.2778 106.61C42.2778 105.936 42.8252 105.389 43.4996 105.389H221.06C221.734 105.389 222.282 105.936 222.282 106.61C222.282 107.284 221.734 107.83 221.06 107.83Z" fill="#47EF92"/>
<path d="M33.4548 107.83H22.587C21.9126 107.83 21.3652 107.284 21.3652 106.61C21.3652 105.936 21.9126 105.389 22.587 105.389H33.4548C34.1292 105.389 34.6766 105.936 34.6766 106.61C34.6766 107.284 34.1302 107.83 33.4548 107.83Z" fill="#47EF92"/>
<path d="M221.059 122.091H205.817C205.143 122.091 204.596 121.544 204.596 120.871C204.596 120.197 205.143 119.65 205.817 119.65H221.059C221.734 119.65 222.281 120.197 222.281 120.871C222.281 121.544 221.735 122.091 221.059 122.091Z" fill="#47EF92"/>
<path d="M197.108 122.091H22.587C21.9126 122.091 21.3652 121.544 21.3652 120.871C21.3652 120.197 21.9126 119.65 22.587 119.65H197.108C197.782 119.65 198.329 120.197 198.329 120.871C198.329 121.544 197.783 122.091 197.108 122.091Z" fill="#47EF92"/>
<path d="M221.06 136.352H41.2066C40.5322 136.352 39.9849 135.805 39.9849 135.131C39.9849 134.457 40.5322 133.911 41.2066 133.911H221.06C221.735 133.911 222.282 134.457 222.282 135.131C222.282 135.805 221.735 136.352 221.06 136.352Z" fill="#47EF92"/>
<path d="M30.5803 136.352H22.587C21.9126 136.352 21.3652 135.805 21.3652 135.131C21.3652 134.457 21.9126 133.911 22.587 133.911H30.5803C31.2547 133.911 31.802 134.457 31.802 135.131C31.802 135.805 31.2547 136.352 30.5803 136.352Z" fill="#47EF92"/>
<path d="M221.06 150.613H216.705C216.03 150.613 215.483 150.066 215.483 149.392C215.483 148.718 216.03 148.171 216.705 148.171H221.06C221.735 148.171 222.282 148.718 222.282 149.392C222.282 150.066 221.735 150.613 221.06 150.613Z" fill="#47EF92"/>
<path d="M209.447 150.613H44.6031C43.9287 150.613 43.3813 150.066 43.3813 149.392C43.3813 148.718 43.9287 148.171 44.6031 148.171H209.446C210.121 148.171 210.668 148.718 210.668 149.392C210.668 150.066 210.122 150.613 209.447 150.613Z" fill="#47EF92"/>
<path d="M37.5199 150.613H22.587C21.9126 150.613 21.3652 150.066 21.3652 149.392C21.3652 148.718 21.9126 148.171 22.587 148.171H37.5189C38.1933 148.171 38.7407 148.718 38.7407 149.392C38.7407 150.066 38.1943 150.613 37.5199 150.613Z" fill="#47EF92"/>
<path d="M221.059 164.873H44.6031C43.9287 164.873 43.3813 164.327 43.3813 163.653C43.3813 162.979 43.9287 162.432 44.6031 162.432H221.059C221.734 162.432 222.281 162.979 222.281 163.653C222.281 164.327 221.734 164.873 221.059 164.873Z" fill="#47EF92"/>
<path d="M31.5381 164.873H22.587C21.9126 164.873 21.3652 164.327 21.3652 163.653C21.3652 162.979 21.9126 162.432 22.587 162.432H31.5381C32.2125 162.432 32.7599 162.979 32.7599 163.653C32.7599 164.327 32.2135 164.873 31.5381 164.873Z" fill="#47EF92"/>
<path d="M221.06 179.134H206.66C205.986 179.134 205.438 178.587 205.438 177.913C205.438 177.24 205.986 176.693 206.66 176.693H221.06C221.735 176.693 222.282 177.24 222.282 177.913C222.282 178.587 221.735 179.134 221.06 179.134Z" fill="#47EF92"/>
<path d="M198.531 179.134H22.587C21.9126 179.134 21.3652 178.587 21.3652 177.913C21.3652 177.24 21.9126 176.693 22.587 176.693H198.531C199.205 176.693 199.753 177.24 199.753 177.913C199.753 178.587 199.205 179.134 198.531 179.134Z" fill="#47EF92"/>
<path d="M179.398 276.481C177.898 276.671 176.261 276.778 174.482 276.778H69.1656C67.3867 276.778 65.7495 276.671 64.2492 276.481C54.1379 275.171 47.2471 265.476 49.2117 255.476C55.6822 222.544 72.3519 202.087 78.4119 195.539C79.8243 194.016 80.6599 193.244 80.6599 193.244H162.987C162.987 193.244 163.823 194.016 165.235 195.539C171.295 202.087 187.964 222.544 194.436 255.476C196.4 265.476 189.509 275.172 179.398 276.481Z" fill="#FF67A0"/>
<g opacity="0.3">
<path d="M165.235 195.539C162.626 199.201 151.888 211.085 121.824 212.188C91.7584 211.085 81.0216 199.201 78.4119 195.539C79.8242 194.016 80.6599 193.244 80.6599 193.244H162.987C162.987 193.244 163.823 194.016 165.235 195.539Z" fill="#0B126D"/>
</g>
<g opacity="0.3">
<path d="M188.505 253.2C188.505 253.2 186.308 236.58 178.295 221.528V247.984C178.295 247.983 181.557 247.892 188.505 253.2Z" fill="#0B126D"/>
</g>
<g opacity="0.3">
<path d="M194.435 255.476C193.775 252.117 193.005 248.895 192.154 245.798C192.44 247.054 192.714 248.323 192.969 249.617C194.934 259.617 188.043 269.313 177.931 270.622C176.432 270.812 174.794 270.92 173.015 270.92H67.6994C65.9205 270.92 64.2834 270.812 62.783 270.622C56.4201 269.798 51.3346 265.65 48.9263 260.199C49.5254 268.351 55.7486 275.381 64.2492 276.481C65.7495 276.671 67.3866 276.779 69.1655 276.779H174.482C176.261 276.779 177.898 276.671 179.397 276.481C189.509 275.172 196.4 265.476 194.435 255.476Z" fill="#0B126D"/>
</g>
<g opacity="0.6">
<path d="M52.6337 255.968C60.6064 215.374 84.0819 193.736 84.0819 193.736H125.168H125.319H163.492C163.165 193.413 162.985 193.247 162.985 193.247H121.899H121.747H80.661C80.661 193.247 57.1855 214.885 49.2128 255.479C47.2491 265.476 54.137 275.173 64.2493 276.481C64.7878 276.55 65.3498 276.604 65.9236 276.65C56.7799 274.517 50.7854 265.376 52.6337 255.968Z" fill="white"/>
</g>
<path d="M54.9238 253.04C55.3616 252.291 55.9178 251.704 56.5248 251.146C57.1229 250.577 57.7944 250.116 58.4639 249.636C59.847 248.78 61.3072 248.017 62.831 247.471L63.9756 247.054C64.3607 246.932 64.7487 246.826 65.1367 246.71C65.9147 246.493 66.6928 246.263 67.4825 246.12C68.2703 245.962 69.0571 245.783 69.8488 245.643L72.2298 245.308C73.0254 245.182 73.822 245.139 74.6176 245.075C75.4142 245.016 76.2108 244.942 77.0084 244.9L79.3981 244.865C80.1938 244.866 80.9933 244.811 81.785 244.865C83.3703 244.944 84.9616 244.978 86.5401 245.118C88.1167 245.272 89.6903 245.45 91.261 245.642C92.0224 245.736 92.5639 246.428 92.47 247.189C92.3811 247.913 91.7487 248.438 91.0313 248.407L90.9658 248.404C89.4195 248.331 87.8782 248.244 86.3387 248.132C85.5695 248.063 84.7983 248.086 84.0301 248.048L81.7224 247.969C80.1859 247.94 78.6534 247.976 77.1188 247.975L74.8278 248.086C74.0644 248.125 73.2962 248.143 72.5416 248.242C69.4931 248.461 66.4992 249.01 63.5836 249.776C63.221 249.877 62.8476 249.953 62.4879 250.063L61.4167 250.414C60.6846 250.618 60.0063 250.923 59.2918 251.182C58.6047 251.481 57.9137 251.788 57.249 252.146C57.077 252.229 56.9157 252.323 56.7574 252.424L56.2657 252.712C55.9627 252.923 55.6255 253.134 55.3597 253.361L55.3343 253.384C55.2199 253.48 55.0489 253.468 54.9521 253.354C54.8749 253.263 54.868 253.137 54.9238 253.04Z" fill="#0B126D"/>
<path d="M188.288 253.36C188.021 253.133 187.686 252.921 187.382 252.71L186.891 252.423C186.733 252.322 186.571 252.228 186.398 252.145C185.734 251.786 185.044 251.479 184.357 251.181C183.643 250.921 182.965 250.616 182.232 250.413L181.161 250.062C180.801 249.953 180.427 249.876 180.065 249.774C177.149 249.009 174.155 248.461 171.107 248.24C170.352 248.142 169.584 248.123 168.821 248.085L166.53 247.974C164.994 247.975 163.462 247.939 161.926 247.968L159.618 248.047C158.849 248.086 158.079 248.062 157.31 248.131C155.77 248.242 154.229 248.329 152.683 248.403L152.622 248.406C151.856 248.442 151.205 247.85 151.17 247.084C151.135 246.356 151.675 245.731 152.387 245.642C153.957 245.45 155.532 245.272 157.108 245.118C158.688 244.977 160.278 244.944 161.864 244.865C162.656 244.811 163.456 244.866 164.251 244.864L166.64 244.899C167.438 244.942 168.234 245.016 169.031 245.074C169.827 245.138 170.623 245.181 171.418 245.307L173.8 245.642C174.59 245.782 175.378 245.961 176.165 246.12C176.955 246.263 177.734 246.493 178.511 246.71C178.898 246.826 179.286 246.932 179.672 247.054L180.815 247.471C182.339 248.017 183.798 248.78 185.182 249.636C185.852 250.115 186.523 250.577 187.121 251.146C187.728 251.703 188.285 252.29 188.723 253.039C188.798 253.168 188.754 253.334 188.625 253.41C188.523 253.47 188.398 253.454 188.312 253.382L188.288 253.36Z" fill="#0B126D"/>
<path d="M174.484 278.169H69.1645C67.3866 278.169 65.6732 278.064 64.0703 277.857C58.8313 277.179 54.2326 274.429 51.1205 270.113C48.0251 265.818 46.8317 260.387 47.8482 255.211C55.816 214.641 79.4801 192.446 79.7176 192.226C79.9737 191.99 80.31 191.858 80.6599 191.858H121.746C121.772 191.858 121.797 191.859 121.823 191.86C121.847 191.859 121.872 191.858 121.898 191.858H162.985C163.334 191.858 163.671 191.99 163.927 192.226C164.166 192.446 187.829 214.641 195.797 255.211C196.814 260.386 195.621 265.818 192.526 270.113C189.414 274.429 184.816 277.179 179.576 277.857C177.973 278.064 176.26 278.169 174.484 278.169ZM81.2238 194.635C78.1802 197.644 57.808 218.927 50.5771 255.746C49.7082 260.171 50.7286 264.817 53.3774 268.49C56.034 272.175 59.9593 274.524 64.428 275.102C65.9127 275.294 67.5059 275.391 69.1655 275.391H174.484C176.141 275.391 177.734 275.293 179.22 275.102C183.69 274.524 187.614 272.176 190.272 268.49C192.919 264.816 193.94 260.17 193.071 255.746C185.829 218.875 165.467 197.638 162.425 194.635H121.9C121.874 194.635 121.849 194.634 121.825 194.633C121.799 194.634 121.774 194.635 121.748 194.635H81.2238Z" fill="#0B126D"/>
<path d="M84.5431 184.691C84.5431 184.691 83.4161 179.765 83.4161 174.672C83.4161 174.672 90.3059 180.214 101.965 179.462C101.965 179.462 77.7735 174.393 72.4838 144.974C72.4828 144.973 71.1877 169.871 84.5431 184.691Z" fill="#0B126D"/>
<path d="M159.104 184.691C159.104 184.691 160.231 179.765 160.231 174.672C160.231 174.672 153.342 180.214 141.683 179.462C141.683 179.462 165.875 174.393 171.164 144.974C171.164 144.973 172.46 169.871 159.104 184.691Z" fill="#0B126D"/>
<path d="M162.987 193.244C162.987 193.244 155.04 208.561 121.824 209.781C88.6063 208.561 80.6599 193.244 80.6599 193.244C80.6599 183.152 89.4859 180.716 89.4859 180.716C89.4859 179.139 89.6961 177.782 90.0528 176.615C92.0028 170.244 98.2973 169.579 98.2973 169.579H145.35C145.35 169.579 150.178 170.087 152.685 174.491C153.042 175.116 153.35 175.824 153.594 176.615C153.951 177.782 154.161 179.139 154.161 180.716C154.161 180.716 162.987 183.152 162.987 193.244Z" fill="#FF67A0"/>
<g opacity="0.3">
<path d="M154.161 180.716C154.161 179.14 153.951 177.782 153.594 176.616C153.44 176.11 153.255 175.643 153.051 175.208C152.934 174.96 152.814 174.718 152.685 174.491C152.684 174.492 152.684 174.492 152.684 174.492C150.174 170.089 145.349 169.579 145.349 169.579H98.2962C98.2962 169.579 92.0017 170.244 90.0518 176.616C99.3274 182.709 111.56 185.862 121.823 185.862C129.618 185.862 138.545 184.037 146.453 180.488C149.474 179.133 152.787 181.81 151.969 185.016C151.931 185.164 151.902 185.242 151.902 185.242C151.902 185.242 155.04 184.977 153.593 193.243C152.147 201.514 121.823 209.78 121.823 209.78C155.04 208.56 162.986 193.243 162.986 193.243C162.987 183.152 154.161 180.716 154.161 180.716Z" fill="#0B126D"/>
</g>
<g opacity="0.3">
<path d="M101.965 195.103C101.965 195.103 90.5875 192.576 87.105 181.773L89.4869 180.716C89.4869 180.717 90.695 187.475 101.965 195.103Z" fill="#0B126D"/>
</g>
<g opacity="0.6">
<path d="M82.6147 194.709C82.6147 184.617 91.4408 182.181 91.4408 182.181C91.4408 180.604 91.6509 179.246 92.0077 178.079C93.9576 171.709 100.252 171.044 100.252 171.044H147.305C147.305 171.044 149.075 171.231 151.029 172.357C148.497 169.912 145.35 169.579 145.35 169.579H98.2973C98.2973 169.579 92.0028 170.244 90.0528 176.615C89.6961 177.782 89.4859 179.139 89.4859 180.716C89.4859 180.716 80.6599 183.152 80.6599 193.244C80.6599 193.244 82.4339 196.66 87.8019 200.393C83.9479 197.277 82.6147 194.709 82.6147 194.709Z" fill="white"/>
</g>
<path d="M155.344 181.021C155.255 181.294 155.181 181.479 155.092 181.691C155.009 181.901 154.916 182.098 154.824 182.296C154.64 182.693 154.444 183.076 154.236 183.452C154.026 183.826 153.816 184.198 153.583 184.555C153.363 184.919 153.123 185.269 152.878 185.614C151.904 187 150.801 188.27 149.622 189.449C149.005 190.011 148.419 190.601 147.764 191.114C147.443 191.375 147.131 191.648 146.801 191.897L145.801 192.628L145.301 192.991L144.781 193.325L143.744 193.991C143.04 194.416 142.315 194.801 141.606 195.205C141.549 195.237 141.475 195.217 141.443 195.16C141.412 195.107 141.428 195.039 141.476 195.004L141.484 194.999C142.141 194.52 142.811 194.062 143.453 193.569L144.393 192.802L144.862 192.42L145.308 192.012L146.195 191.196C146.487 190.919 146.757 190.621 147.038 190.336C147.61 189.776 148.106 189.145 148.631 188.547C149.622 187.3 150.521 185.992 151.272 184.615C151.463 184.272 151.645 183.928 151.808 183.573C151.983 183.225 152.134 182.868 152.284 182.512C152.431 182.156 152.566 181.795 152.686 181.437C152.745 181.258 152.808 181.078 152.853 180.902C152.904 180.733 152.955 180.531 152.979 180.412C153.104 179.749 153.745 179.312 154.409 179.437C155.072 179.562 155.51 180.201 155.385 180.865C155.375 180.913 155.363 180.961 155.35 181.008L155.344 181.021Z" fill="#0B126D"/>
<path d="M90.6697 180.413C90.6922 180.532 90.743 180.733 90.7938 180.903C90.8407 181.079 90.9023 181.259 90.961 181.439C91.0802 181.796 91.2151 182.157 91.3627 182.513C91.5122 182.868 91.6637 183.226 91.8387 183.574C92.0009 183.928 92.1837 184.272 92.3733 184.615C93.125 185.992 94.0232 187.3 95.0153 188.547C95.5392 189.145 96.0367 189.775 96.6084 190.336C96.8899 190.621 97.1597 190.92 97.45 191.196L98.3385 192.013L98.7842 192.421L99.2533 192.804L100.194 193.57C100.835 194.063 101.504 194.521 102.162 195.001L102.169 195.006C102.223 195.045 102.234 195.12 102.195 195.173C102.159 195.224 102.092 195.236 102.04 195.207C101.33 194.803 100.605 194.418 99.9023 193.993L98.8643 193.326L98.3443 192.992L97.8449 192.629L96.844 191.897C96.5136 191.648 96.2038 191.375 95.8812 191.114C95.2274 190.601 94.6409 190.012 94.0232 189.449C92.8444 188.27 91.7409 187 90.7674 185.614C90.5221 185.269 90.2826 184.919 90.0627 184.555C89.8301 184.198 89.62 183.826 89.4098 183.452C89.2016 183.076 89.0052 182.692 88.8214 182.296C88.7295 182.098 88.6367 181.901 88.5546 181.691C88.4666 181.479 88.3904 181.293 88.3034 181.021L88.3004 181.015C88.0932 180.372 88.4471 179.683 89.0902 179.475C89.7343 179.268 90.4234 179.62 90.6316 180.264C90.6472 180.312 90.6609 180.365 90.6697 180.413Z" fill="#0B126D"/>
<path d="M121.824 211C121.809 211 121.793 211 121.779 210.999C88.2349 209.769 79.9133 194.46 79.576 193.809C79.4861 193.635 79.4392 193.443 79.4392 193.247C79.4392 184.323 85.894 180.842 88.2858 179.859C88.7735 169.478 98.0716 168.376 98.1674 168.365C98.2094 168.361 98.2524 168.358 98.2954 168.358H145.352C145.395 168.358 145.437 168.36 145.48 168.365C145.577 168.375 154.875 169.478 155.363 179.859C157.754 180.842 164.208 184.324 164.208 193.247C164.208 193.443 164.161 193.635 164.071 193.809C163.733 194.46 155.413 209.769 121.869 210.999C121.854 211 121.838 211 121.824 211ZM81.8857 192.92C83.0762 194.812 92.1387 207.456 121.824 208.558C151.641 207.451 160.582 194.827 161.761 192.924C161.581 184.188 154.151 181.982 153.831 181.893C153.305 181.744 152.939 181.263 152.939 180.717C152.939 172.018 146.038 170.896 145.281 170.8H98.3697C97.6318 170.899 90.7088 172.066 90.7088 180.717C90.7088 181.266 90.3422 181.747 89.8125 181.894C89.4958 181.983 82.0675 184.187 81.8857 192.92Z" fill="#0B126D"/>
<path d="M121.824 209.781C108.027 198.556 108.428 190.027 108.428 190.027C109.577 187.752 110.451 185.501 111.116 183.466C111.116 183.466 111.121 183.45 111.126 183.427C111.145 183.388 111.155 183.344 111.165 183.305C111.316 182.855 111.448 182.421 111.571 181.995C111.575 181.971 111.58 181.946 111.59 181.922C112.748 177.972 113.061 175.15 113.061 175.15H130.586C130.586 175.15 131.397 182.459 135.219 190.027C135.219 190.027 135.62 198.556 121.824 209.781Z" fill="#FDC7A3"/>
<g opacity="0.3">
<path d="M121.824 209.781C108.027 198.556 108.428 190.027 108.428 190.027C113.437 203.4 121.75 204.152 121.75 204.152C130.669 199.162 128.216 186.287 128.216 186.287C117.503 186.765 111.116 183.465 111.116 183.465C111.116 183.465 111.121 183.449 111.126 183.426C111.145 183.387 111.155 183.343 111.165 183.304C111.228 183.079 111.365 182.619 111.571 181.994C111.575 181.97 111.58 181.945 111.59 181.921C112.103 180.324 113.007 177.712 114.175 175.149H130.586C130.586 175.149 131.397 182.458 135.219 190.026C135.219 190.027 135.62 198.556 121.824 209.781Z" fill="#0B126D"/>
</g>
<path d="M121.824 211C121.55 211 121.276 210.908 121.051 210.726C106.941 199.244 107.192 190.343 107.209 189.97C107.217 189.799 107.261 189.631 107.338 189.478C111.005 182.208 111.838 175.083 111.846 175.012C111.916 174.395 112.439 173.927 113.06 173.927H130.586C131.208 173.927 131.731 174.395 131.8 175.012C131.808 175.084 132.642 182.209 136.308 189.478C136.385 189.631 136.429 189.799 136.437 189.97C136.455 190.343 136.705 199.244 122.595 210.726C122.371 210.908 122.097 211 121.824 211ZM109.658 190.303C109.741 191.63 110.715 198.871 121.824 208.196C132.914 198.887 133.902 191.654 133.988 190.302C131.044 184.359 129.899 178.686 129.527 176.369H114.122C113.748 178.686 112.604 184.359 109.658 190.303Z" fill="#0B126D"/>
<path d="M171.388 143.961C170.611 147.593 169.477 151.836 167.83 155.952C166.447 159.413 164.712 162.778 162.533 165.605C153.765 176.971 135.937 182.933 121.824 182.933C107.71 182.933 89.8818 176.971 81.1144 165.605C78.9348 162.778 77.1999 159.414 75.8168 155.952C74.1699 151.836 73.0361 147.593 72.259 143.961C70.0941 133.786 70.9835 123.156 75.1913 113.645C80.7918 100.984 93.4102 87.1775 121.824 87.1775C150.237 87.1775 162.855 100.984 168.456 113.645C172.664 123.156 173.553 133.786 171.388 143.961Z" fill="#FDC7A3"/>
<g opacity="0.3">
<path d="M171.388 139.567C170.611 143.199 169.477 147.442 167.83 151.558C166.447 155.019 164.712 158.384 162.533 161.211C153.765 172.577 135.937 178.538 121.823 178.538C107.71 178.538 89.8817 172.577 81.1143 161.211C78.9347 158.384 77.1998 155.02 75.8167 151.558C74.1698 147.442 73.036 143.199 72.2589 139.567C71.6559 136.732 71.2982 133.861 71.175 130.989C70.9844 135.315 71.347 139.678 72.2589 143.961C73.036 147.593 74.1698 151.836 75.8167 155.952C77.1998 159.413 78.9347 162.778 81.1143 165.605C89.8817 176.971 107.71 182.933 121.823 182.933C135.937 182.933 153.765 176.971 162.533 165.605C164.712 162.778 166.447 159.414 167.83 155.952C169.477 151.836 170.611 147.593 171.388 143.961C172.299 139.678 172.662 135.316 172.471 130.989C172.348 133.861 171.991 136.732 171.388 139.567Z" fill="#0B126D"/>
</g>
<path d="M107.486 146.146C107.486 150.723 104.452 154.434 100.71 154.434C96.968 154.434 93.9351 150.723 93.9351 146.146C93.9351 141.569 96.9689 137.859 100.71 137.859C104.453 137.859 107.486 141.569 107.486 146.146Z" fill="#0B126D"/>
<path d="M98.0578 140.899C97.962 140.874 97.9298 140.859 97.8789 140.843L97.748 140.791C97.6639 140.756 97.5867 140.719 97.5124 140.68C97.359 140.605 97.2241 140.519 97.0863 140.434C96.8214 140.251 96.5741 140.056 96.3561 139.837C95.9114 139.405 95.5742 138.897 95.3074 138.383C95.0689 137.85 94.8959 137.312 94.8167 136.771C94.7698 136.502 94.7678 136.229 94.7454 135.966C94.7522 135.699 94.7639 135.436 94.7854 135.177C94.7933 135.09 94.8705 135.026 94.9575 135.034C95.0132 135.038 95.0581 135.071 95.0826 135.116L95.0875 135.125C95.3259 135.576 95.5527 136.005 95.8264 136.387C96.0922 136.772 96.3874 137.109 96.7051 137.392C97.0188 137.676 97.3629 137.895 97.705 138.061C97.8731 138.15 98.051 138.209 98.2201 138.264C98.3031 138.287 98.3882 138.317 98.4654 138.329C98.5064 138.339 98.5446 138.346 98.5768 138.348C98.5934 138.351 98.613 138.355 98.6218 138.354C98.6296 138.353 98.656 138.358 98.6208 138.346C99.3265 138.502 99.7722 139.199 99.6168 139.903C99.4614 140.608 98.7625 141.055 98.0578 140.899Z" fill="#0B126D"/>
<path d="M97.3473 143.662C97.2525 143.688 97.2164 143.692 97.1636 143.702L97.0238 143.722C96.9339 143.734 96.8479 143.74 96.7638 143.744C96.5937 143.756 96.4334 143.75 96.2722 143.744C95.9516 143.719 95.6398 143.673 95.3407 143.593C94.7396 143.441 94.1932 143.169 93.7045 142.857C93.2305 142.515 92.8121 142.136 92.473 141.706C92.298 141.496 92.1592 141.261 92.0097 141.045C91.8807 140.809 91.7585 140.576 91.65 140.341C91.6129 140.262 91.6471 140.168 91.7272 140.132C91.7771 140.108 91.8337 140.113 91.8768 140.14L91.8865 140.147C92.3185 140.417 92.7291 140.676 93.1581 140.869C93.5804 141.069 94.0056 141.214 94.4219 141.301C94.8354 141.391 95.2439 141.407 95.6232 141.381C95.8128 141.374 95.9965 141.337 96.1695 141.299C96.2536 141.278 96.3416 141.261 96.4149 141.233C96.454 141.222 96.4901 141.208 96.5204 141.194C96.5351 141.188 96.5556 141.183 96.5625 141.177C96.5693 141.172 96.5947 141.163 96.5586 141.171C97.2467 140.953 97.9826 141.334 98.1996 142.022C98.4176 142.71 98.0364 143.444 97.3473 143.662Z" fill="#0B126D"/>
<path d="M104.55 148.135C104.55 149.881 103.393 151.297 101.966 151.297C100.538 151.297 99.3804 149.881 99.3804 148.135C99.3804 146.389 100.538 144.973 101.966 144.973C103.393 144.973 104.55 146.389 104.55 148.135Z" fill="white"/>
<path d="M136.161 146.146C136.161 150.723 139.194 154.434 142.936 154.434C146.678 154.434 149.711 150.723 149.711 146.146C149.711 141.569 146.678 137.859 142.936 137.859C139.194 137.859 136.161 141.569 136.161 146.146Z" fill="#0B126D"/>
<path d="M145.027 138.347C144.992 138.359 145.017 138.355 145.026 138.355C145.035 138.356 145.055 138.351 145.071 138.348C145.104 138.345 145.142 138.338 145.183 138.328C145.261 138.316 145.345 138.287 145.428 138.263C145.597 138.209 145.776 138.151 145.943 138.061C146.284 137.895 146.63 137.676 146.943 137.392C147.26 137.109 147.556 136.771 147.822 136.387C148.094 136.005 148.322 135.576 148.56 135.125L148.564 135.117C148.606 135.039 148.701 135.01 148.779 135.051C148.827 135.078 148.858 135.126 148.863 135.177C148.885 135.436 148.897 135.699 148.904 135.967C148.881 136.23 148.879 136.503 148.832 136.771C148.754 137.313 148.581 137.85 148.343 138.383C148.076 138.898 147.739 139.405 147.294 139.838C147.075 140.057 146.828 140.252 146.564 140.434C146.425 140.519 146.29 140.603 146.137 140.68C146.062 140.719 145.986 140.757 145.901 140.792L145.77 140.844C145.719 140.861 145.687 140.876 145.59 140.9C144.886 141.056 144.188 140.61 144.032 139.905C143.876 139.199 144.322 138.502 145.027 138.347Z" fill="#0B126D"/>
<path d="M147.09 141.171C147.053 141.162 147.078 141.173 147.085 141.177C147.092 141.182 147.111 141.188 147.127 141.194C147.157 141.208 147.193 141.222 147.232 141.233C147.306 141.262 147.394 141.278 147.478 141.299C147.651 141.337 147.834 141.374 148.024 141.381C148.403 141.407 148.811 141.391 149.225 141.301C149.642 141.214 150.067 141.069 150.489 140.869C150.917 140.676 151.328 140.417 151.761 140.147L151.769 140.142C151.844 140.095 151.941 140.117 151.987 140.191C152.017 140.238 152.019 140.295 151.997 140.342C151.887 140.577 151.765 140.811 151.637 141.046C151.487 141.262 151.348 141.497 151.173 141.707C150.834 142.137 150.416 142.516 149.942 142.857C149.454 143.17 148.907 143.441 148.305 143.593C148.006 143.673 147.695 143.719 147.374 143.744C147.212 143.749 147.051 143.756 146.881 143.744C146.798 143.74 146.712 143.734 146.621 143.722L146.482 143.702C146.429 143.691 146.393 143.687 146.298 143.662C145.61 143.443 145.228 142.709 145.446 142.021C145.666 141.334 146.401 140.953 147.09 141.171Z" fill="#0B126D"/>
<path d="M139.097 148.135C139.097 149.881 140.255 151.297 141.683 151.297C143.111 151.297 144.268 149.881 144.268 148.135C144.268 146.389 143.111 144.973 141.683 144.973C140.255 144.973 139.097 146.389 139.097 148.135Z" fill="white"/>
<path d="M129.411 161.87C129.65 163.706 128.706 165.628 127.128 166.807C125.537 167.96 123.599 168.384 121.824 168.385C120.049 168.406 118.1 168.009 116.48 166.866C115.688 166.28 115.021 165.512 114.605 164.641C114.194 163.758 113.985 162.856 114.093 161.878C114.123 161.605 114.369 161.409 114.642 161.438C114.822 161.458 114.969 161.572 115.039 161.725L115.082 161.819C115.22 162.121 115.396 162.475 115.583 162.773C115.788 163.071 115.978 163.362 116.226 163.603C116.689 164.102 117.22 164.484 117.799 164.776C118.978 165.328 120.354 165.556 121.825 165.56C123.295 165.579 124.679 165.379 125.888 164.835C126.481 164.549 127.031 164.167 127.513 163.66C128.006 163.168 128.408 162.507 128.709 161.829L128.734 161.771C128.813 161.591 129.023 161.51 129.203 161.59C129.32 161.642 129.396 161.75 129.411 161.87Z" fill="#0B126D"/>
<path d="M167.964 137.707C167.935 137.375 167.734 137.073 167.423 136.913C165.541 135.946 163.566 135.288 161.727 134.841C160.546 134.553 159.407 134.14 158.291 133.675C145.797 128.468 136.369 132.386 131.833 135.21C131.047 135.7 130.034 135.754 129.193 135.355C123.941 132.863 118.206 133.915 114.978 134.89C114.186 135.129 113.323 135.011 112.644 134.562C108.601 131.891 98.9316 127.246 86.0064 132.55C84.419 133.202 82.8092 133.817 81.1516 134.29C79.5115 134.759 77.7883 135.402 76.1433 136.284C75.8354 136.45 75.6399 136.756 75.6175 137.088L75.3985 140.297C75.3672 140.748 75.6624 141.162 76.1208 141.305C76.9536 141.562 78.3953 142.163 80.1536 143.53C80.2562 146.493 80.9531 149.824 82.9862 152.719C85.7239 156.616 90.2835 158.918 96.5399 159.557C96.9475 159.598 97.3492 159.631 97.7441 159.655C103.126 159.977 107.243 158.469 110.448 155.656C115.869 150.898 116.015 143.144 115.427 139.289C117.745 138.463 123.622 136.862 128.24 139.799C128.023 143.218 128.09 151.788 133.5 156.877C136.611 159.802 140.907 161.071 146.282 160.655C146.676 160.624 147.078 160.584 147.484 160.536C153.726 159.787 158.24 157.408 160.9 153.463C162.876 150.532 163.508 147.192 163.551 144.226C165.283 142.83 166.712 142.204 167.54 141.931C167.996 141.782 168.281 141.363 168.242 140.912L167.964 137.707ZM107.972 153.431C105.471 155.866 101.753 156.852 96.9152 156.356C91.7223 155.825 88.0003 154.006 85.8529 150.946C82.8337 146.647 83.4856 140.877 84.0672 138.046C84.2148 137.323 84.722 136.715 85.418 136.376C98.5964 129.979 107.942 135.162 111.122 137.464C111.617 137.822 111.921 138.359 111.963 138.945C112.185 142.027 112.199 149.313 107.972 153.431ZM158.005 151.74C155.918 154.836 152.233 156.72 147.052 157.342C142.224 157.922 138.488 157 135.939 154.608C131.631 150.565 131.501 143.28 131.662 140.195C131.694 139.607 131.986 139.065 132.474 138.698C135.609 136.344 144.849 130.998 158.153 137.165C158.855 137.49 159.374 138.092 159.537 138.812C160.173 141.632 160.939 147.39 158.005 151.74Z" fill="#0B126D"/>
<g opacity="0.3">
<path d="M171.388 143.961C170.611 147.593 169.477 151.836 167.83 155.952C169.599 141.583 167.747 129.113 167.747 129.113C161.741 132.492 155.965 129.728 155.965 129.728C153.233 133.224 150.349 131.579 150.349 131.579C134.999 134.84 127.683 131.047 127.683 131.047C117.181 135.455 111.536 130.085 111.536 130.085C103.864 134.577 97.9503 128.141 97.9503 128.141C91.778 117.39 89.8964 110.486 89.8964 110.486C81.6617 118.713 75.8999 129.114 75.8999 129.114C75.8999 129.114 74.0477 141.584 75.8168 155.953C74.1699 151.837 73.0361 147.594 72.259 143.962C70.0941 133.787 70.9835 123.157 75.1913 113.646C80.7918 100.985 93.4102 87.1785 121.824 87.1785C150.237 87.1785 162.855 100.985 168.456 113.646C172.664 123.156 173.553 133.786 171.388 143.961Z" fill="#0B126D"/>
</g>
<path d="M121.824 184.152C108.364 184.152 89.5808 178.581 80.1488 166.351C75.1621 159.886 72.4566 150.744 71.0657 144.214C68.7835 133.498 69.8234 122.757 74.0732 113.152C79.5614 100.746 92.301 85.9559 121.824 85.9559C151.346 85.9559 164.087 100.746 169.575 113.152C173.824 122.756 174.864 133.497 172.582 144.214C171.191 150.743 168.486 159.884 163.499 166.352C154.067 178.581 135.285 184.152 121.824 184.152ZM121.824 88.3972C93.6156 88.3972 81.5025 102.395 76.3076 114.139C72.267 123.271 71.2808 133.495 73.4555 143.705C74.7946 149.989 77.3778 158.759 82.0841 164.861C91.0118 176.438 108.942 181.711 121.824 181.711C134.705 181.711 152.635 176.438 161.563 164.861C166.27 158.757 168.854 149.987 170.192 143.704C172.367 133.493 171.38 123.269 167.341 114.138C162.145 102.395 150.032 88.3972 121.824 88.3972Z" fill="#0B126D"/>
<path d="M183.664 184.485L182.174 175.292C172.102 192.805 152.837 190.94 152.837 190.94C177.262 171.937 170.362 125.554 170.362 125.554C164.014 129.123 157.91 126.203 157.91 126.203C155.021 129.899 151.977 128.161 151.977 128.161C135.752 131.608 128.015 127.6 128.015 127.6C116.917 132.257 110.95 126.578 110.95 126.578C102.842 131.329 96.5917 124.528 96.5917 124.528C90.0675 113.162 88.0784 105.867 88.0784 105.867C79.3746 114.563 73.2853 125.554 73.2853 125.554C73.2853 125.554 66.3848 171.937 90.8103 190.94C90.8103 190.94 71.5455 192.805 61.4733 175.292L59.9827 184.485C59.9827 184.485 48.9771 170.956 47.3888 144.97C46.8072 135.484 47.4816 124.337 50.409 111.579C61.3511 63.8872 87.0717 47.2477 121.824 47.2477C148.194 47.2477 169.359 56.8271 182.819 82.2843C187.1 90.3795 190.599 100.076 193.238 111.579C204.175 159.272 183.664 184.485 183.664 184.485Z" fill="#AD5833"/>
<g opacity="0.3">
<path d="M183.665 184.485L182.174 175.292C172.102 192.805 152.837 190.94 152.837 190.94C177.262 171.937 170.362 125.554 170.362 125.554C164.014 129.123 157.91 126.203 157.91 126.203C155.021 129.899 151.977 128.161 151.977 128.161C135.752 131.608 128.016 127.6 128.016 127.6C116.917 132.257 110.95 126.578 110.95 126.578C102.842 131.329 96.5918 124.528 96.5918 124.528C90.0676 113.162 88.0786 105.867 88.0786 105.867C79.3747 114.563 73.2854 125.554 73.2854 125.554C73.2854 125.554 66.3849 171.937 90.8104 190.94C90.8104 190.94 71.5456 192.805 61.4734 175.292L59.9829 184.485C59.9829 184.485 48.9772 170.956 47.3889 144.97C47.3889 144.97 48.2539 158.627 59.4013 167.586C59.4013 167.586 56.8571 157.919 58.5959 150.346C58.5959 150.346 62.4743 164.583 71.1156 173.22C70.9494 172.508 61.2388 130.601 77.762 104.778C77.762 104.778 79.4431 106.868 83.6216 103.909C83.6216 103.909 79.8878 82.7677 91.4653 70.2197C91.4653 70.2197 79.2672 89.2926 94.9351 121.552C94.9351 121.552 108.429 127.601 110.1 121.315C110.1 121.315 117.885 125.895 123.632 122.472C123.632 122.472 121.252 114.587 123.632 107.043C123.632 107.043 126.994 132.105 150.687 124.562C150.687 124.562 154.039 125.26 152.949 121.724C152.949 121.724 150.731 112.844 152.254 107.013C152.254 107.013 157.304 126.68 169.149 122.676C180.99 118.671 171.079 83.3038 161.589 75.443C161.936 75.5992 173.059 80.887 177.858 117.715C177.858 117.715 182.564 125.722 175.072 128.506C175.072 128.506 176.367 150.897 172.526 167.487C172.526 167.487 177.281 164.607 182.852 150.521C182.852 150.521 184.299 156.854 183.903 164.822C184.25 164.207 201.218 133.892 182.838 82.3331C182.833 82.3185 182.828 82.298 182.818 82.2843C187.099 90.3795 190.598 100.076 193.237 111.579C204.175 159.272 183.665 184.485 183.665 184.485Z" fill="#0B126D"/>
</g>
<g opacity="0.6">
<path d="M121.824 47.2487C87.0717 47.2487 61.3511 63.8881 50.409 111.58C47.4816 124.338 46.8072 135.485 47.3888 144.971C48.5666 164.227 54.9109 176.635 58.1198 181.773C54.779 175.434 50.3122 164.232 49.3436 148.389C48.7621 138.902 49.4365 127.756 52.3638 114.998C57.4395 92.8744 65.6977 77.436 76.5606 67.2385C77.9847 67.8 80.6511 67.1535 83.2246 65.4964C86.3728 63.4692 88.1987 60.693 87.3649 59.239C97.8789 53.2336 110.132 50.6664 123.778 50.6664C148.638 50.6664 168.869 59.1863 182.381 81.4885C168.904 56.6357 147.914 47.2487 121.824 47.2487Z" fill="white"/>
</g>
<g opacity="0.6">
<path d="M91.4651 70.2207C91.4651 70.2207 80.6315 101.476 103.771 127.87C103.771 127.87 100.196 128.073 96.3512 124.636C96.3512 124.636 77.3014 96.5118 91.4651 70.2207Z" fill="white"/>
</g>
<path d="M170.389 124.332C170.37 124.331 170.457 124.328 170.503 124.324L170.684 124.306C170.809 124.291 170.941 124.27 171.072 124.246C171.335 124.2 171.607 124.134 171.879 124.064C172.422 123.92 172.969 123.732 173.511 123.528C174.055 123.325 174.592 123.084 175.125 122.836L175.524 122.642L175.722 122.545L175.863 122.467C176.047 122.359 176.217 122.232 176.372 122.087C176.674 121.791 176.915 121.429 177.05 121.03C177.118 120.83 177.162 120.623 177.183 120.414C177.188 120.309 177.197 120.205 177.191 120.099C177.192 120.055 177.188 119.983 177.181 119.902L177.166 119.675C177.086 118.462 176.992 117.247 176.871 116.033C176.642 113.603 176.276 111.186 175.87 108.779C175.634 107.58 175.439 106.373 175.155 105.186L174.761 103.398C174.622 102.803 174.466 102.214 174.318 101.621C173.118 96.8907 171.524 92.2514 169.385 87.8689C167.225 83.4922 164.601 79.39 161.524 75.4967C161.498 75.4635 161.503 75.4147 161.537 75.3883C161.565 75.3658 161.605 75.3668 161.634 75.3883C165.556 78.5033 168.544 82.6925 170.859 87.1189C173.199 91.5561 174.983 96.2628 176.365 101.069C177.747 105.88 178.67 110.808 179.259 115.776C179.401 117.019 179.531 118.265 179.61 119.519L179.627 119.753C179.633 119.828 179.639 119.91 179.641 120.02C179.65 120.223 179.64 120.426 179.626 120.629C179.589 121.036 179.504 121.437 179.374 121.823C179.115 122.596 178.657 123.295 178.076 123.861C177.78 124.141 177.455 124.386 177.106 124.592L176.84 124.739L176.623 124.846L176.188 125.06C175.603 125.335 175.011 125.602 174.396 125.834C173.783 126.07 173.154 126.277 172.501 126.443C172.173 126.526 171.843 126.603 171.498 126.66C171.324 126.689 171.152 126.717 170.968 126.736L170.688 126.764C170.58 126.77 170.513 126.776 170.338 126.775C169.664 126.761 169.128 126.203 169.143 125.528C169.156 124.853 169.715 124.318 170.389 124.332Z" fill="#0B126D"/>
<path d="M86.9046 106.208C86.4667 104.638 86.1764 103.137 85.9252 101.589C85.674 100.05 85.4883 98.5019 85.3789 96.9493C85.1629 93.846 85.1228 90.7212 85.4512 87.6208C85.6056 86.0721 85.8158 84.5273 86.1207 83.0001C86.4169 81.4719 86.7824 79.9563 87.2467 78.4711C87.4725 77.726 87.7471 76.9966 88.0189 76.2691C88.1616 75.9068 88.3238 75.5524 88.4743 75.195C88.6239 74.8366 88.7842 74.4831 88.965 74.1384C89.6238 72.7332 90.4692 71.4198 91.3694 70.1699C91.4046 70.1201 91.474 70.1094 91.5229 70.1455C91.5639 70.1748 91.5786 70.2285 91.561 70.2744L91.56 70.2783C90.4223 73.1297 89.4224 75.9615 88.7333 78.8851C88.36 80.3372 88.0824 81.8117 87.8713 83.295C87.6523 84.7773 87.5253 86.2723 87.4529 87.7673C87.3161 90.7593 87.3962 93.763 87.7071 96.7423C87.8674 98.2305 88.0687 99.7157 88.3189 101.189C88.5701 102.652 88.8868 104.149 89.2504 105.527L89.2611 105.57C89.4332 106.221 89.0442 106.89 88.3922 107.061C87.7462 107.231 87.0844 106.85 86.9046 106.208Z" fill="#0B126D"/>
<path d="M72.0714 125.405C72.3089 123.602 72.6295 121.858 72.9931 120.103C73.3401 118.35 73.7731 116.616 74.2149 114.887C74.6459 113.154 75.1737 111.446 75.7044 109.743C76.2596 108.046 76.8685 106.368 77.5508 104.718C77.5967 104.607 77.7248 104.553 77.8352 104.6C77.932 104.64 77.9847 104.741 77.9662 104.84L77.9652 104.843C77.6456 106.595 77.2791 108.325 76.9751 110.067C76.7982 110.932 76.6486 111.803 76.4893 112.67L76.0377 115.277C75.7299 117.012 75.4826 118.757 75.2118 120.496C74.9577 122.232 74.7133 123.989 74.4944 125.7L74.4915 125.719C74.4074 126.388 73.7956 126.861 73.126 126.775C72.4565 126.69 71.9834 126.079 72.0685 125.411L72.0714 125.405Z" fill="#0B126D"/>
<path d="M126.956 128.213C126.585 127.435 126.334 126.752 126.076 126.018C125.823 125.296 125.604 124.568 125.399 123.84C124.994 122.383 124.675 120.913 124.409 119.44C124.157 117.963 123.954 116.485 123.823 115.003C123.741 114.264 123.714 113.519 123.657 112.781C123.619 112.04 123.603 111.298 123.574 110.56C123.573 110.528 123.598 110.501 123.63 110.5C123.659 110.498 123.685 110.523 123.689 110.55C123.814 111.278 123.927 112.008 124.061 112.731C124.213 113.454 124.337 114.179 124.512 114.893C124.832 116.328 125.22 117.742 125.652 119.136C126.097 120.527 126.591 121.897 127.157 123.226C127.442 123.89 127.738 124.547 128.062 125.183C128.375 125.809 128.734 126.473 129.071 126.989L129.087 127.013C129.457 127.579 129.299 128.337 128.733 128.708C128.167 129.078 127.407 128.92 127.036 128.354C127.007 128.311 126.979 128.26 126.956 128.213Z" fill="#0B126D"/>
<path d="M156.998 127.016C156.84 126.815 156.759 126.686 156.655 126.526L156.375 126.071C156.202 125.77 156.035 125.467 155.882 125.161C155.57 124.553 155.3 123.936 155.043 123.317C154.536 122.076 154.133 120.813 153.78 119.545C153.419 118.279 153.151 116.995 152.902 115.715C152.785 115.073 152.688 114.429 152.581 113.788L152.328 111.856C152.318 111.776 152.373 111.703 152.453 111.692C152.526 111.683 152.593 111.73 152.612 111.798L152.613 111.803L153.127 113.669C153.321 114.283 153.503 114.9 153.706 115.51C154.123 116.723 154.554 117.929 155.07 119.094C155.577 120.261 156.127 121.404 156.756 122.485C157.074 123.022 157.399 123.553 157.751 124.053C157.924 124.306 158.107 124.546 158.29 124.783L158.568 125.121C158.656 125.222 158.77 125.35 158.822 125.395C159.341 125.834 159.407 126.61 158.967 127.129C158.528 127.648 157.75 127.714 157.23 127.274C157.167 127.221 157.11 127.162 157.061 127.1L156.998 127.016Z" fill="#0B126D"/>
<path d="M89.3696 192.208C84.764 192.208 71.005 191.1 62.1682 178.644L61.1888 184.68C61.1116 185.154 60.7627 185.539 60.2974 185.663C59.8341 185.788 59.3386 185.627 59.0346 185.254C58.8196 184.989 53.7136 178.623 49.9261 166.274C46.4514 154.941 43.5084 136.206 49.2195 111.307C54.5737 87.9675 63.4652 71.3779 76.4042 60.5915C88.1625 50.7914 103.019 46.0261 121.824 46.0261C140.628 46.0261 155.485 50.7904 167.242 60.5925C180.181 71.3789 189.073 87.9685 194.427 111.308C200.138 136.207 197.195 154.942 193.72 166.275C189.932 178.624 184.826 184.989 184.611 185.255C184.307 185.628 183.811 185.789 183.349 185.664C182.883 185.54 182.534 185.155 182.457 184.681L181.478 178.645C170.791 193.709 152.907 192.177 152.717 192.158C152.219 192.11 151.801 191.763 151.661 191.283C151.521 190.802 151.689 190.286 152.084 189.979C173.084 173.643 170.271 135.803 169.357 127.401C164.52 129.425 160.1 128.308 158.267 127.661C155.887 130.166 153.264 130.019 151.824 129.44C137.805 132.339 130.036 129.779 127.991 128.932C118.656 132.654 112.782 129.452 110.826 128.04C102.323 132.409 95.7599 125.427 95.6934 125.354C95.6328 125.287 95.5791 125.214 95.5341 125.136C90.9178 117.098 88.5544 111.108 87.5359 108.179C80.4047 115.747 75.2665 124.541 74.4631 125.95C74.0037 129.405 68.8302 172.294 91.5639 189.978C91.9587 190.285 92.1259 190.801 91.9871 191.282C91.8473 191.761 91.429 192.108 90.9315 192.157C90.8973 192.16 90.3343 192.208 89.3696 192.208ZM170.363 124.332C170.547 124.332 170.73 124.373 170.9 124.456C171.261 124.633 171.512 124.976 171.572 125.373C171.589 125.49 173.303 137.279 171.976 151.237C170.355 168.287 164.889 181.514 156.103 189.751C161.806 189.467 173.863 187.296 181.114 174.684C181.372 174.236 181.885 173.996 182.393 174.091C182.902 174.184 183.297 174.587 183.38 175.096L184.385 181.288C186.178 178.437 189.088 173.097 191.427 165.421C194.786 154.395 197.621 136.151 192.047 111.851C182.127 68.6066 159.814 48.4654 121.825 48.4654C83.8355 48.4654 61.5212 68.6085 51.6014 111.854C46.0272 136.154 48.8617 154.398 52.2211 165.424C54.5591 173.098 57.4688 178.439 59.2633 181.291L60.2681 175.099C60.3502 174.589 60.7461 174.186 61.2553 174.094C61.7587 173.999 62.2757 174.238 62.5338 174.687C69.7852 187.298 81.8415 189.469 87.5447 189.753C78.7588 181.516 73.2921 168.289 71.6716 151.239C70.3443 137.281 72.0576 125.492 72.0752 125.375C72.0967 125.231 72.1437 125.091 72.215 124.963C72.4672 124.508 78.491 113.722 87.2134 105.006C87.5213 104.699 87.9709 104.58 88.3902 104.69C88.8115 104.801 89.1409 105.128 89.2562 105.548C89.2757 105.62 91.2814 112.799 97.5788 123.793C98.3324 124.557 103.592 129.476 110.333 125.525C110.803 125.25 111.399 125.319 111.794 125.695C112.013 125.899 117.388 130.741 127.54 126.479C127.875 126.338 128.254 126.354 128.576 126.52C128.646 126.555 136.215 130.262 151.722 126.968C152.015 126.906 152.322 126.953 152.582 127.102C152.792 127.213 154.817 128.179 156.949 125.453C157.302 125.001 157.921 124.856 158.439 125.104C158.663 125.209 164.074 127.69 169.764 124.489C169.948 124.385 170.156 124.332 170.363 124.332Z" fill="#0B126D"/>
<path d="M184.199 213.267L175.989 276.933H67.6584L64.9666 256.054L59.4481 213.267C59.019 209.959 61.5994 207.024 64.9431 207.024H178.704C182.048 207.024 184.628 209.959 184.199 213.267Z" fill="#CFCFE5"/>
<g opacity="0.3">
<path d="M184.199 213.267L175.989 276.933H67.6583L64.9666 256.054C71.3979 259.866 91.4593 269.699 121.839 265.76C152.076 261.837 173.67 238.819 167.095 207.025H178.704C182.048 207.024 184.628 209.959 184.199 213.267Z" fill="#0B126D"/>
</g>
<g opacity="0.7">
<path d="M184.094 211.296C183.527 208.877 181.358 207.024 178.704 207.024H64.9421C61.5994 207.024 59.019 209.959 59.4481 213.266L64.9666 256.053L67.6584 276.933H70.7196L68.54 260.02L63.0205 217.233C62.5924 213.925 65.1728 210.989 68.5155 210.989H78.2105C78.4011 212.581 82.6294 213.852 87.8214 213.852C93.0134 213.852 97.2426 212.581 97.4323 210.989H182.276C182.917 210.99 183.527 211.1 184.094 211.296Z" fill="white"/>
</g>
<path d="M137.912 242.543C137.912 251.414 130.713 258.607 121.832 258.607C112.952 258.607 105.753 251.415 105.753 242.543C105.753 233.671 112.952 226.478 121.832 226.478C130.713 226.478 137.912 233.67 137.912 242.543Z" fill="#FA6469"/>
<path d="M118.004 246.242C118.004 247.167 117.056 247.789 116.205 247.421L109.033 244.316C108.358 244.023 107.921 243.358 107.921 242.623C107.921 241.887 108.358 241.222 109.033 240.929L116.205 237.824C117.056 237.456 118.004 238.078 118.004 239.003V239.017C118.004 239.549 117.676 240.025 117.179 240.217L110.978 242.603L117.189 245.046C117.68 245.239 118.004 245.713 118.004 246.242Z" fill="white"/>
<path d="M124.239 236.984L121.433 248.53C121.339 248.91 121.257 249.21 121.187 249.431C121.117 249.652 121.01 249.823 120.867 249.947C120.723 250.07 120.514 250.132 120.24 250.132C119.559 250.132 119.218 249.839 119.218 249.251C119.218 249.097 119.284 248.713 119.418 248.099L122.215 236.554C122.361 235.94 122.501 235.52 122.636 235.292C122.769 235.066 123.03 234.951 123.417 234.951C123.751 234.951 124.006 235.031 124.184 235.192C124.361 235.352 124.449 235.571 124.449 235.853C124.449 236.06 124.379 236.438 124.239 236.984Z" fill="white"/>
<path d="M134.634 244.313L127.438 247.443C126.595 247.81 125.651 247.193 125.651 246.273V246.255C125.651 245.73 125.973 245.259 126.461 245.068L132.697 242.622L126.467 240.214C125.976 240.023 125.651 239.551 125.651 239.024C125.651 238.107 126.591 237.489 127.434 237.854L134.628 240.954C135.299 241.244 135.734 241.904 135.734 242.634C135.734 243.363 135.302 244.022 134.634 244.313Z" fill="white"/>
<path d="M175.989 278.323H67.6593C66.9604 278.323 66.3701 277.805 66.2811 277.113L58.0689 213.446C57.8148 211.473 58.4227 209.483 59.7383 207.988C61.0539 206.494 62.9501 205.637 64.9421 205.637H178.708C180.7 205.637 182.596 206.494 183.912 207.988C185.227 209.483 185.835 211.472 185.581 213.445L177.369 277.112C177.277 277.804 176.687 278.323 175.989 278.323ZM68.881 275.546H174.766L182.823 213.092C182.975 211.909 182.611 210.718 181.823 209.823C181.035 208.928 179.899 208.415 178.707 208.415H64.9401C63.7477 208.415 62.6119 208.928 61.8241 209.823C61.0363 210.719 60.6717 211.91 60.8252 213.093L68.881 275.546Z" fill="#0B126D"/>
<path d="M174.046 279.611H69.6014C67.5332 279.611 65.8579 277.937 65.8579 275.871C65.8579 273.806 67.5332 272.132 69.6014 272.132H174.046C176.112 272.132 177.788 273.807 177.788 275.871C177.788 277.936 176.113 279.611 174.046 279.611Z" fill="#CFCFE5"/>
<g opacity="0.3">
<path d="M174.046 272.132H157.134C157.137 272.189 157.143 272.245 157.143 272.302C157.143 274.368 155.467 276.042 153.401 276.042H65.8667C65.9556 278.028 67.5908 279.612 69.6014 279.612H174.046C176.112 279.612 177.788 277.938 177.788 275.872C177.789 273.807 176.113 272.132 174.046 272.132Z" fill="#0B126D"/>
</g>
<path d="M174.046 281H69.6014C66.7708 281 64.468 278.699 64.468 275.871C64.468 273.044 66.7708 270.744 69.6014 270.744H174.046C176.876 270.744 179.178 273.045 179.178 275.871C179.179 278.699 176.876 281 174.046 281ZM69.6014 273.521C68.3034 273.521 67.2478 274.576 67.2478 275.872C67.2478 277.169 68.3034 278.224 69.6014 278.224H174.046C175.344 278.224 176.399 277.169 176.399 275.872C176.399 274.576 175.344 273.521 174.046 273.521H69.6014Z" fill="#0B126D"/>
</g>
<defs>
<clipPath id="clip0_2682_1212">
<rect width="244" height="281" fill="white"/>
</clipPath>
</defs>
</svg>
