<svg width="342" height="304" viewBox="0 0 342 304" fill="none" xmlns="http://www.w3.org/2000/svg">
<path d="M124.531 0.744978C145.191 -2.43791 167.688 4.77293 180.378 18.6532C193.068 32.5334 195.358 52.4303 186.064 68.0462C178.43 80.8789 163.725 91.0095 160.617 105.082C157.862 117.55 166.125 131.137 179.865 136.714C193.606 142.29 211.627 139.38 221.826 129.928C230.003 122.358 233.001 111.736 240.934 103.994C255.597 89.6888 284.024 89.6989 302.839 100.153C321.654 110.603 332.207 128.754 337.941 146.915C341.031 156.707 342.986 166.913 341.483 176.958C339.981 187.002 334.729 196.941 325.361 203.438C314.955 210.654 300.916 212.88 287.511 214.626C274.106 216.372 260.097 218.067 249.007 224.544C237.917 231.021 231.004 243.975 237.52 253.838C243.841 263.402 259.236 265.805 272.342 264.783C285.447 263.761 298.674 260.426 311.541 262.739C332.537 266.509 346.424 287.241 339.181 304H-2.47205e-06L-2.29372e-07 28.2069L124.531 0.744978Z" fill="#6FC2FF"/>
</svg>
