<svg width="250" height="40" viewBox="0 0 250 40" fill="none" xmlns="http://www.w3.org/2000/svg">
<path d="M3.008 31.5V9.1H13.504C16.192 9.1 18.24 9.63333 19.648 10.7C21.056 11.7453 21.76 13.1533 21.76 14.924C21.76 16.1187 21.4827 17.1427 20.928 17.996C20.3733 18.828 19.6267 19.4787 18.688 19.948C17.7707 20.396 16.768 20.62 15.68 20.62L16.256 19.468C17.5147 19.468 18.6453 19.7027 19.648 20.172C20.6507 20.62 21.44 21.2813 22.016 22.156C22.6133 23.0307 22.912 24.1187 22.912 25.42C22.912 27.34 22.176 28.8333 20.704 29.9C19.232 30.9667 17.0453 31.5 14.144 31.5H3.008ZM7.168 28.236H13.888C15.4453 28.236 16.64 27.98 17.472 27.468C18.304 26.956 18.72 26.1347 18.72 25.004C18.72 23.8947 18.304 23.084 17.472 22.572C16.64 22.0387 15.4453 21.772 13.888 21.772H6.848V18.54H13.056C14.5067 18.54 15.616 18.284 16.384 17.772C17.1733 17.26 17.568 16.492 17.568 15.468C17.568 14.4227 17.1733 13.644 16.384 13.132C15.616 12.62 14.5067 12.364 13.056 12.364H7.168V28.236ZM37.1758 31.5V28.044L36.9518 27.308V21.26C36.9518 20.0867 36.5998 19.18 35.8958 18.54C35.1918 17.8787 34.1251 17.548 32.6958 17.548C31.7358 17.548 30.7864 17.6973 29.8478 17.996C28.9304 18.2947 28.1518 18.7107 27.5118 19.244L25.9438 16.332C26.8611 15.628 27.9491 15.1053 29.2078 14.764C30.4878 14.4013 31.8104 14.22 33.1758 14.22C35.6504 14.22 37.5598 14.8173 38.9038 16.012C40.2691 17.1853 40.9518 19.0093 40.9518 21.484V31.5H37.1758ZM31.7998 31.724C30.5198 31.724 29.3998 31.5107 28.4398 31.084C27.4798 30.636 26.7331 30.028 26.1998 29.26C25.6878 28.4707 25.4318 27.5853 25.4318 26.604C25.4318 25.644 25.6558 24.78 26.1038 24.012C26.5731 23.244 27.3304 22.636 28.3758 22.188C29.4211 21.74 30.8078 21.516 32.5358 21.516H37.4958V24.172H32.8238C31.4584 24.172 30.5411 24.396 30.0718 24.844C29.6024 25.2707 29.3678 25.804 29.3678 26.444C29.3678 27.1693 29.6558 27.7453 30.2318 28.172C30.8078 28.5987 31.6078 28.812 32.6318 28.812C33.6131 28.812 34.4878 28.588 35.2558 28.14C36.0451 27.692 36.6104 27.0307 36.9518 26.156L37.6238 28.556C37.2398 29.5587 36.5464 30.3373 35.5438 30.892C34.5624 31.4467 33.3144 31.724 31.7998 31.724ZM51.0453 31.724C49.6159 31.724 48.2399 31.5427 46.9173 31.18C45.6159 30.796 44.5813 30.3373 43.8133 29.804L45.3493 26.764C46.1173 27.2547 47.0346 27.66 48.1013 27.98C49.1679 28.3 50.2346 28.46 51.3013 28.46C52.5599 28.46 53.4666 28.2893 54.0213 27.948C54.5973 27.6067 54.8853 27.148 54.8853 26.572C54.8853 26.1027 54.6933 25.7507 54.3093 25.516C53.9253 25.26 53.4239 25.068 52.8053 24.94C52.1866 24.812 51.4933 24.6947 50.7253 24.588C49.9786 24.4813 49.2213 24.3427 48.4533 24.172C47.7066 23.98 47.0239 23.7133 46.4053 23.372C45.7866 23.0093 45.2853 22.5293 44.9013 21.932C44.5173 21.3347 44.3253 20.5453 44.3253 19.564C44.3253 18.476 44.6346 17.5373 45.2533 16.748C45.8719 15.9373 46.7359 15.3187 47.8453 14.892C48.9759 14.444 50.3093 14.22 51.8453 14.22C52.9973 14.22 54.1599 14.348 55.3333 14.604C56.5066 14.86 57.4773 15.2227 58.2453 15.692L56.7093 18.732C55.8986 18.2413 55.0773 17.9107 54.2453 17.74C53.4346 17.548 52.6239 17.452 51.8133 17.452C50.5973 17.452 49.6906 17.6333 49.0933 17.996C48.5173 18.3587 48.2293 18.8173 48.2293 19.372C48.2293 19.884 48.4213 20.268 48.8053 20.524C49.1893 20.78 49.6906 20.9827 50.3093 21.132C50.9279 21.2813 51.6106 21.4093 52.3573 21.516C53.1253 21.6013 53.8826 21.74 54.6293 21.932C55.3759 22.124 56.0586 22.3907 56.6773 22.732C57.3173 23.052 57.8293 23.5107 58.2133 24.108C58.5973 24.7053 58.7893 25.484 58.7893 26.444C58.7893 27.5107 58.4693 28.4387 57.8293 29.228C57.2106 30.0173 56.3253 30.636 55.1733 31.084C54.0213 31.5107 52.6453 31.724 51.0453 31.724ZM50.3413 38.796C49.7653 38.796 49.2319 38.732 48.7413 38.604C48.2506 38.4973 47.8026 38.3373 47.3973 38.124L48.1333 36.236C48.4746 36.4067 48.8159 36.5347 49.1573 36.62C49.5199 36.7053 49.9039 36.748 50.3093 36.748C50.9279 36.748 51.3653 36.6413 51.6213 36.428C51.8773 36.2147 52.0053 35.9373 52.0053 35.596C52.0053 35.276 51.8666 35.02 51.5893 34.828C51.3333 34.636 50.9066 34.54 50.3093 34.54H49.3173L50.1813 31.276H52.3573L51.9093 33.068C52.8479 33.1747 53.5413 33.4733 53.9893 33.964C54.4586 34.476 54.6933 35.0733 54.6933 35.756C54.6933 36.6947 54.2986 37.4307 53.5093 37.964C52.7199 38.5187 51.6639 38.796 50.3413 38.796ZM61.914 31.5V7.756H65.914V31.5H61.914ZM81.372 31.5V28.044L81.148 27.308V21.26C81.148 20.0867 80.796 19.18 80.092 18.54C79.388 17.8787 78.3213 17.548 76.892 17.548C75.932 17.548 74.9827 17.6973 74.044 17.996C73.1267 18.2947 72.348 18.7107 71.708 19.244L70.14 16.332C71.0573 15.628 72.1453 15.1053 73.404 14.764C74.684 14.4013 76.0067 14.22 77.372 14.22C79.8467 14.22 81.756 14.8173 83.1 16.012C84.4653 17.1853 85.148 19.0093 85.148 21.484V31.5H81.372ZM75.996 31.724C74.716 31.724 73.596 31.5107 72.636 31.084C71.676 30.636 70.9293 30.028 70.396 29.26C69.884 28.4707 69.628 27.5853 69.628 26.604C69.628 25.644 69.852 24.78 70.3 24.012C70.7693 23.244 71.5267 22.636 72.572 22.188C73.6173 21.74 75.004 21.516 76.732 21.516H81.692V24.172H77.02C75.6547 24.172 74.7373 24.396 74.268 24.844C73.7987 25.2707 73.564 25.804 73.564 26.444C73.564 27.1693 73.852 27.7453 74.428 28.172C75.004 28.5987 75.804 28.812 76.828 28.812C77.8093 28.812 78.684 28.588 79.452 28.14C80.2413 27.692 80.8067 27.0307 81.148 26.156L81.82 28.556C81.436 29.5587 80.7427 30.3373 79.74 30.892C78.7587 31.4467 77.5107 31.724 75.996 31.724ZM97.2248 31.724C95.5821 31.724 94.0994 31.3613 92.7768 30.636C91.4754 29.8893 90.4514 28.8653 89.7048 27.564C88.9581 26.2627 88.5848 24.7267 88.5848 22.956C88.5848 21.1853 88.9581 19.6493 89.7048 18.348C90.4514 17.0467 91.4754 16.0333 92.7768 15.308C94.0994 14.5827 95.5821 14.22 97.2248 14.22C98.6541 14.22 99.9341 14.54 101.065 15.18C102.195 15.7987 103.091 16.748 103.753 18.028C104.414 19.308 104.745 20.9507 104.745 22.956C104.745 24.94 104.425 26.5827 103.785 27.884C103.145 29.164 102.259 30.124 101.129 30.764C99.9981 31.404 98.6968 31.724 97.2248 31.724ZM97.7048 28.3C98.6648 28.3 99.5181 28.0867 100.265 27.66C101.033 27.2333 101.641 26.6147 102.089 25.804C102.558 24.9933 102.793 24.044 102.793 22.956C102.793 21.8467 102.558 20.8973 102.089 20.108C101.641 19.2973 101.033 18.6787 100.265 18.252C99.5181 17.8253 98.6648 17.612 97.7048 17.612C96.7448 17.612 95.8808 17.8253 95.1128 18.252C94.3661 18.6787 93.7581 19.2973 93.2888 20.108C92.8408 20.8973 92.6168 21.8467 92.6168 22.956C92.6168 24.044 92.8408 24.9933 93.2888 25.804C93.7581 26.6147 94.3661 27.2333 95.1128 27.66C95.8808 28.0867 96.7448 28.3 97.7048 28.3ZM102.889 31.5V27.468L103.049 22.924L102.729 18.38V7.756H106.697V31.5H102.889ZM111.642 31.5V14.412H115.642V31.5H111.642ZM127.804 31.724C126.161 31.724 124.678 31.3613 123.356 30.636C122.054 29.9107 121.03 28.8973 120.284 27.596C119.537 26.2733 119.164 24.7267 119.164 22.956C119.164 21.1853 119.537 19.6493 120.284 18.348C121.03 17.0467 122.054 16.0333 123.356 15.308C124.678 14.5827 126.161 14.22 127.804 14.22C129.276 14.22 130.566 14.54 131.676 15.18C132.806 15.7987 133.692 16.748 134.332 18.028C134.993 19.308 135.324 20.9507 135.324 22.956C135.324 24.94 134.982 26.5827 134.3 27.884C133.638 29.164 132.742 30.124 131.612 30.764C130.481 31.404 129.212 31.724 127.804 31.724ZM128.252 28.3C129.212 28.3 130.076 28.0867 130.844 27.66C131.612 27.2333 132.22 26.6147 132.668 25.804C133.116 24.9933 133.34 24.044 133.34 22.956C133.34 21.8467 133.116 20.8973 132.668 20.108C132.22 19.2973 131.612 18.6787 130.844 18.252C130.076 17.8253 129.212 17.612 128.252 17.612C127.292 17.612 126.428 17.8253 125.66 18.252C124.913 18.6787 124.316 19.2973 123.868 20.108C123.42 20.8973 123.196 21.8467 123.196 22.956C123.196 24.044 123.42 24.9933 123.868 25.804C124.316 26.6147 124.913 27.2333 125.66 27.66C126.428 28.0867 127.292 28.3 128.252 28.3ZM133.276 37.708V27.532L133.596 22.988L133.468 18.444V14.412H137.276V37.708H133.276ZM149.421 31.724C147.778 31.724 146.296 31.3613 144.973 30.636C143.672 29.8893 142.648 28.8653 141.901 27.564C141.154 26.2627 140.781 24.7267 140.781 22.956C140.781 21.1853 141.154 19.6493 141.901 18.348C142.648 17.0467 143.672 16.0333 144.973 15.308C146.296 14.5827 147.778 14.22 149.421 14.22C150.85 14.22 152.13 14.54 153.261 15.18C154.392 15.7987 155.288 16.748 155.949 18.028C156.61 19.308 156.941 20.9507 156.941 22.956C156.941 24.94 156.621 26.5827 155.981 27.884C155.341 29.164 154.456 30.124 153.325 30.764C152.194 31.404 150.893 31.724 149.421 31.724ZM149.901 28.3C150.861 28.3 151.714 28.0867 152.461 27.66C153.229 27.2333 153.837 26.6147 154.285 25.804C154.754 24.9933 154.989 24.044 154.989 22.956C154.989 21.8467 154.754 20.8973 154.285 20.108C153.837 19.2973 153.229 18.6787 152.461 18.252C151.714 17.8253 150.861 17.612 149.901 17.612C148.941 17.612 148.077 17.8253 147.309 18.252C146.562 18.6787 145.954 19.2973 145.485 20.108C145.037 20.8973 144.813 21.8467 144.813 22.956C144.813 24.044 145.037 24.9933 145.485 25.804C145.954 26.6147 146.562 27.2333 147.309 27.66C148.077 28.0867 148.941 28.3 149.901 28.3ZM155.085 31.5V27.468L155.245 22.924L154.925 18.38V7.756H158.893V31.5H155.085ZM174.366 31.5V28.044L174.142 27.308V21.26C174.142 20.0867 173.79 19.18 173.086 18.54C172.382 17.8787 171.315 17.548 169.886 17.548C168.926 17.548 167.976 17.6973 167.038 17.996C166.12 18.2947 165.342 18.7107 164.702 19.244L163.134 16.332C164.051 15.628 165.139 15.1053 166.398 14.764C167.678 14.4013 169 14.22 170.366 14.22C172.84 14.22 174.75 14.8173 176.094 16.012C177.459 17.1853 178.142 19.0093 178.142 21.484V31.5H174.366ZM168.99 31.724C167.71 31.724 166.59 31.5107 165.63 31.084C164.67 30.636 163.923 30.028 163.39 29.26C162.878 28.4707 162.622 27.5853 162.622 26.604C162.622 25.644 162.846 24.78 163.294 24.012C163.763 23.244 164.52 22.636 165.566 22.188C166.611 21.74 167.998 21.516 169.726 21.516H174.686V24.172H170.014C168.648 24.172 167.731 24.396 167.262 24.844C166.792 25.2707 166.558 25.804 166.558 26.444C166.558 27.1693 166.846 27.7453 167.422 28.172C167.998 28.5987 168.798 28.812 169.822 28.812C170.803 28.812 171.678 28.588 172.446 28.14C173.235 27.692 173.8 27.0307 174.142 26.156L174.814 28.556C174.43 29.5587 173.736 30.3373 172.734 30.892C171.752 31.4467 170.504 31.724 168.99 31.724Z" fill="white"/>
<path d="M245.681 15.5883C246.482 16.014 247.151 16.6495 247.618 17.4266C248.085 18.2038 248.332 19.0934 248.332 20C248.332 20.9066 248.085 21.7962 247.618 22.5734C247.151 23.3505 246.482 23.986 245.681 24.4117L224.328 36.0233C220.889 37.895 216.666 35.4617 216.666 31.6133V8.38834C216.666 4.53834 220.889 2.10667 224.328 3.975L245.681 15.5883Z" fill="white"/>
</svg>
