<svg width="240" height="98" viewBox="0 0 240 98" fill="none" xmlns="http://www.w3.org/2000/svg">
<path d="M0 9.99999C0 4.47714 4.47715 0 10 0H38.2071C40.4074 0 42.5463 0.725727 44.2924 2.06472L44.9352 2.55768C48.5967 5.36556 53.7163 5.2569 57.2553 2.29619C59.0285 0.812784 61.2667 0 63.5785 0H230C235.523 0 240 4.47715 240 10V81.0868C240 86.5741 235.578 91.0363 230.091 91.0864L63.5433 92.6057C61.2523 92.6266 59.0395 93.4416 57.2822 94.9117C53.7274 97.8856 48.5851 97.9947 44.9074 95.1744L44.119 94.5698C42.48 93.3129 40.4919 92.5943 38.4281 92.5128L9.60557 91.3752C4.24035 91.1634 0 86.7523 0 81.3829V9.99999Z" fill="#99D1ED"/>
</svg>
