<svg width="36" height="38" viewBox="0 0 36 38" fill="none" xmlns="http://www.w3.org/2000/svg">
<path fill-rule="evenodd" clip-rule="evenodd" d="M8.62496 17.9585C8.07243 17.9585 7.54252 18.178 7.15182 18.5687C6.76112 18.9594 6.54163 19.4893 6.54163 20.0418V22.1252C6.54163 22.6777 6.76112 23.2076 7.15182 23.5983C7.54252 23.989 8.07243 24.2085 8.62496 24.2085H10.7083C11.2608 24.2085 11.7907 23.989 12.1814 23.5983C12.5721 23.2076 12.7916 22.6777 12.7916 22.1252V20.0418C12.7916 19.4893 12.5721 18.9594 12.1814 18.5687C11.7907 18.178 11.2608 17.9585 10.7083 17.9585H8.62496ZM8.62496 20.0418V22.1252H10.7083V20.0418H8.62496ZM14.875 20.0418C14.875 19.4893 15.0945 18.9594 15.4852 18.5687C15.8759 18.178 16.4058 17.9585 16.9583 17.9585H19.0416C19.5942 17.9585 20.1241 18.178 20.5148 18.5687C20.9055 18.9594 21.125 19.4893 21.125 20.0418V22.1252C21.125 22.6777 20.9055 23.2076 20.5148 23.5983C20.1241 23.989 19.5942 24.2085 19.0416 24.2085H16.9583C16.4058 24.2085 15.8759 23.989 15.4852 23.5983C15.0945 23.2076 14.875 22.6777 14.875 22.1252V20.0418ZM16.9583 20.0418H19.0416V22.1252H16.9583V20.0418ZM25.2916 17.9585C24.7391 17.9585 24.2092 18.178 23.8185 18.5687C23.4278 18.9594 23.2083 19.4893 23.2083 20.0418V22.1252C23.2083 22.6777 23.4278 23.2076 23.8185 23.5983C24.2092 23.989 24.7391 24.2085 25.2916 24.2085H27.375C27.9275 24.2085 28.4574 23.989 28.8481 23.5983C29.2388 23.2076 29.4583 22.6777 29.4583 22.1252V20.0418C29.4583 19.4893 29.2388 18.9594 28.8481 18.5687C28.4574 18.178 27.9275 17.9585 27.375 17.9585H25.2916ZM25.2916 20.0418V22.1252H27.375V20.0418H25.2916ZM6.54163 28.3752C6.54163 27.8226 6.76112 27.2927 7.15182 26.902C7.54252 26.5113 8.07243 26.2918 8.62496 26.2918H10.7083C11.2608 26.2918 11.7907 26.5113 12.1814 26.902C12.5721 27.2927 12.7916 27.8226 12.7916 28.3752V30.4585C12.7916 31.011 12.5721 31.5409 12.1814 31.9316C11.7907 32.3223 11.2608 32.5418 10.7083 32.5418H8.62496C8.07243 32.5418 7.54252 32.3223 7.15182 31.9316C6.76112 31.5409 6.54163 31.011 6.54163 30.4585V28.3752ZM8.62496 30.4585V28.3752H10.7083V30.4585H8.62496ZM16.9583 26.2918C16.4058 26.2918 15.8759 26.5113 15.4852 26.902C15.0945 27.2927 14.875 27.8226 14.875 28.3752V30.4585C14.875 31.011 15.0945 31.5409 15.4852 31.9316C15.8759 32.3223 16.4058 32.5418 16.9583 32.5418H19.0416C19.5942 32.5418 20.1241 32.3223 20.5148 31.9316C20.9055 31.5409 21.125 31.011 21.125 30.4585V28.3752C21.125 27.8226 20.9055 27.2927 20.5148 26.902C20.1241 26.5113 19.5942 26.2918 19.0416 26.2918H16.9583ZM19.0416 28.3752H16.9583V30.4585H19.0416V28.3752ZM23.2083 28.3752C23.2083 27.8226 23.4278 27.2927 23.8185 26.902C24.2092 26.5113 24.7391 26.2918 25.2916 26.2918H27.375C27.9275 26.2918 28.4574 26.5113 28.8481 26.902C29.2388 27.2927 29.4583 27.8226 29.4583 28.3752V30.4585C29.4583 31.011 29.2388 31.5409 28.8481 31.9316C28.4574 32.3223 27.9275 32.5418 27.375 32.5418H25.2916C24.7391 32.5418 24.2092 32.3223 23.8185 31.9316C23.4278 31.5409 23.2083 31.011 23.2083 30.4585V28.3752ZM25.2916 30.4585V28.3752H27.375V30.4585H25.2916Z" fill="#FE93A6"/>
<path fill-rule="evenodd" clip-rule="evenodd" d="M9.66663 0.25C9.39036 0.25 9.12541 0.359747 8.93006 0.555097C8.73471 0.750448 8.62496 1.0154 8.62496 1.29167V4.41667H4.45829C3.35322 4.41667 2.29342 4.85565 1.51201 5.63705C0.730613 6.41846 0.291626 7.47826 0.291626 8.58333V33.5833C0.291626 34.6884 0.730613 35.7482 1.51201 36.5296C2.29342 37.311 3.35322 37.75 4.45829 37.75H31.5416C32.6467 37.75 33.7065 37.311 34.4879 36.5296C35.2693 35.7482 35.7083 34.6884 35.7083 33.5833V8.58333C35.7083 7.47826 35.2693 6.41846 34.4879 5.63705C33.7065 4.85565 32.6467 4.41667 31.5416 4.41667H29.4583V7.54167C29.4583 7.81793 29.3485 8.08289 29.1532 8.27824C28.9578 8.47359 28.6929 8.58333 28.4166 8.58333C28.1404 8.58333 27.8754 8.47359 27.6801 8.27824C27.4847 8.08289 27.375 7.81793 27.375 7.54167V1.29167C27.375 1.0154 27.2652 0.750448 27.0699 0.555097C26.8745 0.359747 26.6096 0.25 26.3333 0.25C26.057 0.25 25.7921 0.359747 25.5967 0.555097C25.4014 0.750448 25.2916 1.0154 25.2916 1.29167V4.41667H12.7916V7.54167C12.7916 7.81793 12.6819 8.08289 12.4865 8.27824C12.2912 8.47359 12.0262 8.58333 11.75 8.58333C11.4737 8.58333 11.2087 8.47359 11.0134 8.27824C10.818 8.08289 10.7083 7.81793 10.7083 7.54167V1.29167C10.7083 1.0154 10.5985 0.750448 10.4032 0.555097C10.2078 0.359747 9.94289 0.25 9.66663 0.25ZM2.37496 33.5833V15.875H33.625V33.5833C33.625 34.1359 33.4055 34.6658 33.0148 35.0565C32.6241 35.4472 32.0942 35.6667 31.5416 35.6667H4.45829C3.90576 35.6667 3.37585 35.4472 2.98515 35.0565C2.59445 34.6658 2.37496 34.1359 2.37496 33.5833Z" fill="#FE93A6"/>
</svg>
