<svg width="24" height="24" viewBox="0 0 24 24" fill="none" xmlns="http://www.w3.org/2000/svg">
<path d="M22 12.1805C22 11.3602 21.9319 10.7617 21.7845 10.1409H12.1985V13.8431H17.8252C17.7118 14.7632 17.0992 16.1488 15.7379 17.0798L15.7188 17.2037L18.7497 19.498L18.9597 19.5185C20.8882 17.7782 22 15.2176 22 12.1805Z" fill="#1877F2"/>
<path d="M12.1985 21.9349C14.9552 21.9349 17.2694 21.0481 18.9597 19.5184L15.7379 17.0798C14.8758 17.6673 13.7186 18.0774 12.1985 18.0774C9.49858 18.0774 7.20704 16.3372 6.39017 13.9318L6.27043 13.9418L3.11885 16.3249L3.07764 16.4369C4.75658 19.6957 8.20527 21.9349 12.1985 21.9349Z" fill="#02A2D0"/>
<path d="M6.39009 13.9319C6.17455 13.3111 6.04981 12.646 6.04981 11.9588C6.04981 11.2715 6.17455 10.6065 6.37875 9.98574L6.37304 9.85354L3.18196 7.43207L3.07756 7.48059C2.38558 8.83293 1.98853 10.3515 1.98853 11.9588C1.98853 13.5661 2.38558 15.0846 3.07756 16.4369L6.39009 13.9319Z" fill="#FBBC05"/>
<path d="M12.1985 5.84007C14.1157 5.84007 15.4089 6.64924 16.1463 7.32544L19.0278 4.57645C17.2581 2.9692 14.9552 1.98267 12.1985 1.98267C8.20527 1.98267 4.75658 4.22173 3.07764 7.48056L6.37883 9.98571C7.20704 7.58036 9.49858 5.84007 12.1985 5.84007Z" fill="#EB4335"/>
</svg>
