<svg width="240" height="146" viewBox="0 0 240 146" fill="none" xmlns="http://www.w3.org/2000/svg">
<path d="M0 10C0 4.47715 4.47715 0 10 0H37.5757C40.1321 0 42.5631 1.10782 44.2403 3.03712L44.5879 3.43696C48.0276 7.39376 54.2134 7.26145 57.4809 3.1612C59.0727 1.16361 61.4879 0 64.0422 0H230C235.523 0 240 4.47715 240 10V126.63C240 132.099 235.606 136.554 230.137 136.629L63.9912 138.902C61.4648 138.937 59.087 140.103 57.5124 142.079C54.2285 146.2 48.0117 146.333 44.5547 142.356L44.089 141.82C42.4972 139.989 40.2349 138.876 37.8129 138.733L9.40895 137.051C4.12492 136.738 0 132.362 0 127.069V10Z" fill="#99D1ED"/>
</svg>
