<svg width="48" height="48" viewBox="0 0 48 48" fill="none" xmlns="http://www.w3.org/2000/svg">
<path d="M23.6541 1.87096C16.9007 1.90499 10.2488 5.01477 5.91845 10.8681C-0.628117 19.7172 0.375477 31.8044 7.77938 39.4612L4.28832 44.1799L18.4652 42.0599L16.3449 27.8831L12.3009 33.3495C8.16835 28.2512 7.82682 20.8202 11.9109 15.2998C14.7867 11.4124 19.2105 9.3463 23.7007 9.32296C25.2482 9.31479 26.7873 9.55105 28.2611 10.023L27.6084 5.65892C25.4144 5.21179 23.1561 5.18009 20.9505 5.56546C15.3975 6.25189 10.2636 9.30777 7.06079 14.1169C10.403 7.93967 16.7896 4.18705 23.5648 4.01586C25.1282 3.97663 26.6904 4.12902 28.2167 4.46961L32.7737 3.78824C29.8543 2.48455 26.7437 1.85511 23.6543 1.87077L23.6541 1.87096ZM43.6163 3.93861L29.4397 6.0583L31.5597 20.2352L35.4153 15.0238C39.3719 20.1135 39.6427 27.4033 35.6203 32.8403C31.8497 37.9372 25.4184 39.9016 19.665 38.2371L20.2764 42.3245C22.9574 42.8404 25.7205 42.742 28.358 42.0366C31.8687 41.4782 35.2336 39.9695 38.0292 37.5621C33.4171 42.6856 26.5341 44.8291 20.0532 43.594L14.822 44.3763C24.106 48.4731 35.2972 45.761 41.5885 37.2571C48.0695 28.4966 47.1517 16.5624 39.9495 8.89489L43.6164 3.93871L43.6163 3.93861Z" fill="white"/>
</svg>
