<svg width="58" height="58" viewBox="0 0 58 58" fill="none" xmlns="http://www.w3.org/2000/svg">
<path d="M23.5107 37.9463C23.3241 38.2403 23.262 38.5962 23.338 38.9359C23.4139 39.2756 23.6217 39.5713 23.9156 39.7578C29.5186 43.3135 36.9227 41.7839 40.4343 36.2503C43.9459 30.7168 42.1772 23.3661 36.5742 19.8104C31.9863 16.8989 26.1902 17.397 22.313 20.7109L22.3784 18.6384C22.3896 18.2903 22.262 17.9521 22.0238 17.6981C21.7856 17.4442 21.4563 17.2952 21.1082 17.2841C20.7602 17.2729 20.422 17.4005 20.168 17.6387C19.914 17.8769 19.7651 18.2062 19.754 18.5543L19.5791 24.1534C19.5681 24.4967 19.6921 24.8307 19.9246 25.0836C20.157 25.3365 20.4793 25.4882 20.8223 25.5061L26.4839 25.8014C26.6561 25.8104 26.8284 25.7854 26.9909 25.7278C27.1534 25.6702 27.303 25.5811 27.431 25.4657C27.5591 25.3503 27.6632 25.2108 27.7374 25.0551C27.8116 24.8995 27.8544 24.7308 27.8633 24.5586C27.8723 24.3864 27.8473 24.2141 27.7897 24.0516C27.7321 23.8891 27.643 23.7396 27.5276 23.6115C27.4122 23.4834 27.2727 23.3793 27.117 23.3051C26.9614 23.2309 26.7927 23.1881 26.6205 23.1792L23.6672 23.0253C26.6608 20.1828 31.3969 19.6338 35.1662 22.0258C39.596 24.837 40.9213 30.5839 38.218 34.8438C35.5146 39.1037 29.7504 40.3516 25.3221 37.5414C25.0282 37.3549 24.6722 37.2928 24.3325 37.3687C23.9928 37.4447 23.6972 37.6524 23.5107 37.9463Z" fill="white"/>
</svg>
