<svg width="24" height="25" viewBox="0 0 24 25" fill="none" xmlns="http://www.w3.org/2000/svg">
<path d="M4.51065 20.9462C4.32414 21.2401 4.26202 21.5961 4.33796 21.9358C4.4139 22.2755 4.62168 22.5711 4.91559 22.7577C10.5186 26.3133 17.9227 24.7837 21.4343 19.2502C24.9459 13.7166 23.1772 6.36592 17.5742 2.81025C12.9863 -0.101244 7.19018 0.39687 3.31299 3.71077L3.37844 1.63821C3.38959 1.29019 3.26203 0.95198 3.02382 0.698003C2.78561 0.444025 2.45626 0.295079 2.10823 0.283929C1.7602 0.272779 1.422 0.400339 1.16802 0.638549C0.914044 0.876757 0.765099 1.2061 0.75395 1.55413L0.57911 7.1533C0.568119 7.49661 0.692147 7.83055 0.924577 8.08345C1.15701 8.33634 1.47932 8.48805 1.82233 8.506L7.48393 8.80129C7.65611 8.81026 7.82837 8.78523 7.99088 8.72762C8.15338 8.67001 8.30295 8.58096 8.43104 8.46555C8.55913 8.35014 8.66324 8.21063 8.73741 8.05499C8.81159 7.89935 8.85438 7.73062 8.86335 7.55844C8.87232 7.38626 8.84728 7.214 8.78967 7.05149C8.73207 6.88898 8.64302 6.73942 8.52761 6.61133C8.4122 6.48324 8.27269 6.37913 8.11705 6.30496C7.9614 6.23078 7.79267 6.18799 7.62049 6.17902L4.66721 6.02516C7.66076 3.18267 12.3969 2.63367 16.1662 5.02569C20.596 7.83685 21.9213 13.5838 19.218 17.8437C16.5146 22.1035 10.7504 23.3515 6.3221 20.5413C6.02819 20.3548 5.67223 20.2926 5.33252 20.3686C4.9928 20.4445 4.69717 20.6523 4.51065 20.9462Z" fill="white"/>
</svg>
