<svg width="25" height="32" viewBox="0 0 25 32" fill="none" xmlns="http://www.w3.org/2000/svg">
<g clip-path="url(#clip0_2002_28)" filter="url(#filter0_d_2002_28)">
<path d="M12.4996 14.5197C15.2863 14.5197 17.5453 12.2245 17.5453 9.39339C17.5453 6.56223 15.2863 4.26712 12.4996 4.26712C9.71299 4.26712 7.45398 6.56223 7.45398 9.39339C7.45398 12.2245 9.71299 14.5197 12.4996 14.5197Z" fill="#3D3D3D"/>
<path d="M20.9986 24.3645C20.8325 24.52 20.6622 24.6711 20.4875 24.8178C18.3177 26.6394 15.535 27.7329 12.5004 27.7329C9.4672 27.7329 6.68524 26.6395 4.51611 24.8192C4.51539 24.8192 4.51467 24.8185 4.51467 24.8185C4.33926 24.6718 4.16891 24.5207 4.00217 24.3645C4.00866 23.7661 4.02526 21.9825 4 21.9532C4 18.4037 6.0262 16.5197 12.4996 16.5197C18.9731 16.5197 20.9993 18.403 20.9993 21.9532C20.9762 21.9818 20.9921 23.7668 20.9986 24.3645Z" fill="#3D3D3D"/>
</g>
<defs>
<filter id="filter0_d_2002_28" x="0" y="0.26712" width="24.9993" height="31.4658" filterUnits="userSpaceOnUse" color-interpolation-filters="sRGB">
<feFlood flood-opacity="0" result="BackgroundImageFix"/>
<feColorMatrix in="SourceAlpha" type="matrix" values="0 0 0 0 0 0 0 0 0 0 0 0 0 0 0 0 0 0 127 0" result="hardAlpha"/>
<feOffset/>
<feGaussianBlur stdDeviation="2"/>
<feComposite in2="hardAlpha" operator="out"/>
<feColorMatrix type="matrix" values="0 0 0 0 0 0 0 0 0 0 0 0 0 0 0 0 0 0 0.25 0"/>
<feBlend mode="normal" in2="BackgroundImageFix" result="effect1_dropShadow_2002_28"/>
<feBlend mode="normal" in="SourceGraphic" in2="effect1_dropShadow_2002_28" result="shape"/>
</filter>
<clipPath id="clip0_2002_28">
<rect width="16.9993" height="23.4658" fill="white" transform="translate(4 4.26712)"/>
</clipPath>
</defs>
</svg>
