<svg width="25" height="32" viewBox="0 0 25 32" fill="none" xmlns="http://www.w3.org/2000/svg">
<g clip-path="url(#clip0_2002_28)" filter="url(#filter0_d_2002_28)">
<path d="M12.4996 14.2525C15.2863 14.2525 17.5453 11.9574 17.5453 9.12627C17.5453 6.29511 15.2863 4 12.4996 4C9.71299 4 7.45398 6.29511 7.45398 9.12627C7.45398 11.9574 9.71299 14.2525 12.4996 14.2525Z" fill="#3D3D3D"/>
<path d="M20.9986 24.0974C20.8325 24.2529 20.6622 24.404 20.4875 24.5506C18.3177 26.3723 15.535 27.4658 12.5004 27.4658C9.4672 27.4658 6.68524 26.3723 4.51611 24.5521C4.51539 24.5521 4.51467 24.5514 4.51467 24.5514C4.33926 24.4047 4.16891 24.2536 4.00217 24.0974C4.00866 23.499 4.02526 21.7154 4 21.6861C4 18.1366 6.0262 16.2525 12.4996 16.2525C18.9731 16.2525 20.9993 18.1358 20.9993 21.6861C20.9762 21.7147 20.9921 23.4997 20.9986 24.0974Z" fill="#3D3D3D"/>
</g>
<defs>
<filter id="filter0_d_2002_28" x="0" y="0" width="24.9993" height="31.4658" filterUnits="userSpaceOnUse" color-interpolation-filters="sRGB">
<feFlood flood-opacity="0" result="BackgroundImageFix"/>
<feColorMatrix in="SourceAlpha" type="matrix" values="0 0 0 0 0 0 0 0 0 0 0 0 0 0 0 0 0 0 127 0" result="hardAlpha"/>
<feOffset/>
<feGaussianBlur stdDeviation="2"/>
<feComposite in2="hardAlpha" operator="out"/>
<feColorMatrix type="matrix" values="0 0 0 0 0 0 0 0 0 0 0 0 0 0 0 0 0 0 0.25 0"/>
<feBlend mode="normal" in2="BackgroundImageFix" result="effect1_dropShadow_2002_28"/>
<feBlend mode="normal" in="SourceGraphic" in2="effect1_dropShadow_2002_28" result="shape"/>
</filter>
<clipPath id="clip0_2002_28">
<rect width="16.9993" height="23.4658" fill="white" transform="translate(4 4)"/>
</clipPath>
</defs>
</svg>
